<?xml version="1.0" encoding="UTF-8"?>
<svg version="1.1" xmlns="http://www.w3.org/2000/svg" width="400" height="60">
<path d="M0 0 C4.05325501 1.10543319 6.38771021 2.71357091 9 6 C10.47947081 8.94368935 11.772241 11.94366376 13 15 C15.55992058 11.76641611 17.68354679 8.32623115 19.81640625 4.8046875 C21.16818801 2.74355491 22.28269195 1.27588771 24.625 0.375 C29.51683262 -0.39739462 33.73995303 -0.84003131 38 2 C38.26660183 4.90834885 38.34779124 7.60138268 38.29296875 10.5078125 C38.28872391 11.34843231 38.28447906 12.18905212 38.28010559 13.05514526 C38.26328532 15.74541993 38.22562781 18.43495099 38.1875 21.125 C38.17245745 22.94660378 38.1587683 24.76821928 38.14648438 26.58984375 C38.11337094 31.06018324 38.06156637 35.52996546 38 40 C31.234375 38.234375 31.234375 38.234375 29.125 36.125 C26.72539672 31.59241603 26.70909633 26.78392372 26.4375 21.75 C26.293125 19.1925 26.14875 16.635 26 14 C22.7 21.26 19.4 28.52 16 36 C14.35 36 12.7 36 11 36 C7.7 28.74 4.4 21.48 1 14 C0.79110342 18.94976818 0.79110342 18.94976818 0.61206055 23.90063477 C0.35104598 28.88404436 -0.64407505 32.57845365 -3 37 C-7.74193548 40 -7.74193548 40 -11 40 C-11.0740324 34.62486811 -11.12854569 29.25003146 -11.16479492 23.87451172 C-11.17990251 22.04503207 -11.20038968 20.21558875 -11.22631836 18.38623047 C-11.26261585 15.76000008 -11.27970615 13.13424751 -11.29296875 10.5078125 C-11.30845261 9.68693146 -11.32393646 8.86605042 -11.33988953 8.02029419 C-11.34057617 5.71533203 -11.34057617 5.71533203 -11 2 C-7.27023636 -0.48650909 -4.3145192 -0.40607239 0 0 Z " fill="#FFFFFF" transform="translate(270,10)"/>
<path d="M0 0 C1.41249023 -0.01836914 1.41249023 -0.01836914 2.85351562 -0.03710938 C8.37804747 -0.04880563 12.86636517 -0.02718218 17.3125 3.625 C20.89353102 8.10128877 19.78707543 14.65342193 19.8125 20.0625 C19.833125 21.15175781 19.85375 22.24101563 19.875 23.36328125 C19.88273437 24.94302734 19.88273437 24.94302734 19.890625 26.5546875 C19.90464355 27.99497314 19.90464355 27.99497314 19.91894531 29.46435547 C19.37293278 33.63574162 17.4940216 36.2559784 14.5625 39.1875 C9.78268505 40.80179786 4.67217324 40.41150431 -0.3125 40.4375 C-1.29347656 40.458125 -2.27445312 40.47875 -3.28515625 40.5 C-8.73365119 40.52941158 -12.79273453 40.38357656 -17.4375 37.1875 C-20.80438459 32.13717311 -19.84827901 26.24456081 -19.875 20.3125 C-19.92430664 18.39244141 -19.92430664 18.39244141 -19.97460938 16.43359375 C-20.03495982 5.93261622 -20.03495982 5.93261622 -17.16015625 2.8671875 C-11.72109692 -0.48832974 -6.21883437 0.00423915 0 0 Z M-9.4375 12.1875 C-9.53731214 14.8648138 -9.57629875 17.51054175 -9.5625 20.1875 C-9.56636719 20.93773437 -9.57023437 21.68796875 -9.57421875 22.4609375 C-9.91425541 26.12356117 -9.91425541 26.12356117 -8.4375 29.1875 C-5.57482433 29.26075168 -2.736781 29.27988205 0.125 29.25 C1.33446289 29.24323242 1.33446289 29.24323242 2.56835938 29.23632812 C4.56643756 29.22450518 6.56447783 29.20656914 8.5625 29.1875 C8.58934312 26.37493719 8.60926188 23.56262759 8.625 20.75 C8.63337891 19.94755859 8.64175781 19.14511719 8.65039062 18.31835938 C8.6590143 16.27454779 8.6147815 14.23066098 8.5625 12.1875 C6.74133997 10.36633997 4.25578236 11.0551492 1.8359375 11.05078125 C0.71058594 11.05658203 0.71058594 11.05658203 -0.4375 11.0625 C-1.18773437 11.05863281 -1.93796875 11.05476563 -2.7109375 11.05078125 C-6.37356117 10.71074459 -6.37356117 10.71074459 -9.4375 12.1875 Z " fill="#FFFFFF" transform="translate(332.4375,9.8125)"/>
<path d="M0 0 C0.93328125 -0.020625 1.8665625 -0.04125 2.828125 -0.0625 C8.14024279 -0.09259698 12.14548944 0.06025564 16.625 3.25 C19.22814649 6.86046454 20.00762642 9.38539749 20.0234375 13.8125 C20.02923828 15.37871094 20.02923828 15.37871094 20.03515625 16.9765625 C20.02355469 18.05679687 20.01195312 19.13703125 20 20.25 C20.01160156 21.33023437 20.02320313 22.41046875 20.03515625 23.5234375 C20.03128906 24.56757812 20.02742188 25.61171875 20.0234375 26.6875 C20.02005371 27.63496094 20.01666992 28.58242188 20.01318359 29.55859375 C19.41662815 33.6947115 17.5397951 36.3352049 14.625 39.25 C9.84518505 40.86429786 4.73467324 40.47400431 -0.25 40.5 C-1.23097656 40.520625 -2.21195313 40.54125 -3.22265625 40.5625 C-8.67115119 40.59191158 -12.73023453 40.44607656 -17.375 37.25 C-20.74188459 32.19967311 -19.78577901 26.30706081 -19.8125 20.375 C-19.86180664 18.45494141 -19.86180664 18.45494141 -19.91210938 16.49609375 C-19.97245982 5.99511622 -19.97245982 5.99511622 -17.09765625 2.9296875 C-11.68990814 -0.40651291 -6.18721154 0.03390253 0 0 Z M-9.375 12.25 C-9.47481214 14.9273138 -9.51379875 17.57304175 -9.5 20.25 C-9.50386719 21.00023437 -9.50773438 21.75046875 -9.51171875 22.5234375 C-9.85175541 26.18606117 -9.85175541 26.18606117 -8.375 29.25 C-5.51232433 29.32325168 -2.674281 29.34238205 0.1875 29.3125 C1.39696289 29.30573242 1.39696289 29.30573242 2.63085938 29.29882812 C4.62893756 29.28700518 6.62697783 29.26906914 8.625 29.25 C8.65184312 26.43743719 8.67176188 23.62512759 8.6875 20.8125 C8.69587891 20.01005859 8.70425781 19.20761719 8.71289062 18.38085938 C8.7215143 16.33704779 8.6772815 14.29316098 8.625 12.25 C6.80383997 10.42883997 4.31828236 11.1176492 1.8984375 11.11328125 C0.77308594 11.11908203 0.77308594 11.11908203 -0.375 11.125 C-1.12523437 11.12113281 -1.87546875 11.11726563 -2.6484375 11.11328125 C-6.31106117 10.77324459 -6.31106117 10.77324459 -9.375 12.25 Z " fill="#FFFFFF" transform="translate(186.375,9.75)"/>
<path d="M0 0 C1.1859375 -0.00257812 2.371875 -0.00515625 3.59375 -0.0078125 C4.83382812 -0.00007812 6.07390625 0.00765625 7.3515625 0.015625 C8.58390625 0.00789062 9.81625 0.00015625 11.0859375 -0.0078125 C12.27445313 -0.00523438 13.46296875 -0.00265625 14.6875 0 C16.31631104 0.00338379 16.31631104 0.00338379 17.97802734 0.00683594 C21.82422786 0.3387829 24.73163017 1.24300201 27.7265625 3.703125 C30.40913847 7.05634496 30.14074074 10.59383136 30.1640625 14.703125 C30.17824219 15.83621094 30.19242188 16.96929688 30.20703125 18.13671875 C29.98091399 21.20654804 29.82475398 22.82912032 27.9765625 25.265625 C25.3515625 26.515625 25.3515625 26.515625 22.9765625 27.265625 C23.481875 27.96429688 23.9871875 28.66296875 24.5078125 29.3828125 C25.1575 30.29289062 25.8071875 31.20296875 26.4765625 32.140625 C27.45109375 33.49800781 27.45109375 33.49800781 28.4453125 34.8828125 C29.9765625 37.265625 29.9765625 37.265625 29.9765625 39.265625 C23.81792004 40.59395965 23.81792004 40.59395965 20.4140625 39.265625 C17.19117577 36.62120512 14.37455481 33.68544221 11.9765625 30.265625 C11.9765625 29.605625 11.9765625 28.945625 11.9765625 28.265625 C8.3465625 28.265625 4.7165625 28.265625 0.9765625 28.265625 C0.8940625 29.338125 0.8115625 30.410625 0.7265625 31.515625 C-0.09115725 35.60422377 -0.69409039 36.86109653 -4.0234375 39.265625 C-5.68065178 39.64315606 -7.34749402 39.98260143 -9.0234375 40.265625 C-9.0974699 34.89049311 -9.15198319 29.51565646 -9.18823242 24.14013672 C-9.20334001 22.31065707 -9.22382718 20.48121375 -9.24975586 18.65185547 C-9.28605335 16.02562508 -9.30314365 13.39987251 -9.31640625 10.7734375 C-9.33189011 9.95255646 -9.34737396 9.13167542 -9.36332703 8.28591919 C-9.36401367 5.98095703 -9.36401367 5.98095703 -9.0234375 2.265625 C-5.53679353 -0.05880432 -4.1180777 0.00857295 0 0 Z M0.9765625 11.265625 C0.9765625 13.575625 0.9765625 15.885625 0.9765625 18.265625 C6.9165625 18.265625 12.8565625 18.265625 18.9765625 18.265625 C18.9765625 16.285625 18.9765625 14.305625 18.9765625 12.265625 C17.76227262 10.82173929 17.76227262 10.82173929 14.16015625 11.16796875 C12.57809568 11.17464411 10.99605091 11.18660625 9.4140625 11.203125 C8.60775391 11.20763672 7.80144531 11.21214844 6.97070312 11.21679688 C4.97262494 11.22861982 2.97458467 11.24655586 0.9765625 11.265625 Z " fill="#FFFFFF" transform="translate(132.0234375,9.734375)"/>
<path d="M0 0 C1.83594727 -0.02416992 1.83594727 -0.02416992 3.70898438 -0.04882812 C5.48692383 -0.04979492 5.48692383 -0.04979492 7.30078125 -0.05078125 C8.92173706 -0.05525269 8.92173706 -0.05525269 10.57543945 -0.05981445 C15.16475187 0.48923249 18.56132773 1.96299399 21.5390625 5.53125 C23.01008166 9.09371816 23.08558692 11.9646794 23.0625 15.8125 C23.07410156 17.74609375 23.07410156 17.74609375 23.0859375 19.71875 C22.66687801 23.49850229 22.04796526 25.36458864 19.6875 28.3125 C16.55410219 30.28557082 14.15261212 30.55046642 10.484375 30.5078125 C9.01484375 30.49814453 9.01484375 30.49814453 7.515625 30.48828125 C6.49984375 30.47152344 5.4840625 30.45476563 4.4375 30.4375 C3.40625 30.42847656 2.375 30.41945313 1.3125 30.41015625 C-1.22940287 30.38662011 -3.7708328 30.35374023 -6.3125 30.3125 C-6.44140625 31.09109375 -6.5703125 31.8696875 -6.703125 32.671875 C-7.47744674 36.02726922 -8.61339436 37.21319562 -11.3125 39.3125 C-12.96864657 39.69468767 -14.63565354 40.03487641 -16.3125 40.3125 C-16.3865324 34.93736811 -16.44104569 29.56253146 -16.47729492 24.18701172 C-16.49240251 22.35753207 -16.51288968 20.52808875 -16.53881836 18.69873047 C-16.57511585 16.07250008 -16.59220615 13.44674751 -16.60546875 10.8203125 C-16.62095261 9.99943146 -16.63643646 9.17855042 -16.65238953 8.33279419 C-16.65307617 6.02783203 -16.65307617 6.02783203 -16.3125 2.3125 C-11.3783552 -0.97692987 -5.7968673 -0.01511963 0 0 Z M-6.3125 11.3125 C-6.3125 14.6125 -6.3125 17.9125 -6.3125 21.3125 C-3.49993719 21.33934312 -0.68762759 21.35926188 2.125 21.375 C3.32866211 21.38756836 3.32866211 21.38756836 4.55664062 21.40039062 C6.60045221 21.4090143 8.64433902 21.3647815 10.6875 21.3125 C11.88445276 20.33339415 11.88445276 20.33339415 11.8203125 18.5 C11.81644531 17.4171875 11.81644531 17.4171875 11.8125 16.3125 C11.81507812 15.590625 11.81765625 14.86875 11.8203125 14.125 C11.88445276 12.29160585 11.88445276 12.29160585 10.6875 11.3125 C7.82482433 11.23924832 4.986781 11.22011795 2.125 11.25 C1.31869141 11.25451172 0.51238281 11.25902344 -0.31835938 11.26367188 C-2.31643756 11.27549482 -4.31447783 11.29343086 -6.3125 11.3125 Z " fill="#FFFFFF" transform="translate(95.3125,9.6875)"/>
<path d="M0 0 C2.5625 2.375 2.5625 2.375 5 5 C6.64864545 6.35555293 8.31003995 7.69631653 10 9 C10.42410156 8.45730469 10.84820312 7.91460937 11.28515625 7.35546875 C15.14647387 2.64550989 18.01481502 -0.47649837 24 -2 C27.4375 -1.1875 27.4375 -1.1875 30 0 C30 4.549954 29.13136523 5.29345291 26.08984375 8.421875 C25.02994792 9.47395833 23.97005208 10.52604167 22.91015625 11.578125 C19.43431739 15.07829654 19.43431739 15.07829654 19 20 C20.07708055 21.66681414 20.07708055 21.66681414 21.625 23.12890625 C22.16640625 23.68900391 22.7078125 24.24910156 23.265625 24.82617188 C23.83796875 25.39916016 24.4103125 25.97214844 25 26.5625 C31 32.6097973 31 32.6097973 31 36 C26.90869871 38.04565065 24.38282692 38.40250461 20 37 C15.92550625 34.12128159 12.50576845 30.52873199 9 27 C8.48050781 27.62648438 7.96101563 28.25296875 7.42578125 28.8984375 C6.72839844 29.71570313 6.03101563 30.53296875 5.3125 31.375 C4.62800781 32.18710937 3.94351562 32.99921875 3.23828125 33.8359375 C0.8629823 36.13247436 -0.84161852 37.10123228 -4 38 C-6.9939548 37.70647502 -9.30949055 37.34525472 -12 36 C-11.41503796 32.81150227 -10.5016539 31.1070041 -8.27734375 28.765625 C-7.73916016 28.19199219 -7.20097656 27.61835937 -6.64648438 27.02734375 C-6.08251953 26.44082031 -5.51855469 25.85429688 -4.9375 25.25 C-4.36966797 24.64800781 -3.80183594 24.04601562 -3.21679688 23.42578125 C-1.81768425 21.94436788 -0.40969053 20.4713512 1 19 C-0.36892937 15.90296672 -1.92117359 13.88238392 -4.375 11.5625 C-7.16145273 8.86330571 -9.65233381 6.09891937 -12 3 C-10.56 -0.72 -10.56 -0.72 -8.25 -1.875 C-5.02156092 -2.05435773 -2.94986327 -1.32442841 0 0 Z " fill="#E56F00" transform="translate(369,12)"/>
<path d="M0 0 C2.5625 2.375 2.5625 2.375 5 5 C6.64864545 6.35555293 8.31003995 7.69631653 10 9 C10.42410156 8.45730469 10.84820312 7.91460937 11.28515625 7.35546875 C15.14647387 2.64550989 18.01481502 -0.47649837 24 -2 C27.4375 -1.1875 27.4375 -1.1875 30 0 C30 4.5 30 4.5 27.375 7.234375 C26.56289062 8.09482422 26.56289062 8.09482422 25.734375 8.97265625 C24.87585938 9.85244141 24.87585938 9.85244141 24 10.75 C23.14148438 11.65298828 23.14148438 11.65298828 22.265625 12.57421875 C20.85256854 14.05792804 19.42741658 15.53010078 18 17 C19.89998167 21.74995417 23.68287636 25.06939561 27.1875 28.66601562 C31 32.68527819 31 32.68527819 31 36 C26.89423508 38.05288246 24.38670732 38.46223577 20 37 C15.99941148 34.0261785 12.50197374 30.53449981 9 27 C8.48050781 27.62648438 7.96101563 28.25296875 7.42578125 28.8984375 C6.72839844 29.71570313 6.03101563 30.53296875 5.3125 31.375 C4.62800781 32.18710937 3.94351563 32.99921875 3.23828125 33.8359375 C0.8629823 36.13247436 -0.84161852 37.10123228 -4 38 C-6.9939548 37.70647502 -9.30949055 37.34525472 -12 36 C-11.41503796 32.81150227 -10.5016539 31.1070041 -8.27734375 28.765625 C-7.73916016 28.19199219 -7.20097656 27.61835937 -6.64648438 27.02734375 C-6.08251953 26.44082031 -5.51855469 25.85429688 -4.9375 25.25 C-4.36966797 24.64800781 -3.80183594 24.04601562 -3.21679688 23.42578125 C-1.81768425 21.94436788 -0.40969053 20.4713512 1 19 C-0.45025235 15.63361113 -2.29486453 13.51960775 -4.9375 11 C-7.57608636 8.4748482 -9.87974137 5.97766729 -12 3 C-10.56 -0.72 -10.56 -0.72 -8.25 -1.875 C-5.02156092 -2.05435773 -2.94986327 -1.32442841 0 0 Z " fill="#E56F00" transform="translate(223,12)"/>
<path d="M0 0 C-1.37263363 3.05160609 -2.95956573 5.24826932 -5.2578125 7.671875 C-5.88300781 8.33574219 -6.50820313 8.99960937 -7.15234375 9.68359375 C-7.80332031 10.36550781 -8.45429687 11.04742187 -9.125 11.75 C-9.78371094 12.44738281 -10.44242188 13.14476563 -11.12109375 13.86328125 C-12.74327774 15.57950489 -14.36965379 17.29153435 -16 19 C-14.62736637 22.05160609 -13.04043427 24.24826932 -10.7421875 26.671875 C-10.11699219 27.33574219 -9.49179687 27.99960937 -8.84765625 28.68359375 C-8.19667969 29.36550781 -7.54570313 30.04742187 -6.875 30.75 C-6.21628906 31.44738281 -5.55757812 32.14476562 -4.87890625 32.86328125 C-3.25672226 34.57950489 -1.63034621 36.29153435 0 38 C-1 41 -1 41 -3.0625 42.25 C-6.89485935 43.22847473 -10.22949441 43.08725864 -14 42 C-16.36685004 40.17146938 -18.10639368 38.6194633 -20.0625 36.4375 C-20.82675293 35.62539062 -20.82675293 35.62539062 -21.60644531 34.796875 C-22.61955473 33.71365197 -23.62422947 32.62246856 -24.61962891 31.52294922 C-25.83297394 30.18427813 -27.07637152 28.87297571 -28.32421875 27.56640625 C-33 22.54918864 -33 22.54918864 -33 18 C-31.71484375 16.359375 -31.71484375 16.359375 -29.9375 14.75 C-27.26006772 12.22942739 -24.77090354 9.6658327 -22.375 6.875 C-15.12924282 -1.47302002 -15.12924282 -1.47302002 -12.125 -2.875 C-7.46337627 -3.14921316 -3.88863525 -2.5924235 0 0 Z " fill="#E56F00" transform="translate(70,10)"/>
<path d="M0 0 C5.19260896 3.49706318 8.97136012 8.2507198 13 13 C14.31014331 14.50205884 15.6225618 16.00213693 16.9375 17.5 C17.95833333 18.66666667 18.97916667 19.83333333 20 21 C18.63846931 23.99404565 17.07387579 26.24828197 14.875 28.6875 C12.87558904 30.90722028 10.89410786 33.12609122 8.97265625 35.4140625 C2.10113626 43.51216859 2.10113626 43.51216859 -3 45 C-5.99637967 45.11827815 -8.01132524 44.74716869 -11 44 C-12.234375 41.94140625 -12.234375 41.94140625 -13 40 C-12.25234375 39.19175781 -11.5046875 38.38351563 -10.734375 37.55078125 C-9.73949763 36.47143316 -8.74471077 35.39200163 -7.75 34.3125 C-7.25886719 33.78205078 -6.76773437 33.25160156 -6.26171875 32.70507812 C-3.37269261 29.56566972 -0.62459433 26.36822939 2 23 C0.58985802 18.54650074 -1.57478192 16.13232907 -4.9375 12.9375 C-7.91096239 10.09541297 -10.63848215 7.37471033 -13 4 C-12.1875 2.0625 -12.1875 2.0625 -11 0 C-7.12503365 -1.29165545 -3.88333178 -1.05976421 0 0 Z " fill="#E56F00" transform="translate(13,8)"/>
<path d="M0 0 C4.53587847 0.97616802 7.31325052 4.25272291 10.4140625 7.51953125 C11.7462288 8.85403059 13.07925669 10.18767203 14.4140625 11.51953125 C15.22810547 10.57980469 15.22810547 10.57980469 16.05859375 9.62109375 C16.77402344 8.80382813 17.48945312 7.9865625 18.2265625 7.14453125 C18.93425781 6.33242187 19.64195313 5.5203125 20.37109375 4.68359375 C22.5940065 2.32892135 24.27463368 0.65989567 27.5703125 0.25390625 C28.73046875 0.26164062 28.73046875 0.26164062 29.9140625 0.26953125 C30.6875 0.264375 31.4609375 0.25921875 32.2578125 0.25390625 C34.4140625 0.51953125 34.4140625 0.51953125 37.4140625 2.51953125 C35.81014749 6.38725774 33.1878438 9.14613525 30.3515625 12.14453125 C29.36415491 13.20402797 28.37718309 14.26393097 27.390625 15.32421875 C26.8946582 15.85499023 26.39869141 16.38576172 25.88769531 16.93261719 C23.63947709 19.35366066 21.43329482 21.81060096 19.2265625 24.26953125 C18.49050781 25.089375 17.75445312 25.90921875 16.99609375 26.75390625 C16.47402344 27.3365625 15.95195313 27.91921875 15.4140625 28.51953125 C12.02148582 27.95167507 10.67367353 27.05991042 8.5390625 24.39453125 C4.26846007 19.25103645 -0.33488759 14.44547081 -4.96240234 9.62451172 C-5.55875488 8.99432129 -6.15510742 8.36413086 -6.76953125 7.71484375 C-7.31150146 7.14781738 -7.85347168 6.58079102 -8.41186523 5.99658203 C-9.5859375 4.51953125 -9.5859375 4.51953125 -9.5859375 2.51953125 C-6.05950399 0.16857558 -4.1412745 -0.07419221 0 0 Z " fill="#FFFFFF" transform="translate(20.5859375,-0.51953125)"/>
<path d="M0 0 C3.15272163 1.38431137 5.16290591 2.96472806 7.49609375 5.484375 C8.13740234 6.17273437 8.77871094 6.86109375 9.43945312 7.5703125 C10.09880859 8.28960937 10.75816406 9.00890625 11.4375 9.75 C12.09298828 10.45382813 12.74847656 11.15765625 13.42382812 11.8828125 C15.29952006 13.90712997 17.15255908 15.94991005 19 18 C19.53512207 18.57685547 20.07024414 19.15371094 20.62158203 19.74804688 C22.03515625 21.328125 22.03515625 21.328125 24 24 C23 27 23 27 21 28 C17.94159552 28.42060572 15.05448445 28.46910058 12 28 C9.375 25.875 9.375 25.875 7 23 C5.74800278 21.87452039 4.47636803 20.77056076 3.1875 19.6875 C2.58292969 19.17574219 1.97835937 18.66398437 1.35546875 18.13671875 C0.90816406 17.76160156 0.46085937 17.38648437 0 17 C-0.45890625 17.54269531 -0.9178125 18.08539063 -1.390625 18.64453125 C-2.00421875 19.35996094 -2.6178125 20.07539062 -3.25 20.8125 C-3.85328125 21.52019531 -4.4565625 22.22789063 -5.078125 22.95703125 C-9.6116751 27.77623186 -9.6116751 27.77623186 -13.25390625 28.36328125 C-14.01574219 28.34652344 -14.77757812 28.32976563 -15.5625 28.3125 C-16.32691406 28.30863281 -17.09132813 28.30476563 -17.87890625 28.30078125 C-20 28 -20 28 -23 26 C-21.66000502 22.993182 -20.20154709 21.00237391 -17.8125 18.75 C-15.2425351 16.25984768 -12.83113126 13.71526802 -10.5 11 C-7.17841283 7.14364482 -3.64719707 3.54742572 0 0 Z " fill="#FFFFFF" transform="translate(34,32)"/>
</svg>
