<svg xmlns="http://www.w3.org/2000/svg" xmlns:xlink="http://www.w3.org/1999/xlink" version="1.1" id="Layer_1" x="0px" y="0px" viewBox="0 0 500 500" style="enable-background:new 0 0 500 500;" xml:space="preserve">
<g id="watermark_1_" style="display:none;">
	<g style="display:inline;">
		<g id="watermark" style="opacity:0.61;">
			<g>
				<g>
					<g>
						<g>
							<polygon style="fill:#FFFFFF;" points="213.765,461.172 208.204,474.017 205.268,474.017 199.726,461.172 202.938,461.172 &#13;&#10;&#9;&#9;&#9;&#9;&#9;&#9;&#9;&#9;206.846,470.347 210.81,461.172 &#9;&#9;&#9;&#9;&#9;&#9;&#9;"/>
						</g>
						<g>
							<path style="fill:#FFFFFF;" d="M223.507,469.741h-7.469c0.275,1.23,1.321,1.982,2.826,1.982c1.046,0,1.798-0.312,2.477-0.954&#13;&#10;&#9;&#9;&#9;&#9;&#9;&#9;&#9;&#9;l1.523,1.651c-0.917,1.046-2.294,1.597-4.074,1.597c-3.413,0-5.634-2.147-5.634-5.083c0-2.954,2.257-5.083,5.267-5.083&#13;&#10;&#9;&#9;&#9;&#9;&#9;&#9;&#9;&#9;c2.899,0,5.138,1.945,5.138,5.12C223.562,469.191,223.526,469.503,223.507,469.741 M216.002,468.071h4.863&#13;&#10;&#9;&#9;&#9;&#9;&#9;&#9;&#9;&#9;c-0.202-1.248-1.138-2.055-2.422-2.055C217.139,466.016,216.204,466.805,216.002,468.071"/>
						</g>
						<g>
							<path style="fill:#FFFFFF;" d="M224.735,468.934c0-2.973,2.294-5.083,5.505-5.083c2.074,0,3.707,0.899,4.423,2.514&#13;&#10;&#9;&#9;&#9;&#9;&#9;&#9;&#9;&#9;l-2.22,1.193c-0.532-0.936-1.321-1.358-2.221-1.358c-1.45,0-2.587,1.009-2.587,2.734c0,1.725,1.138,2.734,2.587,2.734&#13;&#10;&#9;&#9;&#9;&#9;&#9;&#9;&#9;&#9;c0.899,0,1.688-0.404,2.221-1.358l2.22,1.211c-0.716,1.578-2.349,2.495-4.423,2.495&#13;&#10;&#9;&#9;&#9;&#9;&#9;&#9;&#9;&#9;C227.029,474.017,224.735,471.907,224.735,468.934"/>
						</g>
						<g>
							<path style="fill:#FFFFFF;" d="M242.828,473.393c-0.587,0.422-1.45,0.624-2.331,0.624c-2.33,0-3.688-1.193-3.688-3.542&#13;&#10;&#9;&#9;&#9;&#9;&#9;&#9;&#9;&#9;v-4.055h-1.523v-2.202h1.523v-2.404h2.863v2.404h2.459v2.202h-2.459v4.019c0,0.844,0.458,1.303,1.229,1.303&#13;&#10;&#9;&#9;&#9;&#9;&#9;&#9;&#9;&#9;c0.422,0,0.844-0.128,1.156-0.367L242.828,473.393z"/>
						</g>
					</g>
					<g>
						<path style="fill:#FFFFFF;" d="M262.474,463.997v2.643c-0.238-0.018-0.422-0.037-0.642-0.037&#13;&#10;&#9;&#9;&#9;&#9;&#9;&#9;&#9;c-1.578,0-2.624,0.862-2.624,2.753v4.661h-2.863v-9.873h2.734v1.303C259.776,464.493,260.951,463.997,262.474,463.997"/>
					</g>
					<g>
						<path style="fill:#FFFFFF;" d="M263.299,472.53l1.009-2.239c1.083,0.789,2.697,1.339,4.239,1.339&#13;&#10;&#9;&#9;&#9;&#9;&#9;&#9;&#9;c1.762,0,2.477-0.587,2.477-1.376c0-2.404-7.469-0.752-7.469-5.524c0-2.184,1.762-4,5.413-4c1.615,0,3.267,0.385,4.459,1.138&#13;&#10;&#9;&#9;&#9;&#9;&#9;&#9;&#9;l-0.918,2.257c-1.193-0.679-2.422-1.009-3.56-1.009c-1.761,0-2.44,0.66-2.44,1.468c0,2.367,7.468,0.734,7.468,5.45&#13;&#10;&#9;&#9;&#9;&#9;&#9;&#9;&#9;c0,2.147-1.78,3.982-5.45,3.982C266.492,474.017,264.437,473.411,263.299,472.53"/>
					</g>
					<g>
						<path style="fill:#FFFFFF;" d="M285.428,469.741h-7.469c0.275,1.23,1.321,1.982,2.826,1.982c1.046,0,1.798-0.312,2.477-0.954&#13;&#10;&#9;&#9;&#9;&#9;&#9;&#9;&#9;l1.523,1.651c-0.918,1.046-2.294,1.597-4.074,1.597c-3.413,0-5.634-2.147-5.634-5.083c0-2.954,2.257-5.083,5.267-5.083&#13;&#10;&#9;&#9;&#9;&#9;&#9;&#9;&#9;c2.9,0,5.138,1.945,5.138,5.12C285.484,469.191,285.447,469.503,285.428,469.741 M277.923,468.071h4.863&#13;&#10;&#9;&#9;&#9;&#9;&#9;&#9;&#9;c-0.202-1.248-1.138-2.055-2.422-2.055C279.061,466.016,278.125,466.805,277.923,468.071"/>
					</g>
					<g>
						<path style="fill:#FFFFFF;" d="M297.007,469.741h-7.469c0.275,1.23,1.321,1.982,2.826,1.982c1.046,0,1.798-0.312,2.477-0.954&#13;&#10;&#9;&#9;&#9;&#9;&#9;&#9;&#9;l1.523,1.651c-0.918,1.046-2.294,1.597-4.074,1.597c-3.413,0-5.634-2.147-5.634-5.083c0-2.954,2.257-5.083,5.267-5.083&#13;&#10;&#9;&#9;&#9;&#9;&#9;&#9;&#9;c2.899,0,5.138,1.945,5.138,5.12C297.062,469.191,297.025,469.503,297.007,469.741 M289.501,468.071h4.863&#13;&#10;&#9;&#9;&#9;&#9;&#9;&#9;&#9;c-0.202-1.248-1.138-2.055-2.422-2.055C290.639,466.016,289.703,466.805,289.501,468.071"/>
					</g>
					<g>
						<polygon style="fill:#FFFFFF;" points="303.208,470.145 301.831,471.503 301.831,474.017 298.969,474.017 298.969,460.401 &#13;&#10;&#9;&#9;&#9;&#9;&#9;&#9;&#9;301.831,460.401 301.831,468.108 306.016,464.144 309.429,464.144 305.318,468.328 309.796,474.017 306.327,474.017 &#9;&#9;&#9;&#9;&#9;&#9;"/>
					</g>
					<g>
						<path style="fill:#FFFFFF;" d="M256.601,475.359L256.601,475.359l-2.86-2.86c-0.435,0.508-0.953,0.943-1.534,1.284&#13;&#10;&#9;&#9;&#9;&#9;&#9;&#9;&#9;c-0.092,0.069-0.186,0.136-0.283,0.199l3.027,3.027c0.456,0.456,1.195,0.456,1.65,0&#13;&#10;&#9;&#9;&#9;&#9;&#9;&#9;&#9;C257.057,476.554,257.057,475.815,256.601,475.359"/>
					</g>
					<g>
						<path style="fill:#FFFFFF;" d="M249.984,463.244c0.221-0.173,0.495-0.281,0.797-0.281c0.042,0,0.083,0.002,0.124,0.006&#13;&#10;&#9;&#9;&#9;&#9;&#9;&#9;&#9;c-0.214-0.156-0.478-0.249-0.764-0.249c-0.395,0-0.744,0.18-0.981,0.458c-0.051,0-0.1,0.006-0.151,0.008&#13;&#10;&#9;&#9;&#9;&#9;&#9;&#9;&#9;c0.039-0.077,0.064-0.162,0.064-0.255c0-0.234-0.143-0.434-0.346-0.519c0.087,0.126,0.138,0.279,0.138,0.445&#13;&#10;&#9;&#9;&#9;&#9;&#9;&#9;&#9;c0,0.122-0.031,0.237-0.081,0.341c-2.811,0.201-5.03,2.539-5.03,5.4c0,2.993,2.426,5.42,5.42,5.42&#13;&#10;&#9;&#9;&#9;&#9;&#9;&#9;&#9;c2.993,0,5.42-2.426,5.42-5.42C254.595,465.879,252.593,463.635,249.984,463.244 M247.983,464.656&#13;&#10;&#9;&#9;&#9;&#9;&#9;&#9;&#9;c0.435,0,0.844,0.112,1.199,0.309c0.374-0.245,0.82-0.387,1.299-0.387c0.711,0,1.348,0.312,1.784,0.806&#13;&#10;&#9;&#9;&#9;&#9;&#9;&#9;&#9;c-0.435-0.379-1.004-0.61-1.627-0.61c-0.449,0-0.87,0.12-1.234,0.329c-0.079,0.046-0.156,0.096-0.229,0.15&#13;&#10;&#9;&#9;&#9;&#9;&#9;&#9;&#9;c-0.065-0.048-0.133-0.093-0.204-0.134c-0.369-0.219-0.8-0.344-1.26-0.344c-0.3,0-0.588,0.054-0.854,0.152&#13;&#10;&#9;&#9;&#9;&#9;&#9;&#9;&#9;C247.196,464.754,247.578,464.656,247.983,464.656 M251.772,469.098c0.115,0.305,0.181,0.634,0.181,0.979&#13;&#10;&#9;&#9;&#9;&#9;&#9;&#9;&#9;c0,1.534-1.244,2.777-2.778,2.777c-1.534,0-2.777-1.243-2.777-2.777c0-0.345,0.066-0.674,0.181-0.979&#13;&#10;&#9;&#9;&#9;&#9;&#9;&#9;&#9;c-0.62-0.382-1.035-1.064-1.035-1.846c0-1.197,0.971-2.168,2.168-2.168c0.565,0,1.078,0.218,1.463,0.572&#13;&#10;&#9;&#9;&#9;&#9;&#9;&#9;&#9;c0.386-0.354,0.899-0.572,1.464-0.572c1.197,0,2.168,0.971,2.168,2.168C252.807,468.034,252.392,468.716,251.772,469.098"/>
					</g>
					<g>
						<path style="fill:#FFFFFF;" d="M251.666,467.061c0,0.497-0.404,0.901-0.901,0.901c-0.497,0-0.901-0.404-0.901-0.901&#13;&#10;&#9;&#9;&#9;&#9;&#9;&#9;&#9;s0.404-0.901,0.901-0.901c0.101,0,0.197,0.017,0.287,0.047c-0.03,0.062-0.045,0.132-0.045,0.204&#13;&#10;&#9;&#9;&#9;&#9;&#9;&#9;&#9;c0,0.273,0.221,0.494,0.494,0.494c0.05,0,0.099-0.008,0.146-0.022C251.66,466.941,251.666,467,251.666,467.061"/>
					</g>
					<g>
						<path style="fill:#FFFFFF;" d="M248.255,467.061c0,0.376-0.305,0.681-0.681,0.681c-0.376,0-0.681-0.305-0.681-0.681&#13;&#10;&#9;&#9;&#9;&#9;&#9;&#9;&#9;s0.305-0.681,0.681-0.681c0.076,0,0.149,0.013,0.217,0.035c-0.023,0.047-0.034,0.1-0.034,0.155&#13;&#10;&#9;&#9;&#9;&#9;&#9;&#9;&#9;c0,0.206,0.167,0.374,0.374,0.374c0.038,0,0.075-0.006,0.11-0.017C248.25,466.97,248.255,467.015,248.255,467.061"/>
					</g>
					<g>
						<g>
							<g>
								<rect x="242.908" y="467.83" style="fill:#FFFFFF;" width="0.616" height="0.616"/>
							</g>
							<g>
								<rect x="254.827" y="467.83" style="fill:#FFFFFF;" width="0.616" height="0.616"/>
							</g>
							<g>
								<path style="fill:#FFFFFF;" d="M255.205,468.082h-0.14c0-3.248-2.642-5.89-5.89-5.89c-3.248,0-5.89,2.642-5.89,5.89h-0.14&#13;&#10;&#9;&#9;&#9;&#9;&#9;&#9;&#9;&#9;&#9;c0-1.611,0.627-3.125,1.766-4.264c1.139-1.139,2.653-1.766,4.264-1.766c1.611,0,3.125,0.627,4.264,1.766&#13;&#10;&#9;&#9;&#9;&#9;&#9;&#9;&#9;&#9;&#9;C254.578,464.957,255.205,466.471,255.205,468.082"/>
							</g>
						</g>
						<g>
							<rect x="248.868" y="461.814" style="fill:#FFFFFF;" width="0.616" height="0.616"/>
						</g>
						<g>
							<rect x="244.95" y="462.052" style="fill:#FFFFFF;" width="8.45" height="0.14"/>
						</g>
						<g>
							<path style="fill:#FFFFFF;" d="M245.174,462.15c0,0.108-0.088,0.196-0.196,0.196c-0.108,0-0.196-0.088-0.196-0.196&#13;&#10;&#9;&#9;&#9;&#9;&#9;&#9;&#9;&#9;c0-0.108,0.088-0.196,0.196-0.196C245.086,461.954,245.174,462.042,245.174,462.15"/>
						</g>
						<g>
							<path style="fill:#FFFFFF;" d="M253.596,462.15c0,0.108-0.088,0.196-0.196,0.196c-0.108,0-0.196-0.088-0.196-0.196&#13;&#10;&#9;&#9;&#9;&#9;&#9;&#9;&#9;&#9;c0-0.108,0.088-0.196,0.196-0.196C253.509,461.954,253.596,462.042,253.596,462.15"/>
						</g>
					</g>
				</g>
				<g>
					<path style="fill:#FFFFFF;" d="M314.356,473.409c0,1.559-2.364,1.559-2.364,0C311.993,471.851,314.356,471.851,314.356,473.409&#13;&#10;&#9;&#9;&#9;&#9;&#9;&#9;z"/>
				</g>
				<g>
					<g>
						<g>
							<path style="fill:#FFFFFF;" d="M161.739,466.549l1.772,6.088l1.855-6.088h2.215l-2.823,8.14h-2.33l-0.837-2.396l-0.722-2.708&#13;&#10;&#9;&#9;&#9;&#9;&#9;&#9;&#9;&#9;l-0.722,2.708l-0.837,2.396h-2.33l-2.839-8.14h2.231l1.855,6.088l1.756-6.088H161.739z"/>
						</g>
						<g>
							<path style="fill:#FFFFFF;" d="M176.713,466.549l1.772,6.088l1.855-6.088h2.215l-2.823,8.14h-2.33l-0.837-2.396l-0.722-2.708&#13;&#10;&#9;&#9;&#9;&#9;&#9;&#9;&#9;&#9;l-0.722,2.708l-0.837,2.396h-2.33l-2.839-8.14h2.231l1.855,6.088l1.756-6.088H176.713z"/>
						</g>
						<g>
							<path style="fill:#FFFFFF;" d="M191.687,466.549l1.772,6.088l1.855-6.088h2.215l-2.823,8.14h-2.33l-0.837-2.396l-0.722-2.708&#13;&#10;&#9;&#9;&#9;&#9;&#9;&#9;&#9;&#9;l-0.722,2.708l-0.837,2.396h-2.33l-2.839-8.14h2.231l1.855,6.088l1.756-6.088H191.687z"/>
						</g>
					</g>
					<g>
						<path style="fill:#FFFFFF;" d="M200.908,473.52c0,1.559-2.364,1.559-2.364,0C198.545,471.962,200.908,471.962,200.908,473.52z&#13;&#10;&#9;&#9;&#9;&#9;&#9;&#9;&#9;"/>
					</g>
					<g>
						<path style="fill:#FFFFFF;" d="M322.71,473.409c-0.935,0.919-1.919,1.28-3.117,1.28c-2.346,0-4.3-1.411-4.3-4.282&#13;&#10;&#9;&#9;&#9;&#9;&#9;&#9;&#9;s1.953-4.284,4.3-4.284c1.149,0,2.035,0.329,2.921,1.199l-1.264,1.329c-0.476-0.428-1.066-0.64-1.623-0.64&#13;&#10;&#9;&#9;&#9;&#9;&#9;&#9;&#9;c-1.346,0-2.33,0.985-2.33,2.396c0,1.542,1.05,2.362,2.297,2.362c0.64,0,1.28-0.18,1.772-0.672L322.71,473.409z"/>
					</g>
					<g>
						<path style="fill:#FFFFFF;" d="M331.805,470.472c0,2.33-1.591,4.217-4.217,4.217c-2.626,0-4.201-1.887-4.201-4.217&#13;&#10;&#9;&#9;&#9;&#9;&#9;&#9;&#9;c0-2.314,1.609-4.217,4.185-4.217C330.149,466.255,331.805,468.158,331.805,470.472z M325.389,470.472&#13;&#10;&#9;&#9;&#9;&#9;&#9;&#9;&#9;c0,1.231,0.739,2.38,2.199,2.38c1.46,0,2.199-1.149,2.199-2.38c0-1.215-0.854-2.396-2.199-2.396&#13;&#10;&#9;&#9;&#9;&#9;&#9;&#9;&#9;C326.144,468.077,325.389,469.258,325.389,470.472z"/>
					</g>
					<g>
						<path style="fill:#FFFFFF;" d="M338.572,474.689v-4.332c0-1.068-0.559-2.035-1.658-2.035c-1.082,0-1.722,0.967-1.722,2.035&#13;&#10;&#9;&#9;&#9;&#9;&#9;&#9;&#9;v4.332h-2.003v-8.107h1.855l0.148,0.985c0.426-0.82,1.362-1.116,2.133-1.116c0.969,0,1.937,0.394,2.396,1.51&#13;&#10;&#9;&#9;&#9;&#9;&#9;&#9;&#9;c0.723-1.149,1.658-1.478,2.708-1.478c2.297,0,3.43,1.412,3.43,3.84v4.365h-2.003v-4.365c0-1.066-0.442-1.97-1.526-1.97&#13;&#10;&#9;&#9;&#9;&#9;&#9;&#9;&#9;c-1.082,0-1.756,0.935-1.756,2.003v4.332H338.572z"/>
					</g>
				</g>
			</g>
		</g>
		<g style="opacity:0.61;">
			<g>
				<g>
					<path style="fill:#FFFFFF;" d="M345.988,431.299c-0.006-1.224-0.959-2.121-2.189-2.14c-0.924-0.014-0.832,0.12-0.834-0.867&#13;&#10;&#9;&#9;&#9;&#9;&#9;&#9;c-0.003-1.097-0.007-2.194,0.003-3.292c0.003-0.379-0.112-0.691-0.362-0.976c-2.342-2.668-4.678-5.342-7.019-8.011&#13;&#10;&#9;&#9;&#9;&#9;&#9;&#9;c-0.12-0.137-0.275-0.244-0.414-0.366c-6.214,0-12.427,0-18.641,0c-0.794,0.293-1.14,0.868-1.138,1.709&#13;&#10;&#9;&#9;&#9;&#9;&#9;&#9;c0.01,3.748,0.004,7.496,0.004,11.243c0,0.556-0.003,0.589-0.55,0.551c-1.497-0.102-2.516,0.986-2.497,2.492&#13;&#10;&#9;&#9;&#9;&#9;&#9;&#9;c0.044,3.476,0.013,6.953,0.014,10.429c0.001,1.58,0.867,2.443,2.45,2.449c0.582,0.002,0.582,0.002,0.582,0.6&#13;&#10;&#9;&#9;&#9;&#9;&#9;&#9;c0,2.219-0.001,4.438,0.001,6.657c0.001,1.192,0.58,1.771,1.768,1.771c8.013,0.001,16.027,0.001,24.04,0&#13;&#10;&#9;&#9;&#9;&#9;&#9;&#9;c1.168,0,1.755-0.583,1.757-1.745c0.002-2.256,0-4.512,0.001-6.768c0-0.512,0.002-0.511,0.52-0.515&#13;&#10;&#9;&#9;&#9;&#9;&#9;&#9;c0.271-0.002,0.541,0.008,0.809-0.058c0.996-0.246,1.69-1.044,1.694-2.069C346.003,438.696,346.005,434.997,345.988,431.299z&#13;&#10;&#9;&#9;&#9;&#9;&#9;&#9; M317.537,417.162c5.337,0,10.674,0,16.01,0c0.548,0,0.554,0.007,0.554,0.561c0.001,2.243-0.001,4.486,0.001,6.73&#13;&#10;&#9;&#9;&#9;&#9;&#9;&#9;c0.001,0.811,0.249,1.059,1.06,1.059c1.91,0.001,3.821,0,5.731,0.001c0.458,0,0.479,0.021,0.481,0.483&#13;&#10;&#9;&#9;&#9;&#9;&#9;&#9;c0.003,0.887,0.002,1.775,0,2.662c-0.001,0.477-0.024,0.498-0.504,0.499c-3.895,0.001-7.79,0-11.684,0&#13;&#10;&#9;&#9;&#9;&#9;&#9;&#9;c-3.882,0-7.765,0-11.647,0c-0.55,0-0.552-0.001-0.552-0.561c-0.001-3.624-0.001-7.247,0-10.871&#13;&#10;&#9;&#9;&#9;&#9;&#9;&#9;C316.987,417.166,316.991,417.162,317.537,417.162z M340.822,451.579c-3.883,0.001-7.766,0-11.65,0c-3.871,0-7.742,0-11.613,0&#13;&#10;&#9;&#9;&#9;&#9;&#9;&#9;c-0.572,0-0.574-0.002-0.574-0.579c-0.001-1.997-0.001-3.994,0.001-5.991c0-0.464,0.023-0.486,0.478-0.487&#13;&#10;&#9;&#9;&#9;&#9;&#9;&#9;c7.803-0.001,15.607-0.001,23.41,0c0.478,0,0.499,0.02,0.499,0.503c0.002,1.997,0.001,3.994,0,5.991&#13;&#10;&#9;&#9;&#9;&#9;&#9;&#9;C341.375,451.574,341.37,451.579,340.822,451.579z"/>
				</g>
				<g>
					<g>
						<rect x="327.418" y="417.053" style="fill:#FFFFFF;" width="1.757" height="1.054"/>
					</g>
					<g>
						<rect x="325.662" y="418.107" style="fill:#FFFFFF;" width="1.757" height="1.054"/>
					</g>
					<g>
						<rect x="327.418" y="419.161" style="fill:#FFFFFF;" width="1.757" height="1.054"/>
					</g>
					<g>
						<rect x="325.662" y="420.215" style="fill:#FFFFFF;" width="1.757" height="1.054"/>
					</g>
					<g>
						<rect x="327.418" y="421.269" style="fill:#FFFFFF;" width="1.757" height="1.054"/>
					</g>
					<g>
						<rect x="325.662" y="422.323" style="fill:#FFFFFF;" width="1.757" height="1.054"/>
					</g>
					<g>
						<rect x="327.418" y="423.378" style="fill:#FFFFFF;" width="1.757" height="1.054"/>
					</g>
					<g>
						<rect x="325.662" y="424.432" style="fill:#FFFFFF;" width="1.757" height="1.054"/>
					</g>
					<g>
						<rect x="327.418" y="425.486" style="fill:#FFFFFF;" width="1.757" height="1.054"/>
					</g>
					<g>
						<rect x="325.662" y="426.54" style="fill:#FFFFFF;" width="1.757" height="1.054"/>
					</g>
					<g>
						<rect x="327.418" y="427.594" style="fill:#FFFFFF;" width="1.757" height="1.054"/>
					</g>
					<g>
						<rect x="325.662" y="428.648" style="fill:#FFFFFF;" width="1.757" height="1.054"/>
					</g>
				</g>
			</g>
			<g>
				<path style="fill:#FFFFFF;" d="M187.637,431.299c-0.006-1.224-0.959-2.121-2.189-2.14c-0.924-0.014-0.832,0.12-0.834-0.867&#13;&#10;&#9;&#9;&#9;&#9;&#9;c-0.003-1.097-0.007-2.194,0.003-3.292c0.003-0.379-0.112-0.691-0.362-0.976c-2.342-2.668-4.678-5.342-7.019-8.011&#13;&#10;&#9;&#9;&#9;&#9;&#9;c-0.12-0.137-0.275-0.244-0.414-0.366c-6.214,0-12.427,0-18.641,0c-0.794,0.293-1.14,0.868-1.138,1.709&#13;&#10;&#9;&#9;&#9;&#9;&#9;c0.01,3.748,0.004,7.496,0.004,11.243c0,0.556-0.003,0.589-0.55,0.551c-1.497-0.102-2.516,0.986-2.497,2.492&#13;&#10;&#9;&#9;&#9;&#9;&#9;c0.044,3.476,0.013,6.953,0.014,10.429c0.001,1.58,0.867,2.443,2.45,2.449c0.582,0.002,0.582,0.002,0.582,0.6&#13;&#10;&#9;&#9;&#9;&#9;&#9;c0,2.219-0.001,4.438,0.001,6.657c0.001,1.192,0.58,1.771,1.768,1.771c8.013,0.001,16.027,0.001,24.04,0&#13;&#10;&#9;&#9;&#9;&#9;&#9;c1.168,0,1.755-0.583,1.757-1.745c0.002-2.256,0-4.512,0.001-6.768c0-0.512,0.002-0.511,0.52-0.515&#13;&#10;&#9;&#9;&#9;&#9;&#9;c0.271-0.002,0.541,0.008,0.809-0.058c0.996-0.246,1.69-1.044,1.694-2.069C187.652,438.696,187.655,434.997,187.637,431.299z&#13;&#10;&#9;&#9;&#9;&#9;&#9; M159.187,417.162c5.337,0,10.674,0,16.01,0c0.548,0,0.554,0.007,0.554,0.561c0.001,2.243-0.001,4.486,0.001,6.73&#13;&#10;&#9;&#9;&#9;&#9;&#9;c0.001,0.811,0.249,1.059,1.06,1.059c1.91,0.001,3.821,0,5.731,0.001c0.458,0,0.479,0.021,0.481,0.483&#13;&#10;&#9;&#9;&#9;&#9;&#9;c0.003,0.887,0.002,1.775,0,2.662c-0.001,0.477-0.024,0.498-0.504,0.499c-3.895,0.001-7.79,0-11.684,0&#13;&#10;&#9;&#9;&#9;&#9;&#9;c-3.882,0-7.765,0-11.647,0c-0.55,0-0.552-0.001-0.552-0.561c-0.001-3.624-0.001-7.247,0-10.871&#13;&#10;&#9;&#9;&#9;&#9;&#9;C158.636,417.166,158.64,417.162,159.187,417.162z M182.472,451.579c-3.883,0.001-7.766,0-11.65,0c-3.871,0-7.742,0-11.613,0&#13;&#10;&#9;&#9;&#9;&#9;&#9;c-0.572,0-0.574-0.002-0.574-0.579c-0.001-1.997-0.001-3.994,0.001-5.991c0-0.464,0.023-0.486,0.478-0.487&#13;&#10;&#9;&#9;&#9;&#9;&#9;c7.803-0.001,15.607-0.001,23.41,0c0.478,0,0.499,0.02,0.499,0.503c0.002,1.997,0.001,3.994,0,5.991&#13;&#10;&#9;&#9;&#9;&#9;&#9;C183.024,451.574,183.019,451.579,182.472,451.579z"/>
			</g>
			<g>
				<path style="fill:#FFFFFF;" d="M159.779,440.669v-7.897h2.779c0.375,0,0.726,0.061,1.053,0.182&#13;&#10;&#9;&#9;&#9;&#9;&#9;c0.327,0.121,0.612,0.292,0.855,0.513c0.242,0.221,0.434,0.483,0.573,0.789c0.14,0.305,0.21,0.642,0.21,1.009&#13;&#10;&#9;&#9;&#9;&#9;&#9;c0,0.375-0.07,0.715-0.21,1.02c-0.14,0.305-0.331,0.568-0.573,0.789c-0.243,0.221-0.528,0.392-0.855,0.513&#13;&#10;&#9;&#9;&#9;&#9;&#9;c-0.327,0.121-0.678,0.182-1.053,0.182h-1.29v2.901H159.779z M162.58,436.356c0.39,0,0.684-0.111,0.882-0.331&#13;&#10;&#9;&#9;&#9;&#9;&#9;c0.199-0.22,0.298-0.474,0.298-0.761c0-0.14-0.024-0.276-0.072-0.408c-0.048-0.132-0.121-0.248-0.221-0.347&#13;&#10;&#9;&#9;&#9;&#9;&#9;c-0.099-0.099-0.223-0.178-0.37-0.237c-0.147-0.059-0.32-0.089-0.518-0.089h-1.312v2.173H162.58z"/>
				<path style="fill:#FFFFFF;" d="M166.308,432.771h1.731l3.177,5.294h0.088l-0.088-1.522v-3.772h1.478v7.897h-1.566l-3.353-5.592&#13;&#10;&#9;&#9;&#9;&#9;&#9;h-0.088l0.088,1.522v4.07h-1.467V432.771z"/>
				<path style="fill:#FFFFFF;" d="M177.922,436.334h3.872c0.022,0.089,0.04,0.195,0.055,0.32c0.014,0.125,0.022,0.25,0.022,0.375&#13;&#10;&#9;&#9;&#9;&#9;&#9;c0,0.507-0.077,0.985-0.231,1.434c-0.154,0.449-0.397,0.849-0.728,1.202c-0.353,0.375-0.776,0.666-1.268,0.871&#13;&#10;&#9;&#9;&#9;&#9;&#9;c-0.493,0.206-1.055,0.309-1.688,0.309c-0.574,0-1.114-0.103-1.622-0.309c-0.507-0.206-0.948-0.492-1.323-0.86&#13;&#10;&#9;&#9;&#9;&#9;&#9;c-0.375-0.367-0.673-0.803-0.894-1.307c-0.221-0.504-0.331-1.053-0.331-1.649c0-0.595,0.11-1.145,0.331-1.649&#13;&#10;&#9;&#9;&#9;&#9;&#9;c0.221-0.504,0.518-0.939,0.894-1.307c0.375-0.367,0.816-0.654,1.323-0.86c0.507-0.206,1.048-0.309,1.622-0.309&#13;&#10;&#9;&#9;&#9;&#9;&#9;c0.64,0,1.211,0.11,1.715,0.331c0.504,0.221,0.935,0.526,1.296,0.915l-1.025,1.004c-0.258-0.272-0.544-0.48-0.861-0.623&#13;&#10;&#9;&#9;&#9;&#9;&#9;c-0.316-0.143-0.695-0.215-1.136-0.215c-0.361,0-0.703,0.065-1.026,0.193c-0.324,0.129-0.607,0.311-0.85,0.546&#13;&#10;&#9;&#9;&#9;&#9;&#9;c-0.242,0.235-0.436,0.52-0.579,0.855c-0.143,0.335-0.215,0.708-0.215,1.119c0,0.412,0.072,0.785,0.215,1.12&#13;&#10;&#9;&#9;&#9;&#9;&#9;c0.143,0.335,0.338,0.62,0.584,0.855c0.246,0.235,0.531,0.418,0.855,0.546c0.323,0.129,0.669,0.193,1.037,0.193&#13;&#10;&#9;&#9;&#9;&#9;&#9;c0.419,0,0.773-0.061,1.064-0.182c0.29-0.121,0.538-0.278,0.744-0.469c0.148-0.132,0.275-0.3,0.381-0.502&#13;&#10;&#9;&#9;&#9;&#9;&#9;c0.106-0.202,0.189-0.428,0.248-0.678h-2.482V436.334z"/>
			</g>
			<g>
				<path style="fill:#FFFFFF;" d="M224.019,431.299c-0.006-1.224-0.959-2.121-2.189-2.14c-0.924-0.014-0.832,0.12-0.834-0.867&#13;&#10;&#9;&#9;&#9;&#9;&#9;c-0.003-1.097-0.007-2.194,0.003-3.292c0.003-0.379-0.112-0.691-0.362-0.976c-2.342-2.668-4.678-5.342-7.019-8.011&#13;&#10;&#9;&#9;&#9;&#9;&#9;c-0.12-0.137-0.275-0.244-0.414-0.366c-6.214,0-12.427,0-18.641,0c-0.794,0.293-1.14,0.868-1.138,1.709&#13;&#10;&#9;&#9;&#9;&#9;&#9;c0.01,3.748,0.004,7.496,0.004,11.243c0,0.556-0.003,0.589-0.55,0.551c-1.497-0.102-2.516,0.986-2.497,2.492&#13;&#10;&#9;&#9;&#9;&#9;&#9;c0.044,3.476,0.013,6.953,0.014,10.429c0.001,1.58,0.867,2.443,2.45,2.449c0.582,0.002,0.582,0.002,0.582,0.6&#13;&#10;&#9;&#9;&#9;&#9;&#9;c0,2.219-0.001,4.438,0.001,6.657c0.001,1.192,0.58,1.771,1.768,1.771c8.013,0.001,16.027,0.001,24.04,0&#13;&#10;&#9;&#9;&#9;&#9;&#9;c1.168,0,1.755-0.583,1.757-1.745c0.002-2.256,0-4.512,0.001-6.768c0-0.512,0.002-0.511,0.52-0.515&#13;&#10;&#9;&#9;&#9;&#9;&#9;c0.271-0.002,0.541,0.008,0.809-0.058c0.997-0.246,1.69-1.044,1.694-2.069C224.034,438.696,224.036,434.997,224.019,431.299z&#13;&#10;&#9;&#9;&#9;&#9;&#9; M195.568,417.162c5.337,0,10.674,0,16.01,0c0.548,0,0.554,0.007,0.554,0.561c0.001,2.243-0.001,4.486,0.001,6.73&#13;&#10;&#9;&#9;&#9;&#9;&#9;c0.001,0.811,0.249,1.059,1.06,1.059c1.91,0.001,3.821,0,5.731,0.001c0.458,0,0.479,0.021,0.481,0.483&#13;&#10;&#9;&#9;&#9;&#9;&#9;c0.003,0.887,0.002,1.775,0,2.662c-0.001,0.477-0.024,0.498-0.504,0.499c-3.895,0.001-7.79,0-11.684,0&#13;&#10;&#9;&#9;&#9;&#9;&#9;c-3.882,0-7.765,0-11.647,0c-0.55,0-0.552-0.001-0.552-0.561c-0.001-3.624-0.001-7.247,0-10.871&#13;&#10;&#9;&#9;&#9;&#9;&#9;C195.018,417.166,195.022,417.162,195.568,417.162z M218.854,451.579c-3.883,0.001-7.766,0-11.65,0c-3.871,0-7.742,0-11.613,0&#13;&#10;&#9;&#9;&#9;&#9;&#9;c-0.572,0-0.574-0.002-0.574-0.579c-0.001-1.997-0.001-3.994,0.001-5.991c0-0.464,0.023-0.486,0.478-0.487&#13;&#10;&#9;&#9;&#9;&#9;&#9;c7.803-0.001,15.607-0.001,23.41,0c0.478,0,0.499,0.02,0.499,0.503c0.002,1.997,0.001,3.994,0,5.991&#13;&#10;&#9;&#9;&#9;&#9;&#9;C219.406,451.574,219.401,451.579,218.854,451.579z"/>
			</g>
			<g>
				<path style="fill:#FFFFFF;" d="M205.111,432.771h1.699l2.967,7.897h-1.644l-0.651-1.886h-3.044l-0.651,1.886h-1.643&#13;&#10;&#9;&#9;&#9;&#9;&#9;L205.111,432.771z M206.997,437.415l-0.706-1.974l-0.287-0.96h-0.088l-0.287,0.96l-0.706,1.974H206.997z"/>
				<path style="fill:#FFFFFF;" d="M211.331,434.536c-0.125,0-0.245-0.024-0.359-0.072c-0.114-0.048-0.213-0.114-0.298-0.199&#13;&#10;&#9;&#9;&#9;&#9;&#9;c-0.084-0.084-0.151-0.182-0.198-0.292c-0.048-0.11-0.072-0.232-0.072-0.364s0.024-0.254,0.072-0.364&#13;&#10;&#9;&#9;&#9;&#9;&#9;c0.048-0.11,0.114-0.208,0.198-0.292c0.084-0.084,0.184-0.151,0.298-0.198c0.114-0.048,0.233-0.072,0.359-0.072&#13;&#10;&#9;&#9;&#9;&#9;&#9;c0.257,0,0.478,0.09,0.662,0.27c0.184,0.181,0.276,0.399,0.276,0.656s-0.092,0.476-0.276,0.656&#13;&#10;&#9;&#9;&#9;&#9;&#9;C211.809,434.446,211.589,434.536,211.331,434.536z M210.615,440.669v-5.404h1.445v5.404H210.615z"/>
			</g>
			<g>
				<path style="fill:#FFFFFF;" d="M261.044,431.299c-0.006-1.224-0.959-2.121-2.189-2.14c-0.924-0.014-0.832,0.12-0.834-0.867&#13;&#10;&#9;&#9;&#9;&#9;&#9;c-0.003-1.097-0.007-2.194,0.003-3.292c0.003-0.379-0.112-0.691-0.362-0.976c-2.342-2.668-4.678-5.342-7.019-8.011&#13;&#10;&#9;&#9;&#9;&#9;&#9;c-0.12-0.137-0.275-0.244-0.414-0.366c-6.214,0-12.427,0-18.641,0c-0.794,0.293-1.14,0.868-1.138,1.709&#13;&#10;&#9;&#9;&#9;&#9;&#9;c0.01,3.748,0.004,7.496,0.004,11.243c0,0.556-0.003,0.589-0.55,0.551c-1.497-0.102-2.516,0.986-2.497,2.492&#13;&#10;&#9;&#9;&#9;&#9;&#9;c0.044,3.476,0.013,6.953,0.014,10.429c0.001,1.58,0.867,2.443,2.45,2.449c0.582,0.002,0.582,0.002,0.582,0.6&#13;&#10;&#9;&#9;&#9;&#9;&#9;c0,2.219-0.001,4.438,0.001,6.657c0.001,1.192,0.58,1.771,1.768,1.771c8.013,0.001,16.027,0.001,24.04,0&#13;&#10;&#9;&#9;&#9;&#9;&#9;c1.168,0,1.755-0.583,1.757-1.745c0.002-2.256,0-4.512,0.001-6.768c0-0.512,0.002-0.511,0.52-0.515&#13;&#10;&#9;&#9;&#9;&#9;&#9;c0.271-0.002,0.541,0.008,0.809-0.058c0.996-0.246,1.69-1.044,1.694-2.069C261.059,438.696,261.061,434.997,261.044,431.299z&#13;&#10;&#9;&#9;&#9;&#9;&#9; M232.593,417.162c5.337,0,10.674,0,16.01,0c0.548,0,0.554,0.007,0.554,0.561c0.001,2.243-0.001,4.486,0.001,6.73&#13;&#10;&#9;&#9;&#9;&#9;&#9;c0.001,0.811,0.249,1.059,1.06,1.059c1.91,0.001,3.821,0,5.731,0.001c0.458,0,0.479,0.021,0.481,0.483&#13;&#10;&#9;&#9;&#9;&#9;&#9;c0.003,0.887,0.002,1.775,0,2.662c-0.001,0.477-0.024,0.498-0.504,0.499c-3.895,0.001-7.79,0-11.684,0&#13;&#10;&#9;&#9;&#9;&#9;&#9;c-3.882,0-7.765,0-11.647,0c-0.55,0-0.552-0.001-0.552-0.561c-0.001-3.624-0.001-7.247,0-10.871&#13;&#10;&#9;&#9;&#9;&#9;&#9;C232.042,417.166,232.047,417.162,232.593,417.162z M255.878,451.579c-3.883,0.001-7.766,0-11.65,0c-3.871,0-7.742,0-11.613,0&#13;&#10;&#9;&#9;&#9;&#9;&#9;c-0.572,0-0.574-0.002-0.574-0.579c-0.001-1.997-0.001-3.994,0.001-5.991c0-0.464,0.023-0.486,0.478-0.487&#13;&#10;&#9;&#9;&#9;&#9;&#9;c7.803-0.001,15.607-0.001,23.41,0c0.478,0,0.499,0.02,0.499,0.503c0.002,1.997,0.001,3.994,0,5.991&#13;&#10;&#9;&#9;&#9;&#9;&#9;C256.431,451.574,256.426,451.579,255.878,451.579z"/>
			</g>
			<g>
				<path style="fill:#FFFFFF;" d="M236.361,440.845c-0.338,0-0.662-0.048-0.971-0.143c-0.309-0.095-0.592-0.239-0.849-0.43&#13;&#10;&#9;&#9;&#9;&#9;&#9;c-0.257-0.191-0.481-0.425-0.673-0.7c-0.191-0.276-0.342-0.597-0.452-0.965l1.401-0.551c0.103,0.397,0.283,0.726,0.54,0.987&#13;&#10;&#9;&#9;&#9;&#9;&#9;c0.257,0.261,0.596,0.392,1.015,0.392c0.154,0,0.303-0.02,0.447-0.061c0.143-0.04,0.272-0.099,0.386-0.176&#13;&#10;&#9;&#9;&#9;&#9;&#9;s0.204-0.175,0.27-0.292c0.066-0.118,0.099-0.254,0.099-0.408c0-0.147-0.026-0.279-0.077-0.397&#13;&#10;&#9;&#9;&#9;&#9;&#9;c-0.051-0.117-0.138-0.227-0.259-0.331c-0.121-0.103-0.28-0.202-0.475-0.298c-0.195-0.095-0.435-0.195-0.722-0.298l-0.485-0.176&#13;&#10;&#9;&#9;&#9;&#9;&#9;c-0.213-0.073-0.429-0.173-0.645-0.298c-0.217-0.125-0.413-0.276-0.59-0.452c-0.177-0.176-0.322-0.384-0.436-0.623&#13;&#10;&#9;&#9;&#9;&#9;&#9;c-0.114-0.239-0.171-0.509-0.171-0.81c0-0.309,0.06-0.597,0.182-0.866c0.121-0.268,0.294-0.503,0.518-0.706&#13;&#10;&#9;&#9;&#9;&#9;&#9;c0.224-0.202,0.492-0.36,0.805-0.474s0.66-0.171,1.042-0.171c0.397,0,0.74,0.053,1.031,0.16&#13;&#10;&#9;&#9;&#9;&#9;&#9;c0.291,0.107,0.537,0.243,0.739,0.408c0.202,0.165,0.366,0.348,0.491,0.546c0.125,0.199,0.217,0.386,0.276,0.563l-1.312,0.551&#13;&#10;&#9;&#9;&#9;&#9;&#9;c-0.074-0.221-0.208-0.419-0.402-0.596c-0.195-0.176-0.462-0.265-0.8-0.265c-0.324,0-0.592,0.075-0.805,0.226&#13;&#10;&#9;&#9;&#9;&#9;&#9;c-0.213,0.151-0.32,0.348-0.32,0.59c0,0.235,0.103,0.436,0.309,0.601c0.206,0.165,0.533,0.325,0.982,0.48l0.497,0.165&#13;&#10;&#9;&#9;&#9;&#9;&#9;c0.316,0.111,0.605,0.237,0.866,0.381c0.261,0.143,0.485,0.314,0.673,0.513c0.187,0.199,0.331,0.425,0.43,0.678&#13;&#10;&#9;&#9;&#9;&#9;&#9;c0.1,0.254,0.149,0.546,0.149,0.877c0,0.412-0.083,0.767-0.248,1.064c-0.165,0.298-0.377,0.542-0.634,0.734&#13;&#10;&#9;&#9;&#9;&#9;&#9;c-0.258,0.191-0.548,0.335-0.872,0.43C236.986,440.797,236.67,440.845,236.361,440.845z"/>
				<path style="fill:#FFFFFF;" d="M239.516,432.771h1.61l1.633,4.754l0.287,1.015h0.088l0.309-1.015l1.699-4.754h1.61l-2.879,7.897&#13;&#10;&#9;&#9;&#9;&#9;&#9;h-1.566L239.516,432.771z"/>
				<path style="fill:#FFFFFF;" d="M251.097,436.334h3.871c0.022,0.089,0.04,0.195,0.055,0.32c0.015,0.125,0.023,0.25,0.023,0.375&#13;&#10;&#9;&#9;&#9;&#9;&#9;c0,0.507-0.078,0.985-0.232,1.434c-0.154,0.449-0.397,0.849-0.728,1.202c-0.353,0.375-0.775,0.666-1.268,0.871&#13;&#10;&#9;&#9;&#9;&#9;&#9;c-0.493,0.206-1.055,0.309-1.688,0.309c-0.574,0-1.114-0.103-1.621-0.309c-0.507-0.206-0.949-0.492-1.324-0.86&#13;&#10;&#9;&#9;&#9;&#9;&#9;c-0.375-0.367-0.673-0.803-0.894-1.307c-0.22-0.504-0.331-1.053-0.331-1.649c0-0.595,0.11-1.145,0.331-1.649&#13;&#10;&#9;&#9;&#9;&#9;&#9;c0.221-0.504,0.518-0.939,0.894-1.307c0.375-0.367,0.816-0.654,1.324-0.86c0.507-0.206,1.047-0.309,1.621-0.309&#13;&#10;&#9;&#9;&#9;&#9;&#9;c0.64,0,1.211,0.11,1.715,0.331c0.504,0.221,0.936,0.526,1.296,0.915l-1.026,1.004c-0.257-0.272-0.544-0.48-0.861-0.623&#13;&#10;&#9;&#9;&#9;&#9;&#9;c-0.316-0.143-0.694-0.215-1.136-0.215c-0.36,0-0.702,0.065-1.026,0.193c-0.323,0.129-0.607,0.311-0.849,0.546&#13;&#10;&#9;&#9;&#9;&#9;&#9;c-0.243,0.235-0.436,0.52-0.579,0.855c-0.143,0.335-0.215,0.708-0.215,1.119c0,0.412,0.072,0.785,0.215,1.12&#13;&#10;&#9;&#9;&#9;&#9;&#9;c0.143,0.335,0.338,0.62,0.585,0.855c0.246,0.235,0.531,0.418,0.854,0.546c0.324,0.129,0.669,0.193,1.037,0.193&#13;&#10;&#9;&#9;&#9;&#9;&#9;c0.419,0,0.774-0.061,1.064-0.182c0.29-0.121,0.539-0.278,0.745-0.469c0.147-0.132,0.274-0.3,0.38-0.502&#13;&#10;&#9;&#9;&#9;&#9;&#9;c0.107-0.202,0.189-0.428,0.248-0.678h-2.482V436.334z"/>
			</g>
			<g>
				<path style="fill:#FFFFFF;" d="M297.3,431.299c-0.006-1.224-0.959-2.121-2.189-2.14c-0.924-0.014-0.832,0.12-0.834-0.867&#13;&#10;&#9;&#9;&#9;&#9;&#9;c-0.003-1.097-0.007-2.194,0.003-3.292c0.003-0.379-0.112-0.691-0.362-0.976c-2.342-2.668-4.678-5.342-7.019-8.011&#13;&#10;&#9;&#9;&#9;&#9;&#9;c-0.12-0.137-0.275-0.244-0.414-0.366c-6.214,0-12.427,0-18.641,0c-0.794,0.293-1.14,0.868-1.138,1.709&#13;&#10;&#9;&#9;&#9;&#9;&#9;c0.01,3.748,0.004,7.496,0.004,11.243c0,0.556-0.003,0.589-0.55,0.551c-1.497-0.102-2.516,0.986-2.497,2.492&#13;&#10;&#9;&#9;&#9;&#9;&#9;c0.044,3.476,0.013,6.953,0.014,10.429c0.001,1.58,0.867,2.443,2.45,2.449c0.582,0.002,0.582,0.002,0.582,0.6&#13;&#10;&#9;&#9;&#9;&#9;&#9;c0,2.219-0.001,4.438,0.001,6.657c0.001,1.192,0.58,1.771,1.768,1.771c8.013,0.001,16.027,0.001,24.04,0&#13;&#10;&#9;&#9;&#9;&#9;&#9;c1.168,0,1.755-0.583,1.757-1.745c0.002-2.256,0-4.512,0.001-6.768c0-0.512,0.002-0.511,0.52-0.515&#13;&#10;&#9;&#9;&#9;&#9;&#9;c0.271-0.002,0.541,0.008,0.809-0.058c0.996-0.246,1.69-1.044,1.694-2.069C297.315,438.696,297.318,434.997,297.3,431.299z&#13;&#10;&#9;&#9;&#9;&#9;&#9; M268.85,417.162c5.337,0,10.674,0,16.01,0c0.548,0,0.554,0.007,0.554,0.561c0.001,2.243-0.001,4.486,0.001,6.73&#13;&#10;&#9;&#9;&#9;&#9;&#9;c0.001,0.811,0.249,1.059,1.06,1.059c1.91,0.001,3.821,0,5.731,0.001c0.458,0,0.479,0.021,0.481,0.483&#13;&#10;&#9;&#9;&#9;&#9;&#9;c0.003,0.887,0.002,1.775,0,2.662c-0.001,0.477-0.024,0.498-0.504,0.499c-3.895,0.001-7.79,0-11.684,0&#13;&#10;&#9;&#9;&#9;&#9;&#9;c-3.882,0-7.765,0-11.647,0c-0.55,0-0.552-0.001-0.552-0.561c-0.001-3.624-0.001-7.247,0-10.871&#13;&#10;&#9;&#9;&#9;&#9;&#9;C268.299,417.166,268.303,417.162,268.85,417.162z M292.135,451.579c-3.883,0.001-7.766,0-11.65,0c-3.871,0-7.742,0-11.613,0&#13;&#10;&#9;&#9;&#9;&#9;&#9;c-0.572,0-0.574-0.002-0.574-0.579c-0.001-1.997-0.001-3.994,0.001-5.991c0-0.464,0.023-0.486,0.478-0.487&#13;&#10;&#9;&#9;&#9;&#9;&#9;c7.803-0.001,15.607-0.001,23.41,0c0.478,0,0.499,0.02,0.499,0.503c0.001,1.997,0.001,3.994,0,5.991&#13;&#10;&#9;&#9;&#9;&#9;&#9;C292.687,451.574,292.682,451.579,292.135,451.579z"/>
			</g>
			<g>
				<path style="fill:#FFFFFF;" d="M272.966,434.183v1.831h3.165v1.412h-3.165v1.831h3.518v1.412h-5.007v-7.897h5.007v1.412H272.966&#13;&#10;&#9;&#9;&#9;&#9;&#9;z"/>
				<path style="fill:#FFFFFF;" d="M277.852,440.669v-7.897h2.779c0.375,0,0.726,0.061,1.053,0.182&#13;&#10;&#9;&#9;&#9;&#9;&#9;c0.327,0.121,0.612,0.292,0.855,0.513c0.243,0.221,0.434,0.483,0.574,0.789c0.14,0.305,0.209,0.642,0.209,1.009&#13;&#10;&#9;&#9;&#9;&#9;&#9;c0,0.375-0.07,0.715-0.209,1.02c-0.14,0.305-0.331,0.568-0.574,0.789c-0.243,0.221-0.528,0.392-0.855,0.513&#13;&#10;&#9;&#9;&#9;&#9;&#9;c-0.327,0.121-0.678,0.182-1.053,0.182h-1.29v2.901H277.852z M280.653,436.356c0.389,0,0.684-0.111,0.882-0.331&#13;&#10;&#9;&#9;&#9;&#9;&#9;c0.199-0.22,0.298-0.474,0.298-0.761c0-0.14-0.024-0.276-0.072-0.408c-0.048-0.132-0.121-0.248-0.221-0.347&#13;&#10;&#9;&#9;&#9;&#9;&#9;c-0.099-0.099-0.222-0.178-0.37-0.237c-0.147-0.059-0.32-0.089-0.518-0.089h-1.312v2.173H280.653z"/>
				<path style="fill:#FFFFFF;" d="M286.797,440.845c-0.338,0-0.662-0.048-0.971-0.143c-0.309-0.095-0.592-0.239-0.849-0.43&#13;&#10;&#9;&#9;&#9;&#9;&#9;c-0.257-0.191-0.482-0.425-0.673-0.7c-0.191-0.276-0.342-0.597-0.452-0.965l1.401-0.551c0.103,0.397,0.283,0.726,0.541,0.987&#13;&#10;&#9;&#9;&#9;&#9;&#9;c0.257,0.261,0.595,0.392,1.015,0.392c0.154,0,0.303-0.02,0.447-0.061c0.143-0.04,0.272-0.099,0.386-0.176&#13;&#10;&#9;&#9;&#9;&#9;&#9;c0.114-0.077,0.204-0.175,0.27-0.292c0.066-0.118,0.1-0.254,0.1-0.408c0-0.147-0.026-0.279-0.077-0.397&#13;&#10;&#9;&#9;&#9;&#9;&#9;c-0.051-0.117-0.138-0.227-0.259-0.331c-0.121-0.103-0.279-0.202-0.474-0.298c-0.195-0.095-0.436-0.195-0.723-0.298&#13;&#10;&#9;&#9;&#9;&#9;&#9;l-0.485-0.176c-0.213-0.073-0.428-0.173-0.645-0.298c-0.217-0.125-0.414-0.276-0.59-0.452c-0.176-0.176-0.322-0.384-0.436-0.623&#13;&#10;&#9;&#9;&#9;&#9;&#9;c-0.114-0.239-0.171-0.509-0.171-0.81c0-0.309,0.061-0.597,0.182-0.866c0.121-0.268,0.294-0.503,0.518-0.706&#13;&#10;&#9;&#9;&#9;&#9;&#9;c0.224-0.202,0.493-0.36,0.805-0.474c0.312-0.114,0.66-0.171,1.042-0.171c0.397,0,0.741,0.053,1.031,0.16&#13;&#10;&#9;&#9;&#9;&#9;&#9;c0.29,0.107,0.537,0.243,0.739,0.408c0.202,0.165,0.365,0.348,0.491,0.546c0.125,0.199,0.217,0.386,0.276,0.563l-1.312,0.551&#13;&#10;&#9;&#9;&#9;&#9;&#9;c-0.074-0.221-0.208-0.419-0.403-0.596c-0.195-0.176-0.462-0.265-0.799-0.265c-0.324,0-0.592,0.075-0.805,0.226&#13;&#10;&#9;&#9;&#9;&#9;&#9;c-0.213,0.151-0.32,0.348-0.32,0.59c0,0.235,0.103,0.436,0.309,0.601c0.206,0.165,0.533,0.325,0.982,0.48l0.496,0.165&#13;&#10;&#9;&#9;&#9;&#9;&#9;c0.316,0.111,0.605,0.237,0.866,0.381c0.261,0.143,0.485,0.314,0.673,0.513c0.187,0.199,0.331,0.425,0.43,0.678&#13;&#10;&#9;&#9;&#9;&#9;&#9;c0.099,0.254,0.149,0.546,0.149,0.877c0,0.412-0.083,0.767-0.248,1.064c-0.165,0.298-0.377,0.542-0.634,0.734&#13;&#10;&#9;&#9;&#9;&#9;&#9;c-0.258,0.191-0.548,0.335-0.872,0.43C287.422,440.797,287.105,440.845,286.797,440.845z"/>
			</g>
			<g>
				<path style="fill:#FFFFFF;" d="M321.394,439.168l4.004-4.985h-3.827v-1.412h5.559v1.5l-3.96,4.985h4.004v1.412h-5.779V439.168z"/>
				<path style="fill:#FFFFFF;" d="M328.409,432.771h1.489v7.897h-1.489V432.771z"/>
				<path style="fill:#FFFFFF;" d="M331.486,440.669v-7.897h2.779c0.375,0,0.726,0.061,1.053,0.182&#13;&#10;&#9;&#9;&#9;&#9;&#9;c0.327,0.121,0.612,0.292,0.855,0.513s0.434,0.483,0.574,0.789c0.14,0.305,0.209,0.642,0.209,1.009&#13;&#10;&#9;&#9;&#9;&#9;&#9;c0,0.375-0.07,0.715-0.209,1.02c-0.14,0.305-0.331,0.568-0.574,0.789c-0.243,0.221-0.528,0.392-0.855,0.513&#13;&#10;&#9;&#9;&#9;&#9;&#9;c-0.327,0.121-0.678,0.182-1.053,0.182h-1.29v2.901H331.486z M334.288,436.356c0.389,0,0.684-0.111,0.882-0.331&#13;&#10;&#9;&#9;&#9;&#9;&#9;c0.199-0.22,0.298-0.474,0.298-0.761c0-0.14-0.024-0.276-0.072-0.408c-0.048-0.132-0.121-0.248-0.221-0.347&#13;&#10;&#9;&#9;&#9;&#9;&#9;c-0.099-0.099-0.222-0.178-0.37-0.237c-0.147-0.059-0.32-0.089-0.518-0.089h-1.312v2.173H334.288z"/>
			</g>
		</g>
		<g style="opacity:0.61;">
			<path style="fill:#FFFFFF;" d="M300.133,433.27h9.067v2.242h-9.067V433.27z M300.133,437.136h9.067v2.243h-9.067V437.136z"/>
		</g>
	</g>
	<g style="display:inline;opacity:0.61;">
		<path style="fill:#FFFFFF;" d="M156.756,478.878h1.607c1.263,0,2.114,0.812,2.114,1.974c0,1.161-0.851,1.973-2.114,1.973h-1.607&#13;&#10;&#9;&#9;&#9;V478.878z M158.34,482.464c1.049,0,1.725-0.665,1.725-1.612c0-0.947-0.677-1.613-1.725-1.613h-1.167v3.225H158.34z"/>
		<path style="fill:#FFFFFF;" d="M165.139,480.851c0-1.15,0.879-2.007,2.075-2.007c1.184,0,2.069,0.851,2.069,2.007&#13;&#10;&#9;&#9;&#9;c0,1.156-0.885,2.007-2.069,2.007C166.019,482.858,165.139,482.002,165.139,480.851z M168.866,480.851&#13;&#10;&#9;&#9;&#9;c0-0.942-0.705-1.635-1.652-1.635c-0.953,0-1.663,0.693-1.663,1.635c0,0.941,0.71,1.635,1.663,1.635&#13;&#10;&#9;&#9;&#9;C168.162,482.486,168.866,481.793,168.866,480.851z"/>
		<path style="fill:#FFFFFF;" d="M179.596,478.878l-1.331,3.947h-0.44l-1.156-3.366l-1.161,3.366h-0.434l-1.331-3.947h0.429&#13;&#10;&#9;&#9;&#9;l1.139,3.394l1.178-3.394h0.389l1.161,3.411l1.156-3.411H179.596z"/>
		<path style="fill:#FFFFFF;" d="M187.731,478.878v3.947h-0.344l-2.537-3.202v3.202h-0.417v-3.947h0.344l2.543,3.203v-3.203H187.731&#13;&#10;&#9;&#9;&#9;z"/>
		<path style="fill:#FFFFFF;" d="M193.093,478.878h0.417v3.586h2.21v0.361h-2.627V478.878z"/>
		<path style="fill:#FFFFFF;" d="M200.061,480.851c0-1.15,0.879-2.007,2.075-2.007c1.184,0,2.069,0.851,2.069,2.007&#13;&#10;&#9;&#9;&#9;c0,1.156-0.885,2.007-2.069,2.007C200.941,482.858,200.061,482.002,200.061,480.851z M203.788,480.851&#13;&#10;&#9;&#9;&#9;c0-0.942-0.705-1.635-1.652-1.635c-0.953,0-1.663,0.693-1.663,1.635c0,0.941,0.71,1.635,1.663,1.635&#13;&#10;&#9;&#9;&#9;C203.083,482.486,203.788,481.793,203.788,480.851z"/>
		<path style="fill:#FFFFFF;" d="M211.636,481.77h-2.199l-0.474,1.054h-0.434l1.804-3.947h0.412l1.804,3.947h-0.44L211.636,481.77z&#13;&#10;&#9;&#9;&#9; M211.484,481.432l-0.947-2.12l-0.947,2.12H211.484z"/>
		<path style="fill:#FFFFFF;" d="M217.28,478.878h1.607c1.263,0,2.114,0.812,2.114,1.974c0,1.161-0.851,1.973-2.114,1.973h-1.607&#13;&#10;&#9;&#9;&#9;V478.878z M218.864,482.464c1.049,0,1.725-0.665,1.725-1.612c0-0.947-0.677-1.613-1.725-1.613h-1.167v3.225H218.864z"/>
		<path style="fill:#FFFFFF;" d="M234.041,481.77h-2.199l-0.474,1.054h-0.434l1.804-3.947h0.412l1.804,3.947h-0.44L234.041,481.77z&#13;&#10;&#9;&#9;&#9; M233.889,481.432l-0.947-2.12l-0.947,2.12H233.889z"/>
		<path style="fill:#FFFFFF;" d="M239.685,478.878h0.417v3.586h2.21v0.361h-2.627V478.878z"/>
		<path style="fill:#FFFFFF;" d="M247.082,478.878h0.417v3.586h2.21v0.361h-2.627V478.878z"/>
		<path style="fill:#FFFFFF;" d="M260.449,479.239v1.551h2.041v0.361h-2.041v1.675h-0.417v-3.947h2.706v0.361H260.449z"/>
		<path style="fill:#FFFFFF;" d="M267.678,478.878h0.417v3.947h-0.417V478.878z"/>
		<path style="fill:#FFFFFF;" d="M273.456,478.878h0.417v3.586h2.21v0.361h-2.627V478.878z"/>
		<path style="fill:#FFFFFF;" d="M283.644,482.464v0.361h-2.791v-3.947h2.706v0.361h-2.289v1.404h2.041v0.355h-2.041v1.466H283.644z&#13;&#10;&#9;&#9;&#9;"/>
		<path style="fill:#FFFFFF;" d="M294.672,479.239v1.551h2.041v0.361h-2.041v1.675h-0.417v-3.947h2.706v0.361H294.672z"/>
		<path style="fill:#FFFFFF;" d="M301.5,480.851c0-1.15,0.879-2.007,2.075-2.007c1.184,0,2.069,0.851,2.069,2.007&#13;&#10;&#9;&#9;&#9;c0,1.156-0.885,2.007-2.069,2.007C302.379,482.858,301.5,482.002,301.5,480.851z M305.226,480.851&#13;&#10;&#9;&#9;&#9;c0-0.942-0.705-1.635-1.652-1.635c-0.953,0-1.663,0.693-1.663,1.635c0,0.941,0.71,1.635,1.663,1.635&#13;&#10;&#9;&#9;&#9;C304.522,482.486,305.226,481.793,305.226,480.851z"/>
		<path style="fill:#FFFFFF;" d="M313.351,482.825l-0.902-1.269c-0.102,0.011-0.203,0.017-0.316,0.017h-1.06v1.252h-0.417v-3.947&#13;&#10;&#9;&#9;&#9;h1.477c1.004,0,1.613,0.507,1.613,1.353c0,0.62-0.327,1.054-0.902,1.24l0.964,1.353H313.351z M313.328,480.231&#13;&#10;&#9;&#9;&#9;c0-0.632-0.417-0.992-1.207-0.992h-1.048v1.979h1.048C312.911,481.218,313.328,480.851,313.328,480.231z"/>
		<path style="fill:#FFFFFF;" d="M322.907,478.878v3.947h-0.4v-3.158l-1.551,2.656h-0.197l-1.551-2.639v3.14h-0.4v-3.947h0.344&#13;&#10;&#9;&#9;&#9;l1.714,2.926l1.697-2.926H322.907z"/>
		<path style="fill:#FFFFFF;" d="M330.744,481.77h-2.199l-0.473,1.054h-0.434l1.804-3.947h0.411l1.804,3.947h-0.44L330.744,481.77z&#13;&#10;&#9;&#9;&#9; M330.592,481.432l-0.947-2.12l-0.947,2.12H330.592z"/>
		<path style="fill:#FFFFFF;" d="M336.957,479.239h-1.387v-0.361h3.192v0.361h-1.387v3.586h-0.417V479.239z"/>
		<path style="fill:#FFFFFF;" d="M343.063,482.346l0.164-0.321c0.282,0.276,0.784,0.479,1.302,0.479c0.739,0,1.06-0.31,1.06-0.699&#13;&#10;&#9;&#9;&#9;c0-1.083-2.43-0.417-2.43-1.877c0-0.581,0.451-1.083,1.455-1.083c0.446,0,0.908,0.13,1.224,0.35l-0.141,0.333&#13;&#10;&#9;&#9;&#9;c-0.338-0.22-0.733-0.327-1.083-0.327c-0.722,0-1.043,0.321-1.043,0.716c0,1.083,2.43,0.429,2.43,1.866&#13;&#10;&#9;&#9;&#9;c0,0.581-0.462,1.077-1.472,1.077C343.937,482.858,343.356,482.65,343.063,482.346z"/>
	</g>
</g>
<g>
</g>
<g>
	<path style="fill:#2964E9;" d="M318.236,241.207c-0.205-0.286-0.156-0.755-0.232-1.132c-2.426-2.916-5.654-4.393-9.32-4.652&#13;&#10;&#9;&#9;c-3.568-0.259-7.169-0.07-10.759-0.146c-1.353-0.027-1.903,0.469-1.897,1.854c0.043,9.034,0.048,18.068,0.022,27.102&#13;&#10;&#9;&#9;c-0.005,1.256,0.372,1.827,1.693,1.8c3.649-0.075,7.315,0.086,10.953-0.167c2.9-0.205,5.687-1.056,7.762-3.358&#13;&#10;&#9;&#9;c1.833-2.366,3.687-4.706,4.059-7.848C321.077,249.945,321.265,245.315,318.236,241.207z M315.088,256.575&#13;&#10;&#9;&#9;c-1.601,3.676-4.937,4.835-8.608,4.932c-5.719,0.156-5.239,0.577-5.223-4.76c0.011-4.975-0.011-9.951,0.016-14.926&#13;&#10;&#9;&#9;c0-0.782-0.323-1.897,1.164-1.736l4.366,0.016c4.657-0.663,8.026,2.409,9.158,7.148&#13;&#10;&#9;&#9;C316.716,250.408,316.376,253.616,315.088,256.575z"/>
	<path style="fill:#fafafa;" d="M175.835,262.493c-1.159,1.736-2.986,2.932-4.819,3.283c-3.886,0.738-7.961,1.218-11.713-0.641&#13;&#10;&#9;&#9;c-2.56-1.272-4.409-3.326-4.943-6.296c-0.226-1.261,0.022-1.951,1.585-1.978c2.032-0.032,3.752,0.027,4.533,2.415&#13;&#10;&#9;&#9;c0.221,0.674,1.207,1.337,1.973,1.558c2.539,0.733,5.132,1.191,7.563-0.42c2.587-1.709,2.625-4.086,0.092-5.865&#13;&#10;&#9;&#9;c-0.216-0.156-0.426-0.313-0.636-0.464c-0.14-0.129-0.259-0.329-0.42-0.383c-2.787-0.949-5.622-1.768-8.36-2.835&#13;&#10;&#9;&#9;c-2.668-1.046-4.727-2.701-5.234-5.87c-0.28-1.746,0.469-3.245,0.534-4.884c4.307-5.056,10.004-6.328,15.961-3.698&#13;&#10;&#9;&#9;c1.552,0.69,2.409,2.183,3.892,2.895c0.081,1.013,1.121,1.655,1.067,2.717c-0.027,0.458,0.102,1.008-0.108,1.358&#13;&#10;&#9;&#9;c-0.491,0.819-4.722,0.307-5.229-0.582c-1.585-2.792-6.258-4.059-8.959-2.383c-1.337,0.83-2.07,2.027-1.897,3.682&#13;&#10;&#9;&#9;c0.21,2.021,1.887,2.625,3.364,3.186c2.145,0.809,4.42,1.261,6.603,1.973C176.859,251.271,179.597,256.844,175.835,262.493z"/>
	<path style="fill:#fafafa;" d="M240.815,245.218c-3.374-3.196-7.875-3.099-11.109,0.237c-0.356,0.367-0.62,1.051-1.202,0.9&#13;&#10;&#9;&#9;c-0.782-0.205-0.458-1.013-0.464-1.531c-0.043-2.587,0.043-5.169-0.011-7.751c-0.043-2.447-1.973-1.304-3.137-1.504&#13;&#10;&#9;&#9;c-1.116-0.189-1.86,0.113-1.849,1.574c0.059,9.104,0.038,18.208,0.032,27.318c0,0.544,0.059,1.056,0.334,1.531&#13;&#10;&#9;&#9;c4.56,0.135,4.56,0.135,4.824-2.895c0.005-0.086,0.135-0.162,0.296-0.345c2.329,3.671,5.892,3.709,9.616,3.256&#13;&#10;&#9;&#9;c0.243-0.841,1.116-0.868,1.687-1.283c2.436-1.784,3.752-4.221,4.156-7.164C244.61,253.028,244.459,248.667,240.815,245.218z&#13;&#10;&#9;&#9; M237.36,259.911c-1.105,1.401-2.55,2.264-4.285,1.914c-2.086-0.426-3.736-1.45-4.258-3.87c-0.523-2.383-0.668-4.679,0.054-7.024&#13;&#10;&#9;&#9;c0.76-2.453,2.474-3.757,5.223-3.676c1.951-0.275,3.099,1.272,3.903,2.814C239.327,252.635,239.473,257.232,237.36,259.911z"/>
	<path style="fill:#2A66E8;" d="M389.356,254.543c0,3.255-0.05,6.51,0.024,9.764c0.03,1.324-0.457,1.819-1.738,1.702&#13;&#10;&#9;&#9;c-0.659-0.06-1.329-0.041-1.991-0.004c-1.09,0.061-1.83-0.197-1.743-1.514c0.028-0.419,0.152-1.04-0.447-1.172&#13;&#10;&#9;&#9;c-0.511-0.113-0.77,0.429-1.099,0.735c-3.022,2.808-7.901,2.91-10.759,0.209c-1.798-1.7-2.399-3.95-2.465-6.272&#13;&#10;&#9;&#9;c-0.127-4.447-0.02-8.9-0.066-13.349c-0.013-1.273,0.468-1.746,1.749-1.79c3.792-0.129,3.778-0.172,3.769,3.531&#13;&#10;&#9;&#9;c-0.008,3.321-0.02,6.642,0.034,9.963c0.052,3.233,1.408,4.882,3.935,4.93c3.044,0.058,5.148-1.856,5.226-4.963&#13;&#10;&#9;&#9;c0.093-3.717,0.019-7.439,0.051-11.158c0.019-2.316,0.049-2.223,3.187-2.325c1.798-0.058,2.482,0.468,2.397,2.348&#13;&#10;&#9;&#9;c-0.141,3.115-0.038,6.242-0.038,9.364C389.373,254.543,389.365,254.543,389.356,254.543z"/>
	<path style="fill:#366CEA;" d="M460.154,246.401c1.908-2.554,4.227-3.92,7.486-3.652c3.85,0.317,6.71,2.611,7.086,6.492&#13;&#10;&#9;&#9;c0.5,5.166,0.147,10.362,0.224,15.544c0.012,0.833-0.359,1.23-1.177,1.24c-0.199,0.002-0.399,0.009-0.598,0.016&#13;&#10;&#9;&#9;c-3.816,0.13-3.815,0.13-3.821-3.671c-0.005-3.523,0.045-7.047-0.04-10.568c-0.046-1.901-0.781-3.535-2.759-4.192&#13;&#10;&#9;&#9;c-1.861-0.618-4.154,0.052-5.197,1.571c-0.961,1.401-1.224,3.071-1.247,4.739c-0.045,3.39-0.109,6.784,0.023,10.169&#13;&#10;&#9;&#9;c0.065,1.663-0.57,2.025-2.059,1.962c-3.994-0.169-3.48,0.311-3.495-3.596c-0.021-5.65-0.007-11.301,0.001-16.951&#13;&#10;&#9;&#9;c0.001-0.915-0.234-2.073,0.854-2.439c1.252-0.422,2.747-0.563,3.895,0.029C460.408,243.649,459.473,245.195,460.154,246.401z"/>
	<path style="fill:#fafafa;" d="M266.974,255.955c3.989,0,7.983-0.011,11.972,0.016c1.159,0.011,1.876-0.183,1.79-1.633&#13;&#10;&#9;&#9;c-0.178-2.83-0.663-5.574-2.463-7.816c-2.657-3.304-6.355-4.301-10.349-3.606c-3.806,0.658-6.495,2.997-7.816,6.732&#13;&#10;&#9;&#9;c-0.313,1.822-0.404,3.66-0.49,5.509c-0.253,5.584,4.054,11.449,10.91,10.888c0.916-0.075,1.854,0.005,2.781,0.016&#13;&#10;&#9;&#9;c2.749-0.48,4.749-2.108,6.307-4.301c0.372-0.523,0.771-1.353-0.092-1.941c-0.949-0.652-4.296-0.167-5.175,0.685&#13;&#10;&#9;&#9;c-1.046,1.019-2.199,1.741-3.762,1.86c-2.717,0.21-4.124-1.741-5.455-3.434C263.956,257.432,265.017,255.955,266.974,255.955z&#13;&#10;&#9;&#9; M265.131,250.069c1.089-1.52,2.323-3.196,4.517-3.159c2.075,0.038,3.897,0.776,5.067,2.62c0.431,0.674,0.738,1.531,0.399,2.269&#13;&#10;&#9;&#9;c-0.372,0.814-1.283,0.464-1.978,0.48c-1.062,0.032-2.124,0.011-3.191,0.011v0.016c-1.127,0-2.258,0.022-3.39,0&#13;&#10;&#9;&#9;C264.937,252.273,264.231,251.325,265.131,250.069z"/>
	<path style="fill:#fafafa;" d="M216.586,248.91c-0.14-2.835-3.692-5.627-6.856-5.929c-4.787-0.453-8.711,1.003-11.46,5.11&#13;&#10;&#9;&#9;c0.016,0.264-0.07,0.631,0.075,0.771c0.879,0.879,4.663,0.588,5.563-0.388c1.703-1.838,4.124-2.215,6.226-0.943&#13;&#10;&#9;&#9;c1.105,0.668,1.358,1.736,1.234,2.922c-0.129,1.224-0.986,1.531-2.075,1.666c-2.102,0.259-4.21,0.517-6.29,0.927&#13;&#10;&#9;&#9;c-5.126,1.013-6.781,5.816-4.894,10.021c1.784,3.973,9.87,4.016,12.053,1.515c0.954-1.089,1.746-1.472,1.773,0.539&#13;&#10;&#9;&#9;c0.011,0.868,0.604,0.922,1.229,0.922c1.127-0.005,2.259-0.043,3.385-0.065C216.904,260.289,216.866,254.591,216.586,248.91z&#13;&#10;&#9;&#9; M211.68,256.985c-0.248,3.116-2.151,5.649-5.59,5.428c-1.757,0.291-2.959-0.604-3.455-2.339c-0.442-1.531,0.733-2.803,2.679-3.547&#13;&#10;&#9;&#9;c1.644-0.631,3.391-0.496,5.051-0.965C211.427,255.26,211.751,256.074,211.68,256.985z"/>
	<path style="fill:#2763EB;" d="M447.42,247.207c-0.129-0.178-0.043-0.512-0.059-0.776c-4.129-5.45-14.511-4.97-17.966,1.838&#13;&#10;&#9;&#9;c-1.542,3.029-1.224,6.167-1.17,9.325c0.97,1.051,1.132,2.507,1.849,3.703c1.116,1.865,3.051,2.819,4.474,4.334l0.016-0.011&#13;&#10;&#9;&#9;c1.843,0.005,3.655,0.431,5.52,0.372c4.533-0.156,8.792-4.183,9.32-9.007C449.791,253.454,449.576,250.171,447.42,247.207z&#13;&#10;&#9;&#9; M440.428,261.96c-2.291,1.31-5.687-1.304-6.258-3.676c-0.825-3.407-1.24-6.921,1.579-9.859c1.574-1.633,4.824-1.779,6.42-0.124&#13;&#10;&#9;&#9;c1.202,1.251,2.194,2.63,2.043,4.506c0.517,1.218,0.447,2.436-0.027,3.649C444.309,259.232,442.563,260.736,440.428,261.96z"/>
	<path style="fill:#2663EA;" d="M408.733,265.232c-2.981,1.38-6.156,0.528-9.239,0.717c-2.156-0.949-4.016-2.21-5.051-4.447&#13;&#10;&#9;&#9;c-0.571-1.224-0.544-1.94,1.1-1.94c1.8,0.005,3.563-0.415,4.857,1.536c1.035,1.558,2.9,1.342,4.571,1.277&#13;&#10;&#9;&#9;c1.881,0,3.143-1.003,3.277-2.603c0.129-1.563-1.073-3.051-3.035-3.229c-3.434-0.307-6.479-1.569-9.385-3.299&#13;&#10;&#9;&#9;c-0.119-0.146-0.243-0.291-0.367-0.442c-0.631-2.108-0.388-4.221-0.022-6.334v-0.005c1.396-0.377,2.011-1.838,3.31-2.361&#13;&#10;&#9;&#9;c4.814-1.951,10.118-1.364,13.379,3.051c0.027,0.032,0.049,0.07,0.075,0.102c-0.097,0.647,0.48,1.676-0.593,1.811&#13;&#10;&#9;&#9;c-1.321,0.162-2.754,0.544-3.854-0.83c-1.579-1.984-3.655-2.188-5.908-1.331c-1.143,0.431-2.323,0.986-2.318,2.404&#13;&#10;&#9;&#9;c0.011,1.531,1.073,2.436,2.485,2.701c1.822,0.34,3.568,0.965,5.406,1.277c1.887,0.318,3.633,1.234,4.835,2.841&#13;&#10;&#9;&#9;C414.684,259.367,412.55,263.458,408.733,265.232z"/>
	<path style="fill:#2564E8;" d="M349.155,236.927c-0.302,1.375-1.294,1.067-2.178,1.105c-2.032,0.081-3.056,1.299-3.083,3.493&#13;&#10;&#9;&#9;c-0.027,2.21,1.579,1.763,2.803,1.725c1.331-0.048,1.687,0.464,1.719,1.73c0.032,1.504-0.782,1.515-1.881,1.547&#13;&#10;&#9;&#9;c-1.326,0.032-2.776,0.113-2.765,2.005c0.016,4.237,0.092,8.479,0.108,12.716c0.022,4.609,0.005,4.609-4.722,4.339&#13;&#10;&#9;&#9;c0.016-5.482,0.032-10.958,0.038-16.44c0.005-1.671-0.728-2.56-2.523-2.366c-0.361,0.043-0.749-0.194-1.121-0.307&#13;&#10;&#9;&#9;c-0.022-0.393,0-0.792-0.065-1.175c-0.35-2.011,0.512-2.771,2.469-2.431c1.148,0.485,1.525-0.388,1.445-1.121&#13;&#10;&#9;&#9;c-0.313-2.754,0.986-4.84,2.544-6.862v-0.005c1.779-0.097,3.514-0.528,5.326-0.41C349.51,234.609,349.629,234.76,349.155,236.927z"/>
	<path style="fill:#fafafa;" d="M249.292,250.603c-0.001-4.58,0.037-9.16-0.027-13.739c-0.017-1.211,0.327-1.61,1.565-1.592&#13;&#10;&#9;&#9;c4.887,0.068,3.938-0.35,3.967,3.837c0.057,8.164-0.037,16.329,0.058,24.492c0.022,1.849-0.373,2.585-2.376,2.476&#13;&#10;&#9;&#9;c-3.179-0.173-3.186-0.048-3.186-3.327C249.293,258.701,249.293,254.652,249.292,250.603z"/>
	<path style="fill:#fafafa;" d="M193.332,263.868c0.286,0.986-0.086,1.563-0.776,2.005c-0.113,0.032-0.216,0.086-0.302,0.178&#13;&#10;&#9;&#9;c-2.081,0.097-4.177,0.377-6.043-0.954c-0.399-0.286-0.728-0.539-0.771-1.04c-0.809-1.892-1.191-3.843-1.148-5.913&#13;&#10;&#9;&#9;c0.059-3.046-0.027-6.091-0.005-9.137c0.011-1.304-0.512-2.426-1.8-2.339c-1.525,0.092-1.418-0.679-1.472-1.66&#13;&#10;&#9;&#9;c-0.065-1.191,0.194-1.897,1.628-1.736c1.137,0.135,1.709-0.512,1.655-1.682c-0.027-0.663-0.048-1.326,0-1.984&#13;&#10;&#9;&#9;c0.054-0.792-0.205-2.108,1.186-1.628c1.1,0.377,3.229-1.116,3.223,1.628c0,1.11-0.55,2.415,0.652,3.326&#13;&#10;&#9;&#9;c0.9,0.453,1.811,0.706,2.835,0.42c0.695-0.194,1.116,0.054,1.175,0.879c0.097,1.396,0.086,2.431-1.887,2.296&#13;&#10;&#9;&#9;c-2.151-0.151-2.83,0.69-2.825,2.819c0.005,3.186,0.011,6.366,0.022,9.552c0.005,1.897,1.078,3.315,2.954,3.471&#13;&#10;&#9;&#9;C192.744,262.461,193.062,262.952,193.332,263.868z"/>
	<path style="fill:#2965E9;" d="M418.15,254.433c0-3.25,0.055-6.501-0.025-9.749c-0.035-1.422,0.515-1.833,1.866-1.815&#13;&#10;&#9;&#9;c4.319,0.058,3.645-0.235,3.665,3.577c0.03,5.836-0.034,11.673,0.053,17.509c0.023,1.55-0.413,2.121-2.003,2.084&#13;&#10;&#9;&#9;c-4.138-0.095-3.537,0.324-3.574-3.449c-0.027-2.719-0.005-5.438-0.005-8.158C418.134,254.433,418.142,254.433,418.15,254.433z"/>
	<path style="fill:#2964E7;" d="M326.334,254.644c0-3.318,0.044-6.636-0.022-9.952c-0.027-1.347,0.387-2,1.806-1.818&#13;&#10;&#9;&#9;c0.457,0.059,0.932,0.052,1.392,0.003c1.588-0.168,2.237,0.405,2.213,2.114c-0.089,6.302-0.097,12.607-0.012,18.909&#13;&#10;&#9;&#9;c0.023,1.706-0.596,2.161-2.193,2.142c-3.193-0.036-3.194,0.035-3.194-3.237c0-2.72,0-5.441,0-8.161&#13;&#10;&#9;&#9;C326.328,254.644,326.331,254.644,326.334,254.644z"/>
	<path style="fill:#ACCCF3;" d="M106.44,204.934c1.494-0.135,2.197,1.173,3.136,1.893c2.691,2.066,5.508,3.991,7.677,6.7&#13;&#10;&#9;&#9;c3.601,4.498,7.08,8.992,9.627,14.269c1.992,4.128,3.079,8.504,4.023,12.798c0.856,3.89,1.034,8.142,0.466,12.256&#13;&#10;&#9;&#9;c-0.045,0.328-0.184,0.665-0.139,0.979c0.625,4.414-1.188,8.428-2.051,12.596c-0.146,0.707-0.235,1.493-1.226,1.546&#13;&#10;&#9;&#9;c-0.61-0.634-0.488-1.386-0.353-2.141c0.294-0.861,0.723-1.687,0.685-2.636c0.025-0.31,0.079-0.615,0.154-0.916&#13;&#10;&#9;&#9;c1.677-5.637,1.706-11.448,1.285-17.196c-0.268-3.654-0.949-7.34-2.303-10.857c-1.819-4.722-3.706-9.355-6.707-13.512&#13;&#10;&#9;&#9;c-3.732-5.169-8.067-9.667-13.291-13.327c-0.846-0.593-2.186-0.944-1.873-2.472C105.852,204.692,106.148,204.736,106.44,204.934z"/>
	<path style="fill:#6B8CEF;" d="M359.822,240.7c-0.663,1.628-0.054,2.21,1.331,2.517c0.577,0.129,1.197,0.038,1.784,0.119&#13;&#10;&#9;&#9;c1.181,0.162,1.709,0.916,1.72,2.064c0.011,1.45-1.11,1.024-1.876,1.051c-2.636,0.097-3.245,0.69-3.25,3.32&#13;&#10;&#9;&#9;c-0.005,4.646-0.075,9.298,0.038,13.939c0.043,1.676-0.598,2.027-2.086,1.951c-1.331-0.065-2.404,0.124-2.35-1.881&#13;&#10;&#9;&#9;c0.14-5.04,0.016-10.085,0.065-15.131c0.011-1.385-0.453-2.199-1.903-2.162c-1.04,0.032-1.466-0.404-1.369-1.423&#13;&#10;&#9;&#9;c0.086-0.906,0.253-1.843,1.418-1.752c1.585,0.119,1.908-0.658,1.849-2.027c-0.108-2.539,1.547-4.361,2.744-6.361&#13;&#10;&#9;&#9;c0.162,0.232,0.264,0.517,0.119,0.744c-1.38,2.151-2.334,4.442-2.593,7.018c-0.086,0.857-0.981,0.981-1.676,1.197&#13;&#10;&#9;&#9;c-0.534,0.167-1.003,0.41-1.062,1.04c-0.065,0.717,0.49,0.9,0.997,1.03c1.601,0.415,1.978,1.563,1.978,3.035&#13;&#10;&#9;&#9;c0,4.582-0.022,9.169,0.016,13.751c0.005,0.76-0.189,1.649,0.728,2.113c1.31,0.658,2.447-0.07,2.469-1.693&#13;&#10;&#9;&#9;c0.054-4.118,0.011-8.242,0.022-12.36c0.011-3.692,0.27-4.021,3.913-4.964c0.453-0.119,0.97-0.183,0.933-0.814&#13;&#10;&#9;&#9;c-0.038-0.517-0.404-0.819-0.873-0.986c-0.69-0.253-1.439-0.226-2.145-0.415c-1.445-0.383-1.94-1.294-1.536-2.701&#13;&#10;&#9;&#9;c0.517-1.822,1.294-3.39,3.536-3.461c0.264-0.011,0.523-0.097,0.765-0.205c0.609-0.27,0.954-0.744,0.895-1.407&#13;&#10;&#9;&#9;c-0.07-0.722-0.69-0.717-1.207-0.755c-0.997-0.065-1.994-0.022-2.986,0.129c-0.787,0.119-1.585,0.286-2.275-0.318&#13;&#10;&#9;&#9;c1.849-0.011,3.655-0.674,5.525-0.41c0.733,0.102,1.919-0.264,1.811,0.916c-0.097,1.051-0.081,2.744-1.817,2.566&#13;&#10;&#9;&#9;C361.272,237.752,360.539,238.927,359.822,240.7z"/>
	<path style="fill:#91B5EC;" d="M101.284,297.578c-2.955,2.465-6.768,2.69-10.195,3.93c-5.896,2.134-12.006,1.517-18.066,1.593&#13;&#10;&#9;&#9;c-1.931,0.024-3.838-0.122-5.527-1.225c-0.593-0.387-1.292-0.233-1.932-0.364c-3.525-0.719-7.056-1.445-9.913-3.879&#13;&#10;&#9;&#9;c0.072-0.09,0.144-0.18,0.215-0.271c1.17-0.583,2.324-0.434,3.44,0.129c5.333,2.69,11.145,3.306,16.954,3.851&#13;&#10;&#9;&#9;c5.292,0.497,10.419-0.708,15.543-1.797c1.95-0.788,4.103-0.988,5.914-2.217c0.768-0.521,1.793-0.352,2.722-0.244&#13;&#10;&#9;&#9;C100.777,297.153,101.08,297.282,101.284,297.578z"/>
	<path style="fill:#89AEDC;" d="M101.284,297.578c-0.303-0.024-0.605-0.048-0.908-0.073c-0.182-0.963,0.368-1.484,1.138-1.857&#13;&#10;&#9;&#9;c4.564-2.211,8.363-5.392,12.162-8.74c3.572-3.148,6.187-6.907,8.706-10.758c1.83-2.798,3.337-5.872,4.205-9.175&#13;&#10;&#9;&#9;c0.133-0.508,0.15-1.06,0.563-1.46c0.304-0.134,0.588-0.115,0.845,0.109c-0.014,0.783-0.027,1.565-0.041,2.348&#13;&#10;&#9;&#9;c-0.407,0.33-0.351,0.776-0.306,1.219c-0.664,2.143-1.356,4.272-2.838,6.03l-0.002-0.001c-1.492,3.617-3.96,6.58-6.402,9.562&#13;&#10;&#9;&#9;l-0.01-0.001c-0.969,1.157-2.2,2.055-3.171,3.211l0,0.005c-0.773,1.36-2.238,2.017-3.222,3.164&#13;&#10;&#9;&#9;c-2.109,1.442-4.221,2.88-6.325,4.329C104.325,296.423,102.98,297.367,101.284,297.578z"/>
	<path style="fill:none;" d="M339.069,265.593c0.032,0,0.059-0.005,0.086-0.005c-0.043-0.032-0.086-0.054-0.129-0.065"/>
	<path style="fill:#2B65E7;" d="M329.081,233.757c1.699,0.064,2.949,1.445,2.849,3.147c-0.089,1.525-1.523,2.83-3.053,2.779&#13;&#10;&#9;&#9;c-1.615-0.054-2.884-1.381-2.831-2.961C326.103,235.014,327.452,233.696,329.081,233.757z"/>
	<path style="fill:#C5DCF7;" d="M54.496,297.576c-2.96-0.141-4.895-2.376-7.31-3.62c-2.638-1.359-4.402-3.729-6.254-5.964&#13;&#10;&#9;&#9;c0.187-0.253,0.452-0.357,0.752-0.392c1.262,0.003,1.909,0.976,2.681,1.731c0.554,0.542,1.051,1.143,1.716,1.561&#13;&#10;&#9;&#9;c0.604,0.621,1.116,1.358,2.018,1.612c0.163,0.09,0.309,0.199,0.448,0.32c1.479,1.171,2.959,2.316,4.743,3.035&#13;&#10;&#9;&#9;C53.951,296.127,55.111,296.303,54.496,297.576z"/>
	<path style="fill:none;" d="M339.069,265.593c0.032,0,0.059-0.005,0.086-0.005c-0.043-0.032-0.086-0.054-0.129-0.065"/>
	<path style="fill:#9CB3F7;" d="M423.444,236.712c-0.027,1.504-1.073,2.517-2.652,2.512c-1.655-0.011-2.544-0.933-2.598-2.55&#13;&#10;&#9;&#9;c-0.065-1.984,1.267-2.178,2.523-2.253C422.446,234.437,423.481,234.954,423.444,236.712z"/>
	<path style="fill:#C5DAF3;" d="M118.406,284.783c-0.018-0.468-0.037-0.946,0.335-1.304c2.5-2.403,3.949-5.575,6.066-8.259&#13;&#10;&#9;&#9;c0.461,1.732-0.862,2.691-1.607,3.951c-1.038,1.756-2.046,3.498-3.455,5C119.334,284.611,118.965,284.82,118.406,284.783z"/>
	<path style="fill:#90B8E8;" d="M54.496,297.576c-0.185-1.189-1.299-1.158-2.07-1.582c-1.583-0.872-3.276-1.6-4.302-3.218&#13;&#10;&#9;&#9;c0.491-0.433,0.989-0.208,1.468,0.006c1.741,0.776,3.371,1.768,5.027,2.701c0.684,0.386,1.549,0.885,1.169,1.995&#13;&#10;&#9;&#9;c-0.046,0.051-0.092,0.102-0.137,0.154C55.266,297.614,54.881,297.595,54.496,297.576z"/>
	<path style="fill:#C5D9EF;" d="M124.81,275.221c0.79-2.083,1.554-4.179,2.837-6.03C128.1,270.952,126.331,274.712,124.81,275.221z"/>
	<path style="fill:#BFD5F6;" d="M115.225,287.993c0.557-1.564,1.639-2.61,3.171-3.211&#13;&#10;&#9;&#9;C118.268,286.769,116.582,287.218,115.225,287.993z"/>
	<path style="fill:#C2D9F1;" d="M112.004,291.161c0.471-1.669,2.017-2.242,3.221-3.164&#13;&#10;&#9;&#9;C115.046,289.962,113.471,290.507,112.004,291.161z"/>
	<path style="fill:#ABCAF3;" d="M41.783,287.951c-0.283,0.014-0.567,0.028-0.85,0.042c0,0,0.001-0.002,0.001-0.002&#13;&#10;&#9;&#9;c-0.758-0.84-1.57-1.626-2.388-2.406c-0.022-0.244-0.045-0.489-0.068-0.733c0.052-0.048,0.104-0.098,0.155-0.148&#13;&#10;&#9;&#9;C40.444,284.642,41.955,286.199,41.783,287.951z"/>
	<path style="fill:#C5DCF7;" d="M38.545,285.584c1.268,0.334,2.081,1.119,2.389,2.406C39.707,287.616,38.893,286.831,38.545,285.584&#13;&#10;&#9;&#9;z"/>
	<path style="fill:#77A2F6;" d="M444.187,256.456c0.008-1.216,0.016-2.431,0.023-3.647&#13;&#10;&#9;&#9;C445.529,254.033,445.274,255.247,444.187,256.456z"/>
	<path style="fill:#609CEC;" d="M127.197,265.621c-0.294-1.323,0.8-1.739,1.555-2.375c0.081,0.899-0.034,1.735-0.757,2.378&#13;&#10;&#9;&#9;C127.728,265.623,127.462,265.622,127.197,265.621z"/>
	<path style="fill:#2C67EB;" d="M359.822,240.7c-0.663,1.628-0.054,2.21,1.331,2.517c0.577,0.129,1.197,0.038,1.784,0.119&#13;&#10;&#9;&#9;c1.181,0.162,1.709,0.916,1.72,2.064c0.011,1.45-1.11,1.024-1.876,1.051c-2.636,0.097-3.245,0.69-3.25,3.32&#13;&#10;&#9;&#9;c-0.005,4.646-0.075,9.298,0.038,13.939c0.043,1.676-0.598,2.027-2.086,1.951c-1.331-0.065-2.404,0.124-2.35-1.881&#13;&#10;&#9;&#9;c0.14-5.04,0.016-10.085,0.065-15.131c0.011-1.385-0.453-2.199-1.903-2.162c-1.04,0.032-1.466-0.404-1.369-1.423&#13;&#10;&#9;&#9;c0.086-0.906,0.253-1.843,1.418-1.752c1.585,0.119,1.908-0.658,1.849-2.027c-0.108-2.539,1.547-4.361,2.744-6.361l0.016-0.022&#13;&#10;&#9;&#9;c1.849-0.011,3.655-0.674,5.525-0.41c0.733,0.102,1.919-0.264,1.811,0.916c-0.097,1.051-0.081,2.744-1.817,2.566&#13;&#10;&#9;&#9;C361.272,237.752,360.539,238.927,359.822,240.7z"/>
	<path style="fill:#90B8E8;" d="M46.129,291.177c0.928,0.204,1.722,0.575,1.995,1.597C47.005,292.809,46.309,292.315,46.129,291.177&#13;&#10;&#9;&#9;z"/>
	<path style="fill:#2765E8;" d="M423.444,236.712c-0.027,1.504-1.073,2.517-2.652,2.512c-1.655-0.011-2.544-0.933-2.598-2.55&#13;&#10;&#9;&#9;c-0.065-1.984,1.267-2.178,2.523-2.253C422.446,234.437,423.481,234.954,423.444,236.712z"/>
	<path style="fill:#CBDFFB;" d="M99.232,230.497c1.479,0.177,2.233,1.419,3.243,2.261c1.099,0.915,2.09,1.959,3.128,2.947&#13;&#10;&#9;&#9;c0.018,0.379,0.037,0.758,0.055,1.137c0,0-0.067,0.117-0.067,0.117c-0.971,0.425-1.467-0.342-2.033-0.848&#13;&#10;&#9;&#9;c-1.478-1.325-2.485-3.113-4.193-4.226C98.861,231.555,98.814,231.005,99.232,230.497z"/>
	<path style="fill:#D1D4D9;" d="M100.436,248.015c0.013,2.712-2.627,5.664-4.973,5.561c-2.433-0.106-5.018-3.267-4.997-6.109&#13;&#10;&#9;&#9;c0.014-1.896,2.393-4.577,4.073-4.59C98.223,242.85,100.42,244.764,100.436,248.015z"/>
	<path style="fill:#F7CC56;" d="M91.806,256.818c2.028,0.008,4.001,1.722,3.941,3.425c-0.091,2.57-1.886,4.222-4.547,4.184&#13;&#10;&#9;&#9;c-2.029-0.029-3.571-1.767-3.523-3.971C87.732,258.012,89.099,256.807,91.806,256.818z"/>
	<path style="fill:#AAB1B8;" d="M99.243,248.156c-0.012,2.611-0.956,3.529-3.597,3.497c-2.845-0.035-3.982-1.166-3.992-3.971&#13;&#10;&#9;&#9;c-0.006-1.655,2.001-3.979,3.449-3.994C97.351,243.664,99.254,245.718,99.243,248.156z"/>
	<g>
		<path style="fill:#ABCAF3;" d="M38.477,284.852c-1.556-0.391-2.255-1.755-3.069-2.888c-1.612-2.242-3.117-4.568-4.554-6.927&#13;&#10;&#9;&#9;&#9;c-0.809-1.329-1.227-2.892-1.749-4.332c-0.998-2.754-2.108-5.458-2.745-8.412c-0.959-4.446-1.458-8.833-1.344-13.328&#13;&#10;&#9;&#9;&#9;c0.104-4.077,0.057-8.184,1.569-12.082c0.413-1.611,0.321-3.358,1.344-4.807c0.291-0.413,0.399-1.019,1.123-0.703&#13;&#10;&#9;&#9;&#9;c0.722,1.135,0.591,2.324-0.004,3.404c-0.761,1.381-1.096,2.829-1.174,4.376c-0.04,0.796-0.139,1.621-0.437,2.342&#13;&#10;&#9;&#9;&#9;c-1.689,4.091-0.974,8.376-1.082,12.591c-0.045,1.76,0.985,3.287,1.214,5.008c1.16,8.714,5.154,16.178,10.283,23.134&#13;&#10;&#9;&#9;&#9;c0.467,0.633,1.088,1.195,0.987,2.096C38.79,284.548,38.668,284.724,38.477,284.852z"/>
		<path style="fill:#5791D3;" d="M109.614,241.255c0.132-0.867,0.494-0.695,1.073-0.325c1.359,0.87,2.377,2.23,3.185,3.416&#13;&#10;&#9;&#9;&#9;c1.361,1.997,4.46,2.287,4.762,5.131c2.039,0.693,2.803,3.255,5.151,3.511c0.241,0.026,0.67,0.277,0.658,0.382&#13;&#10;&#9;&#9;&#9;c-0.312,2.617,2.478,2.971,3.443,4.698c0.809,1.447,0.885,2.858,0.916,4.369c-0.017,0.27-0.034,0.54-0.051,0.81&#13;&#10;&#9;&#9;&#9;c-0.422,0.855-1.056,1.57-1.554,2.375c0.179,2.025-0.801,3.757-1.576,5.477c-2.458,5.457-5.7,10.478-9.875,14.739&#13;&#10;&#9;&#9;&#9;c-3.641,3.716-7.85,6.839-12.254,9.65c-1.043,0.666-2.709,0.366-3.115,2.018c-2.715-0.368-4.597,2.097-7.204,2.123&#13;&#10;&#9;&#9;&#9;c-0.377,0.004-0.752,0.211-1.128,0.325c-1.119-0.054-2.504,0.413-2.494-1.57c0.003-0.707-0.751-0.867-1.383-0.823&#13;&#10;&#9;&#9;&#9;c-0.871,0.061-1.48-0.312-1.606-1.139c-0.462-3.017-3.019-3.957-5.174-5.275c-0.466-0.285-1.171-0.553-1.129-1.001&#13;&#10;&#9;&#9;&#9;c0.254-2.665-2.977-2.846-3.428-4.961c-2.656-0.045-2.665-2.535-3.893-3.962c-2.577-2.993-5.708-5.508-8.323-8.507&#13;&#10;&#9;&#9;&#9;c-3.173-0.047-3.479-3.43-5.543-4.773c-0.271-0.176-0.557-0.433-0.678-0.719c-0.445-1.061-1.181-1.634-2.329-1.87&#13;&#10;&#9;&#9;&#9;c-1.208-0.248-1.648-1.09-1.573-2.362c0.062-1.039,0.437-1.371,1.444-1.386c1.286-0.018,2.695,0.411,3.766-0.748&#13;&#10;&#9;&#9;&#9;c3.507-2.752,8.648-1.526,10.702,2.259c1.43,2.634,1.521,5.595,2.658,8.279c1.88,4.436,3.251,5.395,8.318,5.112&#13;&#10;&#9;&#9;&#9;c3.433-0.192,6.659-1.068,9.84-2.042c2.222-0.68,4.342-1.903,6.377-3.16c4.928-3.043,8.902-6.945,10.973-12.441&#13;&#10;&#9;&#9;&#9;c1.498-3.977,1.536-8.158,1.117-12.353C109.511,244.766,109.051,243.014,109.614,241.255z"/>
		<path style="fill:#ABCAF3;" d="M32.204,224.947c-0.695,2.31-1.558,4.534-3.213,6.358c0.307-2.732,1.767-4.956,3.17-7.205&#13;&#10;&#9;&#9;&#9;C32.175,224.382,32.19,224.665,32.204,224.947z"/>
		<path style="fill:#F7E6B6;" d="M91.522,265.638c-3.697-0.003-5.083-1.457-5.075-5.324c0.006-2.715,2.29-5.059,4.943-5.074&#13;&#10;&#9;&#9;&#9;c3.049-0.018,5.426,2.361,5.46,5.465C96.883,263.502,94.573,265.64,91.522,265.638z"/>
		<path style="fill:#BBD4F1;" d="M86.842,240.09c-0.126-0.001-0.251-0.017-0.373-0.048c-0.317-0.494-0.379-1.084-0.641-1.609&#13;&#10;&#9;&#9;&#9;c-0.853-1.714-0.751-3.352,0.579-4.822c-0.101-1.013,0.374-1.564,1.322-1.91c1.552-0.566,3.136-0.536,4.702-0.304&#13;&#10;&#9;&#9;&#9;c1.09,0.162,1.962,0.92,2.397,1.922c0.763,1.76,0.605,3.638,0.17,5.436c-0.165,0.683-0.688,1.484-1.717,1.347&#13;&#10;&#9;&#9;&#9;c-0.178,0.152-0.354,0.149-0.526-0.007c-0.477-0.818,0.109-1.329,0.515-1.931c0.979-1.449,0.896-3.093-0.152-4.124&#13;&#10;&#9;&#9;&#9;c-1.588-1.562-2.904-1.816-4.361-0.84c-1.563,1.046-2.136,2.823-1.494,4.501c0.311,0.813,1.283,1.437,0.747,2.504&#13;&#10;&#9;&#9;&#9;C87.593,240.433,87.211,240.327,86.842,240.09z"/>
		<path style="fill:#CCD9F5;" d="M86.842,240.09c0.422-0.016,0.844-0.032,1.266-0.048c1.546-0.846,3.097-0.824,4.651-0.024&#13;&#10;&#9;&#9;&#9;c0.174,0.027,0.348,0.054,0.522,0.082C91.71,242.315,88.813,242.31,86.842,240.09z"/>
		<path style="fill:#CCD9F5;" d="M86.407,233.611c-1.397,2.158-0.401,4.293,0.062,6.432&#13;&#10;&#9;&#9;&#9;C84.333,237.079,84.315,235.277,86.407,233.611z"/>
		<path style="fill:#EC9988;" d="M77.889,228.087c3.059-0.36,4.39,1.665,4.527,4.21c0.132,2.448-2.372,4.523-5.189,4.562&#13;&#10;&#9;&#9;&#9;c-2.065,0.029-3.588-1.986-3.582-4.738C73.652,229.061,74.68,228.085,77.889,228.087z"/>
		<g>
			<path style="fill:#B7D2F6;" d="M106.44,204.934c-0.296,0.018-0.591,0.036-0.887,0.054c-0.697,0.562-1.364,0.297-2.028-0.074&#13;&#10;&#9;&#9;&#9;&#9;c-6.26-3.494-12.927-5.819-20.041-6.732c-5.521-0.709-10.942-0.098-16.372,1.18c-7.355,1.731-13.857,5.177-20.149,9.158&#13;&#10;&#9;&#9;&#9;&#9;c-1.381,0.36-2.232,1.512-3.356,2.257c-0.568,0.376-1.02,1.091-1.856,0.558c1.371-2.238,3.597-3.536,5.546-5.161&#13;&#10;&#9;&#9;&#9;&#9;c2.023-1.686,4.591-2.374,6.66-4.03c0.981-0.785,2.527-1.259,3.838-1.742c5.836-2.151,11.769-3.892,18.131-3.467&#13;&#10;&#9;&#9;&#9;&#9;c4.035,0.269,8.114-0.377,12.126,0.433c4.116,0.831,8.171,1.869,11.953,3.793c1.387,0.705,2.828,1.317,4.235,1.973&#13;&#10;&#9;&#9;&#9;&#9;C105.206,203.585,105.907,204.085,106.44,204.934z"/>
			<path style="fill:#CDE2FB;" d="M28.994,231.308c-1.205,0.89-0.938,2.471-1.68,3.58c-0.403,0.603-0.106,1.468-0.729,1.995&#13;&#10;&#9;&#9;&#9;&#9;c-0.824-3.521,1.39-6.293,2.615-9.163c1.883-4.41,4.432-8.555,7.729-12.143c0.443-0.482,0.844-1.05,1.604-1.066&#13;&#10;&#9;&#9;&#9;&#9;c0.627,1.305-0.53,1.967-1.124,2.7c-1.796,2.22-3.188,4.716-4.928,6.966c-1.178,2.27-2.367,4.534-3.279,6.93&#13;&#10;&#9;&#9;&#9;&#9;C29.134,231.175,29.064,231.242,28.994,231.308z"/>
			<path style="fill:#93BCEF;" d="M32.161,224.1c0.461-1.507,1.775-2.475,2.44-3.845c1.026-2.114,3.144-3.473,3.933-5.744&#13;&#10;&#9;&#9;&#9;&#9;c0.957-1.176,1.961-2.304,3.218-3.176c1.4-0.361,2.179-1.607,3.317-2.345c0.485-0.314,0.814-0.878,1.498-0.823&#13;&#10;&#9;&#9;&#9;&#9;c0.505,0.898-0.192,1.382-0.722,1.814c-3.617,2.942-6.661,6.409-9.519,10.071c-0.868,1.112-1.483,2.339-2.211,3.517&#13;&#10;&#9;&#9;&#9;&#9;c-0.439,0.71-0.726,1.857-2.031,1.373C31.959,224.647,31.945,224.363,32.161,224.1z"/>
			<path style="fill:#609CEC;" d="M130.077,256.521c-0.264,2.027-0.755,3.962-1.272,5.913c-0.609-0.485-0.431-1.207-0.561-1.838&#13;&#10;&#9;&#9;&#9;&#9;c-0.35-1.682-1.035-3.153-2.652-4c-0.291-0.151-0.798-0.259-0.814-0.517c-0.162-2.523-2.587-2.916-3.962-4.274&#13;&#10;&#9;&#9;&#9;&#9;c-3.175-3.132-6.474-6.134-9.411-9.492c-0.474-0.539-1.03-0.906-1.763-0.895c-0.049,0-0.102,0-0.151,0.005&#13;&#10;&#9;&#9;&#9;&#9;c-1.784-0.868-1.622-3.008-2.776-4.312c-0.399-0.458-0.668-1.046-1.1-1.509c-0.043-0.059-0.097-0.113-0.151-0.156&#13;&#10;&#9;&#9;&#9;&#9;c-0.054-0.054-0.113-0.102-0.172-0.151c-4.673-5.315-10.36-8.964-17.287-10.619c-4.539-1.083-9.104-1.164-13.772-1.003&#13;&#10;&#9;&#9;&#9;&#9;c-4.679,0.167-8.765,1.73-12.84,3.649c-0.011,0-0.016,0.005-0.027,0.011c-0.005,0-0.011,0.005-0.016,0.005v0.005&#13;&#10;&#9;&#9;&#9;&#9;c-0.054,0.022-0.102,0.043-0.156,0.07c-0.048,0.022-0.097,0.049-0.146,0.075c-5.649,2.803-9.977,6.937-12.775,12.624h-0.005&#13;&#10;&#9;&#9;&#9;&#9;c0,0-0.005,0.005-0.005,0.011c-0.005,0.011-0.011,0.022-0.016,0.032v0.005c-0.005,0.005-0.011,0.011-0.011,0.022&#13;&#10;&#9;&#9;&#9;&#9;c-0.016,0.027-0.032,0.059-0.049,0.092c-1.628,2.35-1.655,5.126-1.838,7.778c-0.156,2.345,0.14,4.738,0.744,7.05&#13;&#10;&#9;&#9;&#9;&#9;c0.658,2.506,3.132,4.452,5.724,4.808c2.269,0.318,4.544,0.566,6.824,0.776c0.038,0.059,0.065,0.113,0.081,0.167&#13;&#10;&#9;&#9;&#9;&#9;c0.194,0.485-0.248,0.69-0.582,0.895c-0.588,0.361-1.272,0.329-1.93,0.399c-0.792,0.086-1.881-0.296-2.07,0.97&#13;&#10;&#9;&#9;&#9;&#9;c-0.178,1.18,0.825,1.428,1.601,1.957c1.935,1.326,3.833,2.754,4.743,5.051c0.237,0.598,0.528,1.143,1.17,1.234&#13;&#10;&#9;&#9;&#9;&#9;c1.957,0.28,3.148,1.66,4.291,3.019c1.326,1.585,2.754,3.024,4.345,4.355c1.358,1.132,2.781,2.302,3.024,4.275&#13;&#10;&#9;&#9;&#9;&#9;c0.059,0.48,0.372,0.862,0.835,1.046c2.679,1.067,4.539,2.954,5.622,5.617c0.253,0.615,0.889,0.744,1.331,1.116&#13;&#10;&#9;&#9;&#9;&#9;c1.876,1.563,4.447,2.49,5.024,5.293c0.038,0.194,0.14,0.474,0.291,0.496c2.14,0.318,2.722,2.754,4.625,3.38&#13;&#10;&#9;&#9;&#9;&#9;c-6.215,1.66-12.479,2.674-18.942,1.644c-4.161-0.663-8.387-1.073-12.301-2.744c-1.633-0.695-3.148-1.612-5.013-1.38&#13;&#10;&#9;&#9;&#9;&#9;c-0.469-1.655-2.167-1.725-3.299-2.523c-1.331-0.949-2.798-1.682-4.366-2.178c-0.658-0.539-1.428-0.943-1.994-1.601&#13;&#10;&#9;&#9;&#9;&#9;c-1.148,0.135-1.407-0.97-2.086-1.493c-0.755-0.577-1.197-1.558-2.259-1.73c-0.528-1.59-1.687-2.566-3.153-3.245&#13;&#10;&#9;&#9;&#9;&#9;c0.054-1.089-0.862-1.574-1.401-2.307c-3.213-4.339-6.113-8.953-7.924-13.982c-0.959-2.668-1.924-5.498-2.285-8.49&#13;&#10;&#9;&#9;&#9;&#9;c-0.426-3.504-1.283-6.921-1.31-10.533c-0.027-3.25,1.159-6.237,1.353-9.347c0.189-3.078,2.302-5.622,1.93-8.738v-0.005&#13;&#10;&#9;&#9;&#9;&#9;c0.889-1.73,1.547-3.585,2.533-5.272c0.011-0.022,0.022-0.048,0.038-0.07c0-0.005,0-0.011,0.005-0.016&#13;&#10;&#9;&#9;&#9;&#9;c0-0.005,0.005-0.005,0.005-0.011s0.005-0.005,0.005-0.011c0.005-0.016,0.016-0.027,0.022-0.043&#13;&#10;&#9;&#9;&#9;&#9;c0.183-0.307,0.377-0.609,0.582-0.906c0.005-0.011,0.016-0.022,0.022-0.032c0.717-0.07,1.024-0.69,1.24-1.18&#13;&#10;&#9;&#9;&#9;&#9;c1.606-3.638,4.506-6.328,6.883-9.385c1.396-1.795,3.374-3.143,5.115-4.657c0.367-0.318,0.76-0.598,0.976-1.008v-0.005&#13;&#10;&#9;&#9;&#9;&#9;c0.075-0.162,0.129-0.334,0.146-0.544c2.517-1.525,4.937-3.207,7.59-4.522c4.474-2.215,9.083-3.967,13.977-5.11&#13;&#10;&#9;&#9;&#9;&#9;c5.714-1.331,11.449-1.579,17.157-0.679c4.835,0.765,9.525,2.253,14.052,4.28c2.081,0.933,3.886,2.48,6.215,2.857&#13;&#10;&#9;&#9;&#9;&#9;c1.353,2.145,3.859,2.841,5.649,4.469c5.164,4.679,9.805,9.751,13.104,15.95c1.79,3.358,3.353,6.878,4.323,10.479&#13;&#10;&#9;&#9;&#9;&#9;C130.443,242.609,131.004,249.53,130.077,256.521z"/>
			<path style="fill:#93B5DE;" d="M109.993,255.853c-0.69,4.264-2.965,7.681-5.757,10.867c-3.315,3.795-7.724,6.01-12.107,8.042&#13;&#10;&#9;&#9;&#9;&#9;c-1.876,0.868-4.102,1.709-6.285,1.854c-3.078,0.199-6.188,1.062-9.255,0.151c-2.151-0.636-3.083-2.625-3.719-4.528&#13;&#10;&#9;&#9;&#9;&#9;c-0.668-1.967-1.504-3.865-1.773-6.037c-0.216-1.763-1.321-3.552-2.506-5.078c-0.609-0.776-1.38-1.127-2.415-1.105&#13;&#10;&#9;&#9;&#9;&#9;c-2.188,0.049-4.328,0.34-6.452,0.836c-0.005,0-0.016,0.005-0.022,0.005c-2.652,0.744-5.234-0.183-7.784-0.555&#13;&#10;&#9;&#9;&#9;&#9;c-3.067-0.453-5.374-3.121-5.881-7.412c-0.453-3.865-0.323-7.73,0.862-11.503c0.216-0.69,0.372-1.261,1.191-1.331&#13;&#10;&#9;&#9;&#9;&#9;c0.049,0.043,0.097,0.086,0.146,0.124c0,0.005,0.005,0.011,0.005,0.011c-0.248,2.242-1.784,4.194-1.364,6.625&#13;&#10;&#9;&#9;&#9;&#9;c0.237,1.358,0.135,2.792,0.038,4.183c-0.34,4.598,3.471,8.91,8.727,8.716c3.444-0.129,6.867-0.555,10.322-0.571&#13;&#10;&#9;&#9;&#9;&#9;c2.232-0.011,3.628,0.825,4.56,2.754c1.38,2.846,1.994,5.956,3.143,8.883c0.744,1.903,1.294,4.064,3.337,4.835&#13;&#10;&#9;&#9;&#9;&#9;c2.102,0.792,4.398,0.604,6.614,0.011c1.579-0.426,3.153-0.981,4.77-1.186c2.889-0.367,5.455-1.59,7.778-3.121&#13;&#10;&#9;&#9;&#9;&#9;c3.148-2.07,6.301-4.156,8.63-7.331c1.994-2.728,3.353-5.698,4.355-8.824c0.959-3.002,0.744-6.242,0.34-9.293&#13;&#10;&#9;&#9;&#9;&#9;c-0.437-3.261-1.364-6.533-3.833-9.034c-0.038,0.032-0.075,0.065-0.108,0.092c0.011,0.011,0.027,0.022,0.043,0.027&#13;&#10;&#9;&#9;&#9;&#9;c-0.005,0.092-0.005,0.178,0,0.264c-0.032-0.054-0.065-0.108-0.097-0.162c-0.011-0.016-0.022-0.038-0.027-0.054&#13;&#10;&#9;&#9;&#9;&#9;c-0.032-0.059-0.059-0.113-0.086-0.172c-0.129-0.334-0.167-0.679-0.092-1.046c0.011-0.032,0.016-0.059,0.032-0.086&#13;&#10;&#9;&#9;&#9;&#9;c0.032-0.097,0.081-0.183,0.14-0.259c0.054-0.07,0.119-0.135,0.189-0.189c1.622,0.771,1.973,2.485,2.674,3.87&#13;&#10;&#9;&#9;&#9;&#9;c0.383,0.755,0.712,1.504,1.288,2.129c0.011,0.054,0.016,0.108,0.027,0.162C110.391,246.215,110.774,251.023,109.993,255.853z"/>
			<path style="fill:#A5C7F3;" d="M105.653,235.256c-0.011,0.119-0.027,0.232-0.038,0.345c-0.005,0.038-0.005,0.07-0.011,0.102&#13;&#10;&#9;&#9;&#9;&#9;c-0.097,0.005-0.189,0.005-0.28,0c0.032-0.097,0.081-0.183,0.14-0.259c-0.054-0.054-0.113-0.102-0.172-0.151&#13;&#10;&#9;&#9;&#9;&#9;c-4.673-5.315-10.36-8.964-17.287-10.619c-4.539-1.083-9.104-1.164-13.772-1.003c-4.679,0.167-8.765,1.73-12.84,3.649&#13;&#10;&#9;&#9;&#9;&#9;c-0.011,0-0.016,0.005-0.027,0.011c0.065,0.135,0.102,0.259,0.119,0.372c-0.043-0.011-0.081-0.022-0.119-0.032&#13;&#10;&#9;&#9;&#9;&#9;c-0.048-0.016-0.097-0.038-0.14-0.065c-0.065-0.032-0.124-0.075-0.178-0.119c-0.075-0.065-0.146-0.135-0.205-0.221&#13;&#10;&#9;&#9;&#9;&#9;c0.42-1.278,1.73-1.121,2.625-1.477c3.11-1.224,6.15-2.458,9.665-2.647c3.865-0.205,7.681,0.005,11.503,0.194&#13;&#10;&#9;&#9;&#9;&#9;c2.701,0.129,5.218,1.288,7.767,2.097c3.676,1.164,6.776,3.461,9.719,5.913C103.476,232.48,104.829,233.639,105.653,235.256z"/>
			<line style="fill:none;" x1="50.953" y1="237.757" x2="50.926" y2="236.895"/>
			<path style="fill:#A6C9F2;" d="M61.485,227.704c-0.043-0.011-0.081-0.022-0.119-0.032c-0.048-0.016-0.097-0.038-0.14-0.065&#13;&#10;&#9;&#9;&#9;&#9;c-0.119,0.291-0.226,0.593-0.437,0.706c-3.962,2.097-7.142,5.067-9.864,8.581l-2.652,3.218h-0.005c0,0-0.005,0.005-0.005,0.011&#13;&#10;&#9;&#9;&#9;&#9;c-0.005,0-0.005,0-0.011,0l-0.162-0.065c-0.221-1.439,0.873-2.323,1.552-3.299c2.895-4.129,6.334-7.665,11.201-9.492&#13;&#10;&#9;&#9;&#9;&#9;c0.172,0.016,0.345,0.038,0.517,0.054c0,0.005,0.005,0.005,0.005,0.011C61.431,227.467,61.469,227.591,61.485,227.704z"/>
			<path style="fill:none;" d="M50.953,237.757l-0.027-0.862 M105.551,236.933c-0.027,0.027-0.054,0.054-0.081,0.075&#13;&#10;&#9;&#9;&#9;&#9;c0.005,0.016,0.016,0.038,0.027,0.054c0.032,0.054,0.065,0.108,0.097,0.162c-0.005-0.086-0.005-0.172,0-0.264&#13;&#10;&#9;&#9;&#9;&#9;C105.578,236.954,105.562,236.943,105.551,236.933z M48.263,240.124c0-0.005,0.005-0.011,0.005-0.011&#13;&#10;&#9;&#9;&#9;&#9;c-0.005,0-0.011,0.005-0.016,0.011c0,0.011,0,0.022-0.005,0.032v0.005c0,0.011,0,0.022-0.005,0.032&#13;&#10;&#9;&#9;&#9;&#9;c0.032,0.022,0.059,0.048,0.092,0.075c0.361,0.641,0.264,1.283,0,1.919c-0.647,1.563-0.954,3.159-1.035,4.754&#13;&#10;&#9;&#9;&#9;&#9;c0.086-0.625,0.248-1.251,0.501-1.881c0.776-1.94,1.089-4.097,2.215-5.902C49.61,239.671,49.093,240.07,48.263,240.124z&#13;&#10;&#9;&#9;&#9;&#9; M50.462,238.512c0.119-0.151,0.248-0.302,0.383-0.447c0.065-0.075,0.097-0.183,0.108-0.307L50.462,238.512z"/>
			<path style="fill:#FEFEFE;" d="M60.747,252.839c-0.232,1.375-1.924,1.364-3.008,1.439c-1.024,0.07-2.232,0.048-3.191-0.652&#13;&#10;&#9;&#9;&#9;&#9;c-0.027-0.243-0.054-0.49-0.081-0.733c-1.493-0.636-2-2.372-1.315-4.479c0.313-0.949,3.072-3.072,4.016-3.094&#13;&#10;&#9;&#9;&#9;&#9;c0.943-0.016,3.25,2.512,3.822,3.455C61.906,250.284,60.968,251.562,60.747,252.839z"/>
			<path style="fill:#FEFEFE;" d="M71.484,238.135c-0.685,2.21-1.574,4.183-4.107,4.819c-2.221,0.555-3.865-0.771-5.687-1.617&#13;&#10;&#9;&#9;&#9;&#9;c-1.245-0.577-0.674-1.579-0.76-2.409c-0.102-0.981-0.081-1.989-0.005-2.981c0.151-1.978,2.086-3.752,4.118-3.854&#13;&#10;&#9;&#9;&#9;&#9;c3.444-0.172,4.948,0.712,5.444,3.196v0.005C71.743,235.914,71.867,236.89,71.484,238.135z"/>
			<path style="fill:#FEFEFE;" d="M83.289,232.146c-0.005,3.396-2.167,5.563-5.498,5.52c-3.455-0.049-4.921-1.725-4.916-5.617&#13;&#10;&#9;&#9;&#9;&#9;c0.005-2.539,2.506-5.439,4.754-5.514C80.438,226.438,83.294,229.273,83.289,232.146z"/>
			<line style="fill:none;" x1="50.953" y1="237.757" x2="50.926" y2="236.895"/>
			<path style="fill:#FEFEFE;" d="M61.485,227.704c-0.043-0.011-0.081-0.022-0.119-0.032c-0.048-0.016-0.097-0.038-0.14-0.065&#13;&#10;&#9;&#9;&#9;&#9;c0.043-0.092,0.081-0.183,0.124-0.264v-0.005c0.005-0.005,0.005-0.011,0.011-0.016h0.032c-0.011,0-0.016,0.005-0.027,0.011&#13;&#10;&#9;&#9;&#9;&#9;C61.431,227.467,61.469,227.591,61.485,227.704z"/>
			<path style="fill:#FEFEFE;" d="M105.594,236.96c-0.005,0.092-0.005,0.178,0,0.264c-0.032-0.054-0.065-0.108-0.097-0.162&#13;&#10;&#9;&#9;&#9;&#9;c-0.011-0.016-0.022-0.038-0.027-0.054c-0.032-0.059-0.059-0.113-0.086-0.172c0.054,0.038,0.108,0.07,0.167,0.097&#13;&#10;&#9;&#9;&#9;&#9;C105.562,236.943,105.578,236.954,105.594,236.96z"/>
			<path style="fill:#DEEECF;" d="M71.484,238.135c-0.685,2.21-1.574,4.183-4.107,4.819c-2.221,0.555-3.865-0.771-5.687-1.617&#13;&#10;&#9;&#9;&#9;&#9;c-1.245-0.577-0.674-1.579-0.76-2.409c-0.102-0.981-0.081-1.989-0.005-2.981c0.151-1.978,2.086-3.752,4.118-3.854&#13;&#10;&#9;&#9;&#9;&#9;c3.444-0.172,4.948,0.712,5.444,3.196c-0.571,0.129-0.965-0.199-1.353-0.534c-0.172-0.146-0.345-0.291-0.534-0.399&#13;&#10;&#9;&#9;&#9;&#9;c-0.259-0.146-0.544-0.221-0.895-0.113c-1.31,0.005-2.62-0.011-3.93,0.032c-0.367,0.167-0.668,0.393-0.911,0.668&#13;&#10;&#9;&#9;&#9;&#9;c0,0-0.005,0-0.005,0.005c-0.916,1.019-0.997,2.679-0.135,4.415c0.005,0.005,0.005,0.016,0.005,0.022&#13;&#10;&#9;&#9;&#9;&#9;c0.048,0.097,0.102,0.183,0.151,0.28c0.129,0.129,0.243,0.27,0.35,0.415c1.8,1.941,3.946,1.951,5.703,0.027v-0.005&#13;&#10;&#9;&#9;&#9;&#9;c0.011-0.011,0.016-0.016,0.027-0.027c0.102-0.156,0.216-0.307,0.34-0.447c0.011-0.016,0.027-0.027,0.038-0.043&#13;&#10;&#9;&#9;&#9;&#9;c0.124-0.146,0.221-0.296,0.296-0.447c0.005-0.011,0.011-0.016,0.011-0.027c0.108-0.221,0.167-0.447,0.21-0.685v-0.005&#13;&#10;&#9;&#9;&#9;&#9;c0.108-0.62,0.059-1.283,0.146-1.914c0.065-0.431,0.194-0.846,0.485-1.213C71.743,235.914,71.867,236.89,71.484,238.135z"/>
			<path style="fill:#F6D1C8;" d="M83.289,232.146c-0.005,3.396-2.167,5.563-5.498,5.52c-3.455-0.049-4.921-1.725-4.916-5.617&#13;&#10;&#9;&#9;&#9;&#9;c0.005-2.539,2.506-5.439,4.754-5.514C80.438,226.438,83.294,229.273,83.289,232.146z"/>
			<path style="fill:#C2CEDD;" d="M56.866,253.88c-0.771-0.075-1.59,0.194-2.318-0.253c-0.027-0.243-0.054-0.49-0.081-0.733&#13;&#10;&#9;&#9;&#9;&#9;c-1.294-1.385-1.488-3.488-0.28-5.196c0.997-1.412,2.593-1.056,3.983-0.873c1.375,0.183,2.361,1.73,2.442,3.439&#13;&#10;&#9;&#9;&#9;&#9;C60.747,253.017,59.609,254.144,56.866,253.88z"/>
			<path style="fill:#E2E4EB;" d="M60.747,252.839c-0.232,1.375-1.924,1.364-3.008,1.439c-1.024,0.07-2.232,0.048-3.191-0.652&#13;&#10;&#9;&#9;&#9;&#9;c0.792,0.011,1.59-0.022,2.377,0.038c1.272,0.102,2.641-0.086,3.051-1.299c0.539-1.596,0.307-3.417-0.965-4.636&#13;&#10;&#9;&#9;&#9;&#9;c-1.078-1.04-2.701-0.62-3.978-0.313c-1.245,0.302-1.498,3.773-0.566,5.477c-1.493-0.636-2-2.372-1.315-4.479&#13;&#10;&#9;&#9;&#9;&#9;c0.313-0.949,3.072-3.072,4.016-3.094c0.943-0.016,3.25,2.512,3.822,3.455C61.906,250.284,60.968,251.562,60.747,252.839z"/>
			<path style="fill:#A0CE68;" d="M63.353,233.741c1.578-0.01,3.156-0.02,4.735-0.03c2.211,1.91,2.47,3.283,1.198,6.35l-0.001,0.007&#13;&#10;&#9;&#9;&#9;&#9;c-2.426,2.133-3.814,2.136-6.385,0.016l-0.001-0.001C61.632,237.867,61.644,235.743,63.353,233.741z"/>
			<path style="fill:#BEDC98;" d="M70.385,238.437c-0.108,0.609-0.059,1.552-1.1,1.622c0.016-0.156,0.038-0.318,0.054-0.474&#13;&#10;&#9;&#9;&#9;&#9;c0.199-1.827,0.323-3.638-0.739-5.229c-0.146-0.221-0.318-0.437-0.512-0.647c1.358-0.329,1.412,1.331,2.399,1.579v0.005&#13;&#10;&#9;&#9;&#9;&#9;C70.466,236.345,70.557,237.412,70.385,238.437z"/>
			<path style="fill:#BEDE9D;" d="M62.9,240.083c0.394-0.017,0.761,0.005,1.108,0.264c1.462,1.089,2.908,1.394,4.35-0.081&#13;&#10;&#9;&#9;&#9;&#9;c0.184-0.188,0.612-0.138,0.927-0.198c-0.279,1.73-1.74,1.983-2.971,1.914C65.012,241.907,63.275,242.056,62.9,240.083z"/>
			<path style="fill:#BEDE9D;" d="M63.353,233.741c-1.035,2.05-1.033,4.175-0.454,6.341&#13;&#10;&#9;&#9;&#9;&#9;C60.944,238.647,61.204,235.012,63.353,233.741z"/>
			<path style="fill:#6D9BD1;" d="M56.993,252.844c-1.455,0.318-2.337-0.497-2.222-1.755c0.136-1.492,1.78-1.114,2.725-1.279&#13;&#10;&#9;&#9;&#9;&#9;c0.912-0.16,1.761,0.742,1.712,1.763C59.143,252.917,58.052,252.977,56.993,252.844z"/>
		</g>
		<path style="fill:#619FEA;" d="M92.759,240.019c-1.551,0.008-3.101,0.016-4.651,0.024c-0.785-1.327-1.907-2.441-1.661-4.266&#13;&#10;&#9;&#9;&#9;c0.245-1.819,1.343-2.978,2.779-3.496c1.235-0.445,2.632-0.494,3.841,1.005c1.706,2.116,1.961,3.655,0.124,5.67&#13;&#10;&#9;&#9;&#9;C92.948,239.221,92.898,239.661,92.759,240.019z"/>
		<path style="fill:#ED6C52;" d="M77.972,228.888c2.513,0.004,3.339,0.83,3.311,3.309c-0.025,2.167-1.375,3.833-3.141,3.876&#13;&#10;&#9;&#9;&#9;c-2.074,0.05-3.686-1.738-3.658-4.059C74.512,229.607,75.319,228.884,77.972,228.888z"/>
	</g>
</g>
</svg>