<?xml version="1.0" encoding="UTF-8"?>
<svg version="1.1" xmlns="http://www.w3.org/2000/svg" width="1471" height="247">
<path d="M0 0 C10.56 0 21.12 0 32 0 C42.71571481 14.47685974 42.71571481 14.47685974 45.27734375 20.796875 C48.43670685 28.03116757 52.20667991 34.625907 56.4223938 41.28845215 C58.23140972 44.1616885 59.98987079 47.06539917 61.75 49.96875 C62.10054947 50.54550476 62.45109894 51.12225952 62.81227112 51.7164917 C66.78458304 58.26615518 70.64243065 64.88234976 74.5 71.5 C80.50138831 81.79479299 86.61255093 92.01519002 92.81793213 102.18826294 C99.22185626 112.68745349 105.5138081 123.24922128 111.73583984 133.85717773 C113.14482145 136.24548046 114.57333202 138.62222004 116 141 C116.33 94.47 116.66 47.94 117 0 C128.55 0 140.1 0 152 0 C152 69.63 152 139.26 152 211 C119 211 119 211 112.21875 204.984375 C110.80580292 202.21630271 109.63632991 199.61502978 108.5 196.75 C107.79547184 195.27813952 107.07663293 193.81305345 106.34448242 192.35473633 C104.86215065 189.37557549 103.44433762 186.37758316 102.06787109 183.34814453 C99.31386117 177.40562528 95.88231156 171.92379929 92.38726807 166.39624023 C90.59308018 163.54371687 88.85096401 160.65982471 87.10546875 157.77734375 C86.42274902 156.65312012 85.7400293 155.52889648 85.03662109 154.37060547 C80.0220214 146.07144899 75.1018096 137.71592019 70.17131042 129.36663818 C66.27729339 122.77337444 62.37019631 116.1878825 58.46136475 109.60339355 C57.30595823 107.65677779 56.15123105 105.70976045 54.99658203 103.76269531 C48.69967321 93.15345827 42.34769256 82.5794876 36 72 C35.67 117.87 35.34 163.74 35 211 C23.45 211 11.9 211 0 211 C0 141.37 0 71.74 0 0 Z " fill="#0095D5" transform="translate(957,33)"/>
<path d="M0 0 C11.55 0 23.1 0 35 0 C42.41621324 20.546558 49.57240347 41.17678968 56.69238281 61.82763672 C61.62190598 76.12385391 66.57200594 90.41245283 71.5625 104.6875 C75.57382622 116.16184134 79.57223614 127.6404435 83.54296875 139.12890625 C84.124701 140.8119561 84.124701 140.8119561 84.71818542 142.52900696 C86.28164442 147.05299177 87.84490215 151.57704588 89.40744019 156.10134888 C93.09835595 166.78585878 96.79206493 177.46871449 100.5859375 188.1171875 C100.85220947 188.86456177 101.11848145 189.61193604 101.39282227 190.38195801 C102.5908023 193.73958889 103.79409565 197.09520894 105.00488281 200.44824219 C105.40803711 201.57133789 105.81119141 202.69443359 106.2265625 203.8515625 C106.57283691 204.80885254 106.91911133 205.76614258 107.27587891 206.75244141 C108 209 108 209 108 211 C95.13 211 82.26 211 69 211 C62.07 190.21 62.07 190.21 55 169 C30.25 168.67 5.5 168.34 -20 168 C-20.99 171.96 -21.98 175.92 -23 180 C-23.78099899 182.5769898 -24.59187124 185.14530531 -25.4453125 187.69921875 C-25.66065643 188.34574905 -25.87600037 188.99227936 -26.09786987 189.65840149 C-26.54435983 190.99556883 -26.99300778 192.33201761 -27.44384766 193.66772461 C-28.13637693 195.72123526 -28.82056382 197.77740048 -29.50390625 199.83398438 C-32.86016597 209.86016597 -32.86016597 209.86016597 -34 211 C-36.8843382 211.08865208 -39.74462158 211.11521296 -42.62890625 211.09765625 C-43.92525246 211.09553383 -43.92525246 211.09553383 -45.24778748 211.09336853 C-48.01939292 211.08775239 -50.7909188 211.07519719 -53.5625 211.0625 C-55.4368478 211.05748708 -57.31119685 211.05292381 -59.18554688 211.04882812 C-63.79039544 211.03777772 -68.39518421 211.0205023 -73 211 C-65.88241629 189.385647 -58.55348396 167.85401411 -51.029953 146.37773132 C-50.70811539 145.45901749 -50.38627777 144.54030365 -50.0546875 143.59375 C-49.72910355 142.66452225 -49.40351959 141.73529449 -49.06806946 140.77790833 C-45.40049736 130.30220076 -41.77440197 119.81218658 -38.14834595 109.322052 C-25.53877862 72.8438126 -12.80792305 36.40903968 0 0 Z M17 54 C13.60478797 64.24678224 10.21435768 74.49513278 6.83006287 84.74552631 C5.25853477 89.50488259 3.68535011 94.26367797 2.10839844 99.02124023 C0.58728518 103.61054434 -0.92950104 108.20125741 -2.44326782 112.79298973 C-3.02224085 114.54662393 -3.60278458 116.29974033 -4.18490601 118.05233192 C-4.99849945 120.5027023 -5.80654372 122.95483611 -6.61328125 125.4074707 C-6.97796005 126.49935448 -6.97796005 126.49935448 -7.3500061 127.61329651 C-8.30526215 130.53381277 -9 132.90505412 -9 136 C8.82 136 26.64 136 45 136 C41.18669712 124.23341303 41.18669712 124.23341303 37.36779785 112.46865845 C34.94118039 104.99889772 32.52391941 97.5262717 30.12301636 90.04820251 C28.85400531 86.09830098 27.58019931 82.14995446 26.3057251 78.20181274 C25.68517897 76.2754095 25.0668111 74.34830321 24.45062256 72.42050171 C23.58461955 69.71210143 22.71112564 67.00622496 21.8359375 64.30078125 C21.57808472 63.48787628 21.32023193 62.67497131 21.05456543 61.83743286 C19.70283917 57.53246622 19.70283917 57.53246622 17 54 Z " fill="#0095D5" transform="translate(1204,33)"/>
<path d="M0 0 C23.94630406 -0.50319798 46.93413926 4.66834817 65.03515625 21.12109375 C69.69954677 25.7934169 73.22031126 30.11264787 76.03515625 36.12109375 C73.22472624 38.16562136 70.41142629 40.2061659 67.59765625 42.24609375 C66.81455078 42.81585938 66.03144531 43.385625 65.22460938 43.97265625 C59.91161769 47.82074899 54.5206045 51.52319095 49.03515625 55.12109375 C45.81902456 52.78208888 43.33066491 50.31749309 40.84765625 47.24609375 C33.16938051 38.30198513 22.45331998 34.48933606 11.03515625 33.12109375 C-0.86111637 32.4457595 -11.97577415 33.12874503 -21.96484375 40.12109375 C-27.50903902 45.53928458 -29.53926643 51.3516946 -30.40234375 58.99609375 C-30.01122503 66.54769357 -27.43494491 73.23447194 -21.96484375 78.49609375 C-16.78346547 82.64458289 -11.20194486 84.97709024 -4.96484375 87.12109375 C-4.03671875 87.44464844 -3.10859375 87.76820312 -2.15234375 88.1015625 C4.07964651 90.13193167 10.3785299 91.70163752 16.74804688 93.23242188 C37.74743522 98.30392332 59.21540313 104.84262374 71.41015625 124.12109375 C79.4930458 138.54043133 80.4758228 157.75618015 76.97265625 173.74609375 C72.12227908 189.14660007 62.45904471 200.80977543 48.36669922 208.54272461 C24.86282557 220.65881495 -6.23325364 219.60598145 -31.203125 212.44140625 C-47.33559801 206.779126 -61.36093442 197.62689596 -71.96484375 184.12109375 C-72.29484375 183.13109375 -72.62484375 182.14109375 -72.96484375 181.12109375 C-69.44704293 178.69998995 -65.92507186 176.28502144 -62.40234375 173.87109375 C-60.91637695 172.84822266 -60.91637695 172.84822266 -59.40039062 171.8046875 C-54.35724371 168.35323147 -49.33382452 165.04278314 -43.96484375 162.12109375 C-43.31 162.83394531 -42.65515625 163.54679688 -41.98046875 164.28125 C-29.65151198 177.37003852 -15.68784842 183.98717881 2.32275391 184.54052734 C13.73612577 184.62426614 24.86227677 183.561565 34.03515625 176.12109375 C39.25159229 170.90465771 41.18890071 164.88229824 41.41015625 157.62109375 C41.17162825 150.42549914 39.23991565 144.21770613 34.2265625 138.90234375 C22.52153954 129.38810049 7.27999024 126.47782589 -6.98339844 122.88085938 C-28.08094504 117.50454386 -48.29314326 109.61725269 -59.96484375 90.12109375 C-67.73463892 74.66058529 -69.6039792 56.9824945 -65.078125 40.1875 C-59.53149566 24.909942 -50.39045041 14.53438133 -35.77734375 7.37109375 C-24.35655947 2.53482458 -12.32761773 0.50349954 0 0 Z " fill="#0095D5" transform="translate(1392.96484375,29.87890625)"/>
<path d="M0 0 C1.051875 0.7425 2.10375 1.485 3.1875 2.25 C15.09053814 13.88852619 19.70455216 28.93186513 22 45 C22 54.57 22 64.14 22 74 C-9.68 74 -41.36 74 -74 74 C-71.62556736 97.59333788 -71.62556736 97.59333788 -58.75 116.3125 C-50.16452839 123.07567239 -40.09408665 124.50616425 -29.44140625 123.74609375 C-17.67866382 122.34064229 -8.6692542 118.94940837 -1.0625 109.625 C-0.711875 109.08875 -0.36125 108.5525 0 108 C4.73515334 108.94219888 7.91316232 111.509215 11.75 114.3125 C12.44738281 114.79912109 13.14476562 115.28574219 13.86328125 115.78710938 C14.52199219 116.26599609 15.18070313 116.74488281 15.859375 117.23828125 C16.46233398 117.67180908 17.06529297 118.10533691 17.68652344 118.55200195 C19 120 19 120 19 124 C13.39615948 134.29493429 3.18499621 141.5346397 -7.85717773 144.8605957 C-16.1069137 146.87900186 -23.89569629 147.50891058 -32.375 147.4375 C-33.64923828 147.42920166 -34.92347656 147.42090332 -36.23632812 147.41235352 C-53.26011928 147.10649128 -68.09512618 142.83270523 -80.8125 130.9375 C-93.96806947 116.89977864 -99.11807948 99.67176002 -99.203125 80.66015625 C-99.20882507 79.66100693 -99.21452515 78.6618576 -99.22039795 77.63243103 C-99.22982428 75.51855519 -99.2363725 73.40466481 -99.24023438 71.29077148 C-99.2498733 68.10438259 -99.28089199 64.91865781 -99.3125 61.73242188 C-99.42535104 40.15749876 -96.66544564 20.05074142 -81.125 3.75 C-60.79447735 -15.58317626 -22.44518693 -16.13512494 0 0 Z M-63 21 C-70.89442775 29.90109974 -72.84693718 40.46937179 -74 52 C-50.9 52 -27.8 52 -4 52 C-4 39.03371552 -6.62470838 29.60088878 -15.66015625 20.2890625 C-28.47299086 8.32263382 -50.23486543 9.42763149 -63 21 Z " fill="#0095D5" transform="translate(897,99)"/>
<path d="M0 0 C18.12852863 9.87453988 36.10016865 19.9991624 53.91015625 30.4375 C60.21570465 34.13213337 66.54297534 37.7884724 72.875 41.4375 C74.49305542 42.37021729 74.49305542 42.37021729 76.14379883 43.32177734 C79.42892251 45.21499899 82.71439728 47.10760983 86 49 C99.09504937 56.54228215 112.1862228 64.09114066 125.25 71.6875 C126.24402832 72.2637915 127.23805664 72.84008301 128.26220703 73.43383789 C129.19145996 73.97516357 130.12071289 74.51648926 131.078125 75.07421875 C131.88668945 75.54432373 132.69525391 76.01442871 133.52832031 76.4987793 C134.34397461 76.99418213 135.15962891 77.48958496 136 78 C137.54039444 78.83211754 137.54039444 78.83211754 139.11190796 79.68104553 C142 82 142 82 142.7215271 85.02459717 C142.70820343 86.20596252 142.69487976 87.38732788 142.68115234 88.60449219 C142.68246658 89.58560219 142.68246658 89.58560219 142.68380737 90.58653259 C142.67963816 92.74120983 142.6330315 94.89274436 142.5859375 97.046875 C142.57474265 98.54329731 142.56620382 100.03974166 142.56021118 101.53619385 C142.53733458 105.46918779 142.47842456 109.40084582 142.4119873 113.33331299 C142.35053767 117.3483269 142.32319064 121.36355734 142.29296875 125.37890625 C142.22867745 133.2532163 142.1263153 141.12644184 142 149 C138.46935789 147.61572638 135.19644021 146.09020174 131.88671875 144.234375 C130.89873291 143.68144775 129.91074707 143.12852051 128.89282227 142.55883789 C127.83506592 141.96192139 126.77730957 141.36500488 125.6875 140.75 C124.57882568 140.12665771 123.47015137 139.50331543 122.32788086 138.86108398 C112.86059123 133.52126695 103.46700035 128.05876975 94.08984375 122.5625 C87.78429535 118.86786663 81.45702466 115.2115276 75.125 111.5625 C73.50694458 110.62978271 73.50694458 110.62978271 71.85620117 109.67822266 C68.57107749 107.78500101 65.28560272 105.89239017 62 104 C22.43768965 81.21351798 22.43768965 81.21351798 14.97351074 76.67922974 C12.03482976 74.94150979 12.03482976 74.94150979 8.87832642 73.70140076 C5.39113029 72.11780612 2.79752328 70.63036149 0 68 C-1.67561818 62.81464696 -1.40555794 57.80837148 -1.171875 52.44140625 C-1.14946706 50.92690276 -1.13239792 49.41231172 -1.12042236 47.89768982 C-1.07479731 43.928354 -0.95713886 39.96436627 -0.82397461 35.99713135 C-0.70076778 31.94218316 -0.64631899 27.88636215 -0.5859375 23.83007812 C-0.45758957 15.88427548 -0.2530649 7.94280449 0 0 Z " fill="#0095D5" transform="translate(0,97)"/>
<path d="M0 0 C0 22.44 0 44.88 0 68 C-8.25 72.62 -16.5 77.24 -25 82 C-31.23774775 85.64975507 -31.23774775 85.64975507 -37.4609375 89.32421875 C-43.13328613 92.68145465 -48.85006883 95.96160625 -54.5625 99.25 C-64.04529482 104.71083158 -73.50779182 110.20487707 -82.95483398 115.72729492 C-91.40826606 120.66476526 -99.88962969 125.55294816 -108.37695312 130.43188477 C-113.7594661 133.53188296 -119.12465895 136.6569125 -124.4609375 139.8359375 C-125.47913574 140.44236084 -126.49733398 141.04878418 -127.54638672 141.67358398 C-129.47490956 142.82530969 -131.40112911 143.98090344 -133.32470703 145.14086914 C-134.17661621 145.64996826 -135.02852539 146.15906738 -135.90625 146.68359375 C-136.65197266 147.13275146 -137.39769531 147.58190918 -138.16601562 148.04467773 C-140 149 -140 149 -142 149 C-142.20883455 140.36827731 -142.36859087 131.73742791 -142.46630955 123.10372734 C-142.51321936 119.09428364 -142.57679843 115.08657179 -142.67895508 111.078125 C-142.77698922 107.20706407 -142.83060435 103.33766459 -142.85389519 99.46545792 C-142.87048376 97.99087484 -142.9028826 96.51637959 -142.95157051 95.04250717 C-143.31660946 83.5307596 -143.31660946 83.5307596 -140.15058899 79.84977722 C-137.83159399 78.27379209 -135.5681339 77.11572034 -133 76 C-131.95078369 75.36908447 -130.90156738 74.73816895 -129.82055664 74.08813477 C-128.86012451 73.54471436 -127.89969238 73.00129395 -126.91015625 72.44140625 C-125.80978027 71.81613037 -124.7094043 71.19085449 -123.57568359 70.54663086 C-123.00388367 70.22371063 -122.43208374 69.90079041 -121.84295654 69.56808472 C-119.37627275 68.17492545 -116.91390715 66.77420869 -114.45123291 65.37397766 C-113.17649368 64.64924366 -111.90154973 63.92486964 -110.62640381 63.20085144 C-104.35957699 59.64138571 -98.11516695 56.04348053 -91.875 52.4375 C-90.8130542 51.82406738 -89.7511084 51.21063477 -88.65698242 50.57861328 C-86.51343089 49.34030467 -84.36995737 48.10186101 -82.2265625 46.86328125 C-78.96475993 44.9796495 -75.70138156 43.09877679 -72.4375 41.21875 C-60.96804408 34.61106806 -49.51561857 27.97577042 -38.08691406 21.29785156 C-30.2791013 16.73875318 -22.45573426 12.20707033 -14.625 7.6875 C-13.49449219 7.03458984 -12.36398437 6.38167969 -11.19921875 5.70898438 C-9.63494141 4.80696289 -9.63494141 4.80696289 -8.0390625 3.88671875 C-6.65001709 3.08560669 -6.65001709 3.08560669 -5.23291016 2.26831055 C-1.23946102 0 -1.23946102 0 0 0 Z " fill="#31BEEC" transform="translate(310,97)"/>
<path d="M0 0 C8.25 0 16.5 0 25 0 C25.0093457 3.08239014 25.01869141 6.16478027 25.02832031 9.34057617 C25.06219541 19.56256749 25.11780279 29.78435916 25.18390274 40.0061903 C25.22329177 46.19936825 25.25552235 52.39240582 25.27099609 58.58569336 C25.28621904 64.57053752 25.32076473 70.55499556 25.36830902 76.53966713 C25.38306476 78.81478824 25.39103765 81.08996449 25.39188385 83.36513329 C25.07592101 104.69440755 25.07592101 104.69440755 34.3046875 123.41796875 C41.74397155 130.36015778 52.02331353 131.42998784 61.75390625 131.25 C71.66825172 130.4864403 79.92062797 126.50436523 86.75 119.3125 C94.0816879 110.45756187 95.1348013 100.30941279 95.20532227 89.23095703 C95.21522186 88.26447739 95.22512146 87.29799774 95.23532104 86.30223083 C95.26680459 83.12078263 95.29164136 79.93931951 95.31640625 76.7578125 C95.33698713 74.54677959 95.3579839 72.33575052 95.37937927 70.12472534 C95.43448278 64.31497306 95.48394364 58.50518597 95.53222656 52.69537354 C95.5825273 46.76303013 95.63816857 40.83073707 95.69335938 34.8984375 C95.80079755 23.26566648 95.9017805 11.63285251 96 0 C104.25 0 112.5 0 121 0 C121 50.49 121 100.98 121 153 C112.75 153 104.5 153 96 153 C95.505 147.06 95.505 147.06 95 141 C94.278125 141.7425 93.55625 142.485 92.8125 143.25 C80.07511313 155.70433383 65.88493211 155.45807444 48.9453125 155.2734375 C34.6717849 154.88910631 22.71076329 150.27155735 12.6875 139.8125 C-0.96188109 123.25423442 -0.43163532 104.08037504 -0.29296875 83.7890625 C-0.2873637 81.36526758 -0.2830979 78.94146923 -0.28010559 76.51766968 C-0.26872842 70.18182763 -0.23932342 63.84619653 -0.20599365 57.51043701 C-0.17513811 51.02782035 -0.16156734 44.54516915 -0.14648438 38.0625 C-0.11444618 25.37489308 -0.06173733 12.6874972 0 0 Z " fill="#0095D5" transform="translate(652,91)"/>
<path d="M0 0 C51.15 0 102.3 0 155 0 C155 8.25 155 16.5 155 25 C133.88 25 112.76 25 91 25 C91 86.38 91 147.76 91 211 C82.09 211 73.18 211 64 211 C64 149.62 64 88.24 64 25 C42.88 25 21.76 25 0 25 C0 16.75 0 8.5 0 0 Z " fill="#0095D5" transform="translate(378,33)"/>
<path d="M0 0 C0.30205905 8.59695997 0.53258967 17.19168404 0.67355824 25.79264832 C0.74124362 29.78734482 0.83289958 33.77839766 0.98071289 37.77099609 C1.12264935 41.62928538 1.19981693 45.48408841 1.23340416 49.3447876 C1.25731239 50.81242817 1.30401524 52.27989028 1.37449074 53.74603271 C1.58887981 58.39367495 1.53557175 62.54033848 0 67 C-3.94598645 70.72970929 -8.05895421 72.73408901 -13 75 C-15.17113743 76.23215024 -17.33296326 77.48101502 -19.48046875 78.75390625 C-21.71492242 80.02558955 -23.95063826 81.29505723 -26.1875 82.5625 C-28.63086549 83.95066878 -31.07333698 85.34040536 -33.515625 86.73046875 C-34.13138901 87.08071106 -34.74715302 87.43095337 -35.38157654 87.79180908 C-39.74048329 90.27407841 -44.08474014 92.78068957 -48.421875 95.30078125 C-49.31372246 95.81835747 -49.31372246 95.81835747 -50.22358704 96.34638977 C-53.06364237 97.99480323 -55.90181359 99.6463048 -58.73706055 101.30297852 C-59.7506665 101.89135498 -60.76427246 102.47973145 -61.80859375 103.0859375 C-62.69345459 103.6020459 -63.57831543 104.1181543 -64.48999023 104.64990234 C-66.98487236 105.99186306 -69.28485521 107.18059428 -72 108 C-74.84353597 106.80924993 -77.20044822 105.58654298 -79.8125 104 C-80.58440674 103.55084229 -81.35631348 103.10168457 -82.15161133 102.63891602 C-83.85336101 101.64613103 -85.55032939 100.64511813 -87.24316406 99.63720703 C-90.14743855 97.91244041 -93.06756775 96.21736352 -95.9921875 94.52734375 C-107.05772065 88.12351281 -118.06494047 81.6241226 -129 75 C-126.18356986 71.97162017 -123.4279552 69.8925268 -119.8359375 67.85546875 C-118.80984375 67.26894531 -117.78375 66.68242188 -116.7265625 66.078125 C-115.62054688 65.45421875 -114.51453125 64.8303125 -113.375 64.1875 C-112.2079447 63.52281732 -111.04128477 62.85744001 -109.875 62.19140625 C-107.4530191 60.80899197 -105.02936846 59.42957485 -102.60449219 58.05224609 C-97.05360299 54.89605861 -91.52817099 51.69574991 -86 48.5 C-83.83345276 47.24979302 -81.66678569 45.99979367 -79.5 44.75 C-78.4275 44.13125 -77.355 43.5125 -76.25 42.875 C-66.5 37.25 -66.5 37.25 -63.24829102 35.37402344 C-61.08731012 34.12729744 -58.92634002 32.88055273 -56.76538086 31.63378906 C-51.26181149 28.45854117 -45.75803968 25.28364505 -40.25390625 22.109375 C-39.14337891 21.4687915 -38.03285156 20.82820801 -36.88867188 20.16821289 C-34.69626926 18.90384799 -32.50356786 17.64000103 -30.31054688 16.37670898 C-25.26933721 13.47120517 -20.23418434 10.55642826 -15.21484375 7.61328125 C-14.32917725 7.09540039 -13.44351074 6.57751953 -12.53100586 6.04394531 C-10.88774342 5.08211292 -9.24650284 4.11681477 -7.60766602 3.14746094 C-2.22318174 0 -2.22318174 0 0 0 Z " fill="#31BEEC" transform="translate(142,0)"/>
<path d="M0 0 C3.62138201 1.41792161 6.96563988 3.00154162 10.359375 4.90625 C11.38345459 5.47980225 12.40753418 6.05335449 13.46264648 6.64428711 C14.54747314 7.25667236 15.6322998 7.86905762 16.75 8.5 C17.87672119 9.13365479 19.00344238 9.76730957 20.16430664 10.42016602 C26.95373877 14.24919428 33.70747314 18.13096668 40.41088867 22.10839844 C46.76386647 25.87615233 53.16119885 29.5650543 59.5625 33.25 C69.03363957 38.7041197 78.48533366 44.19001786 87.91967773 49.70751953 C93.29274874 52.84689192 98.67490152 55.96954571 104.0703125 59.0703125 C104.66092468 59.40996033 105.25153687 59.74960815 105.86004639 60.09954834 C108.72156866 61.74485729 111.58434585 63.38786889 114.44921875 65.02734375 C119.40911296 67.87664468 124.30281191 70.73309756 129 74 C125.71902718 76.72535098 122.44143068 79.03219711 118.73828125 81.14453125 C117.71379883 81.73242432 116.68931641 82.32031738 115.63378906 82.92602539 C114.53776367 83.54856201 113.44173828 84.17109863 112.3125 84.8125 C109.97995501 86.13973464 107.6477836 87.46759346 105.31640625 88.796875 C104.71831146 89.13735367 104.12021667 89.47783234 103.5039978 89.82862854 C99.81221791 91.93822145 96.15381524 94.09552111 92.51725769 96.29890442 C90.74065718 97.37498983 88.95937023 98.44286277 87.17651367 99.50854492 C84.92621435 100.85744184 82.68508119 102.22177302 80.4543457 103.6027832 C79.43300537 104.20952881 78.41166504 104.81627441 77.359375 105.44140625 C76.46702148 105.98482666 75.57466797 106.52824707 74.65527344 107.08813477 C71.05802755 108.32348907 69.42361417 107.532416 66 106 C64.33236954 105.14032365 62.69093121 104.22811924 61.078125 103.26953125 C60.14798584 102.72127686 59.21784668 102.17302246 58.25952148 101.6081543 C57.26637939 101.01558838 56.2732373 100.42302246 55.25 99.8125 C53.10068852 98.54354544 50.95093303 97.27534271 48.80078125 96.0078125 C47.12943115 95.02022949 47.12943115 95.02022949 45.42431641 94.01269531 C39.78485124 90.69801181 34.10969855 87.44573275 28.4375 84.1875 C21.24340051 80.04563628 14.05850577 75.89160534 6.9375 71.625 C6.330271 71.26172607 5.72304199 70.89845215 5.09741211 70.52416992 C1.13049261 68.13049261 1.13049261 68.13049261 0 67 C-0.09417773 64.91380978 -0.11742878 62.82439523 -0.11352539 60.73608398 C-0.11367142 60.08244873 -0.11381744 59.42881348 -0.1139679 58.75537109 C-0.11326883 56.58557872 -0.10547678 54.41587121 -0.09765625 52.24609375 C-0.09579205 50.74536689 -0.09436816 49.24463943 -0.09336853 47.74391174 C-0.08954352 43.78681774 -0.0797134 39.82976022 -0.06866455 35.87268066 C-0.05845006 31.83765151 -0.05387083 27.80261647 -0.04882812 23.76757812 C-0.03809111 15.84503531 -0.0210149 7.92252219 0 0 Z " fill="#0095D5" transform="translate(168,0)"/>
<path d="M0 0 C7.61102107 6.83306321 7.61102107 6.83306321 9 11 C2.52601761 16.30315579 -4.08209501 21.28993703 -11 26 C-13.712865 24.75755342 -15.14721333 23.84460815 -17.25 21.625 C-23.76781657 15.40344782 -31.18024629 13.60906995 -39.9921875 13.7265625 C-48.76371514 14.5239741 -56.32684843 18.24379222 -62 25 C-67.9245533 34.12864845 -69.29354181 43.60866035 -69.31884766 54.29321289 C-69.32889328 55.27963776 -69.3389389 56.26606262 -69.34928894 57.28237915 C-69.3799487 60.51246609 -69.39710802 63.74247082 -69.4140625 66.97265625 C-69.432788 69.22424519 -69.45236243 71.47582721 -69.4727478 73.72740173 C-69.52392896 79.6308076 -69.56362956 85.53423619 -69.60089111 91.43774414 C-69.64101884 97.47092239 -69.69207109 103.50400729 -69.7421875 109.53710938 C-69.83878081 121.35801364 -69.9222279 133.17895691 -70 145 C-78.25 145 -86.5 145 -95 145 C-95 94.51 -95 44.02 -95 -8 C-86.75 -8 -78.5 -8 -70 -8 C-69.67 -4.37 -69.34 -0.74 -69 3 C-68.071875 1.948125 -67.14375 0.89625 -66.1875 -0.1875 C-49.73441718 -16.47572228 -17.02591992 -14.07604302 0 0 Z " fill="#0095D5" transform="translate(627,99)"/>
<path d="M0 0 C1.24559692 0.67905396 1.24559692 0.67905396 2.51635742 1.37182617 C3.35513428 1.82259521 4.19391113 2.27336426 5.05810547 2.73779297 C5.9556958 3.26026611 6.85328613 3.78273926 7.77807617 4.32104492 C8.80304199 4.91522217 9.82800781 5.50939941 10.8840332 6.12158203 C11.9795752 6.7610376 13.07511719 7.40049316 14.20385742 8.05932617 C15.93310101 9.06306552 17.66234789 10.06679925 19.39178467 11.07020569 C21.19966529 12.11964017 23.00672375 13.17048036 24.8137207 14.22143555 C30.33365718 17.42977869 35.86618544 20.61630211 41.39785767 23.80435181 C44.1800319 25.40803071 46.96144333 27.0130314 49.74291992 28.61791992 C50.66669434 29.1508667 51.59046875 29.68381348 52.54223633 30.23291016 C53.19369629 30.60875244 53.84515625 30.98459473 54.51635742 31.37182617 C54.51635742 32.69182617 54.51635742 34.01182617 54.51635742 35.37182617 C53.84805908 35.74355957 53.17976074 36.11529297 52.49121094 36.49829102 C36.26925071 45.51659496 36.26925071 45.51659496 20.20385742 54.80932617 C19.53 55.20531006 18.85614258 55.60129395 18.16186523 56.00927734 C15.08756388 57.82247371 12.0385848 59.66370577 9.02416992 61.57495117 C7.9697168 62.22979492 6.91526367 62.88463867 5.82885742 63.55932617 C4.93811523 64.13038086 4.04737305 64.70143555 3.12963867 65.28979492 C-0.25173785 66.68985665 -1.94179233 66.21275544 -5.48364258 65.37182617 C-8.32250977 64.02758789 -8.32250977 64.02758789 -11.28051758 62.30151367 C-12.39265625 61.65891602 -13.50479492 61.01631836 -14.65063477 60.35424805 C-15.84506421 59.65193309 -17.03939802 58.94945547 -18.23364258 58.24682617 C-19.46652884 57.53044919 -20.69993492 56.81496615 -21.93383789 56.1003418 C-24.49221206 54.61698559 -27.04761683 53.12869573 -29.60083008 51.63647461 C-33.42849899 49.40102167 -37.26686691 47.18449114 -41.10864258 44.97338867 C-41.7133136 44.62533173 -42.31798462 44.27727478 -42.940979 43.91867065 C-44.1269358 43.23605388 -45.31290955 42.55346657 -46.49890137 41.87091064 C-50.83015328 39.3764253 -55.15661385 36.8736276 -59.48364258 34.37182617 C-59.48364258 33.71182617 -59.48364258 33.05182617 -59.48364258 32.37182617 C-58.76112305 31.9604541 -58.03860352 31.54908203 -57.29418945 31.12524414 C-30.54962896 16.75621783 -30.54962896 16.75621783 -4.99902344 0.57226562 C-2.48364258 -0.62817383 -2.48364258 -0.62817383 0 0 Z " fill="#AEADAE" transform="translate(156.483642578125,89.628173828125)"/>
</svg>
