<?xml version="1.0" encoding="UTF-8"?>
<svg version="1.1" xmlns="http://www.w3.org/2000/svg" width="512" height="512">
<path d="M0 0 C1.47049805 0.32145996 1.47049805 0.32145996 2.97070312 0.64941406 C22.72969032 5.0942157 41.92714782 11.85279461 60 21 C61.10722412 21.55276611 61.10722412 21.55276611 62.23681641 22.11669922 C76.9799182 29.51096909 90.27885928 38.08237004 103.4375 48 C104.19047363 48.56436768 104.94344727 49.12873535 105.71923828 49.71020508 C106.40872559 50.2389624 107.09821289 50.76771973 107.80859375 51.3125 C108.42532959 51.78300781 109.04206543 52.25351562 109.67749023 52.73828125 C110.11391846 53.15464844 110.55034668 53.57101563 111 54 C111 54.66 111 55.32 111 56 C111.56460937 56.2475 112.12921875 56.495 112.7109375 56.75 C122.54056094 62.11771246 132.40674815 73.0283605 139 82 C139 82.66 139 83.32 139 84 C139.99 84.33 140.98 84.66 142 85 C143.28344727 86.34423828 143.28344727 86.34423828 144.56640625 88.0703125 C145.0466626 88.71129883 145.52691895 89.35228516 146.02172852 90.01269531 C146.53018311 90.70975586 147.0386377 91.40681641 147.5625 92.125 C148.09480225 92.8478418 148.62710449 93.57068359 149.17553711 94.31542969 C167.62341327 119.55091367 180.83756331 146.10697476 190 176 C190.35771484 177.15870605 190.35771484 177.15870605 190.72265625 178.34082031 C192.38693576 183.8448304 193.77157179 189.38327102 195 195 C195.19754883 195.88574707 195.39509766 196.77149414 195.59863281 197.68408203 C202.25414797 229.13710988 202.01214847 265.64278202 195 297 C194.67854004 298.47049805 194.67854004 298.47049805 194.35058594 299.97070312 C189.9057843 319.72969032 183.14720539 338.92714782 174 357 C173.63148926 357.73814941 173.26297852 358.47629883 172.88330078 359.23681641 C165.48903091 373.9799182 156.91762996 387.27885928 147 400.4375 C146.43563232 401.19047363 145.87126465 401.94344727 145.28979492 402.71923828 C144.7610376 403.40872559 144.23228027 404.09821289 143.6875 404.80859375 C143.21699219 405.42532959 142.74648438 406.04206543 142.26171875 406.67749023 C141.84535156 407.11391846 141.42898438 407.55034668 141 408 C140.34 408 139.68 408 139 408 C138.7525 408.56460937 138.505 409.12921875 138.25 409.7109375 C132.88228754 419.54056094 121.9716395 429.40674815 113 436 C112.34 436 111.68 436 111 436 C110.67 436.99 110.34 437.98 110 439 C108.65576172 440.28344727 108.65576172 440.28344727 106.9296875 441.56640625 C106.28870117 442.0466626 105.64771484 442.52691895 104.98730469 443.02172852 C104.29024414 443.53018311 103.59318359 444.0386377 102.875 444.5625 C102.1521582 445.09480225 101.42931641 445.62710449 100.68457031 446.17553711 C70.97820697 467.89175671 39.28347643 482.11778639 3.61328125 491.0546875 C0.19622145 491.81594353 0.19622145 491.81594353 -2 493 C-4.52136658 493.37310396 -7.03201026 493.70419846 -9.5625 494 C-10.24119141 494.0825 -10.91988281 494.165 -11.61914062 494.25 C-12.98521666 494.41480465 -14.35173824 494.57596295 -15.71870422 494.73321533 C-17.15191968 494.90082179 -18.58434299 495.07550984 -20.01542664 495.26043701 C-25.90148823 495.98778332 -31.71352951 496.17625947 -37.640625 496.203125 C-38.64349548 496.20882507 -39.64636597 496.21452515 -40.67962646 496.22039795 C-42.79747481 496.22979966 -44.91533746 496.23636259 -47.03320312 496.24023438 C-50.19949573 496.24984668 -53.3651118 496.28087815 -56.53125 496.3125 C-69.29582121 496.37683404 -81.44998873 495.37574523 -94.03387451 493.27201843 C-96.36729063 492.94918441 -98.64768957 492.98974283 -101 493 C-103.11425781 492.43823242 -103.11425781 492.43823242 -105.203125 491.66796875 C-108.35959745 490.55434129 -111.5026961 489.54865268 -114.734375 488.67578125 C-133.33893587 483.63492717 -151.00608453 477.12248805 -168 468 C-168.72815918 467.61585938 -169.45631836 467.23171875 -170.20654297 466.8359375 C-180.07138138 461.61844992 -189.39554088 456.01846805 -198.30029297 449.28515625 C-200.10924293 447.91740093 -201.93128166 446.56821579 -203.75390625 445.21875 C-204.96188693 444.31376593 -206.16895003 443.40755549 -207.375 442.5 C-208.2244519 441.86771484 -208.2244519 441.86771484 -209.09106445 441.22265625 C-210.4322975 440.1965993 -211.72205042 439.10387672 -213 438 C-213 437.34 -213 436.68 -213 436 C-213.81210938 435.66355469 -213.81210938 435.66355469 -214.640625 435.3203125 C-217.73791339 433.58706171 -220.18003946 431.28903218 -222.75 428.875 C-223.54180664 428.13902588 -223.54180664 428.13902588 -224.34960938 427.38818359 C-237.19256925 415.39386022 -237.19256925 415.39386022 -241 410 C-241 409.34 -241 408.68 -241 408 C-241.99 407.67 -242.98 407.34 -244 407 C-247 403.55555556 -247 403.55555556 -247 401 C-247.66 401 -248.32 401 -249 401 C-251.39547724 398.17017798 -253.29038976 395.01587061 -255.25 391.875 C-257.47457 388.3388606 -259.76811291 384.92140007 -262.25 381.5625 C-279.22549869 357.45347714 -288.95003079 328.97036926 -296.0546875 300.61328125 C-296.81594353 297.19622145 -296.81594353 297.19622145 -298 295 C-298.37282763 292.29117422 -298.7042402 289.5922932 -299 286.875 C-299.16637791 285.39319672 -299.33304358 283.91142571 -299.5 282.4296875 C-299.5721875 281.77210449 -299.644375 281.11452148 -299.71875 280.43701172 C-299.95264128 278.41036002 -300.22913611 276.38868017 -300.51635742 274.36889648 C-301.1280691 269.47108662 -301.19779402 264.59907106 -301.23828125 259.66796875 C-301.2480751 258.68656921 -301.25786896 257.70516968 -301.26795959 256.69403076 C-301.43320433 235.83926044 -301.57444974 215.4562151 -297 195 C-296.78569336 194.01966797 -296.57138672 193.03933594 -296.35058594 192.02929688 C-291.9057843 172.27030968 -285.14720539 153.07285218 -276 135 C-275.63148926 134.26185059 -275.26297852 133.52370117 -274.88330078 132.76318359 C-267.10763041 117.25962452 -258.12318494 103.32718111 -247.25 89.828125 C-244.95998553 87.03091176 -244.95998553 87.03091176 -243 84 C-242.34 84 -241.68 84 -241 84 C-240.7525 83.43539062 -240.505 82.87078125 -240.25 82.2890625 C-234.88228754 72.45943906 -223.9716395 62.59325185 -215 56 C-214.34 56 -213.68 56 -213 56 C-212.67 55.01 -212.34 54.02 -212 53 C-210.65576172 51.71655273 -210.65576172 51.71655273 -208.9296875 50.43359375 C-208.28870117 49.9533374 -207.64771484 49.47308105 -206.98730469 48.97827148 C-206.29024414 48.46981689 -205.59318359 47.9613623 -204.875 47.4375 C-203.7907373 46.63904663 -203.7907373 46.63904663 -202.68457031 45.82446289 C-177.44908633 27.37658673 -150.89302524 14.16243669 -121 5 C-120.2275293 4.76152344 -119.45505859 4.52304688 -118.65917969 4.27734375 C-113.1551696 2.61306424 -107.61672898 1.22842821 -102 0 C-100.67137939 -0.29632324 -100.67137939 -0.29632324 -99.31591797 -0.59863281 C-67.86289012 -7.25414797 -31.35721798 -7.01214847 0 0 Z M-83.95703125 96.8203125 C-84.73232178 97.02285645 -85.5076123 97.22540039 -86.30639648 97.43408203 C-87.54691772 97.77608643 -87.54691772 97.77608643 -88.8125 98.125 C-89.66980713 98.35944824 -90.52711426 98.59389648 -91.41040039 98.83544922 C-93.94523393 99.54074066 -96.47350025 100.26546843 -99 101 C-100.81371094 101.5259375 -100.81371094 101.5259375 -102.6640625 102.0625 C-120.195335 107.75284143 -136.52303365 118.07073029 -150.1640625 130.34765625 C-151.95408685 131.95867816 -153.78168839 133.51299134 -155.625 135.0625 C-158.92814658 137.89485328 -162.03194264 140.81476771 -165 144 C-165 144.66 -165 145.32 -165 146 C-165.66 146 -166.32 146 -167 146 C-168.80112848 148.19228265 -170.47497737 150.3848315 -172.125 152.6875 C-172.86314941 153.71037109 -172.86314941 153.71037109 -173.61621094 154.75390625 C-187.98466959 174.87161804 -197.69885117 196.60542455 -202 221 C-202.13148438 221.7321875 -202.26296875 222.464375 -202.3984375 223.21875 C-203.29095139 229.10451728 -203.08901882 235.06541194 -203 241 C-200.16761215 237.66242016 -198.86614498 234.2816086 -197.375 230.1875 C-191.7983771 215.5902933 -184.27097385 202.13548693 -170 195 C-163.45935167 194.22921653 -158.37943455 194.6257513 -152.75390625 198.125 C-146.60429325 204.69919652 -146.431768 211.57843986 -146.5300293 220.11987305 C-146.5278389 221.31269897 -146.5256485 222.5055249 -146.52339172 223.73449707 C-146.52148482 226.98452169 -146.53729485 230.23385561 -146.56149268 233.48377204 C-146.58289313 236.89401375 -146.58219811 240.30425565 -146.58418274 243.71455383 C-146.59061524 249.43651167 -146.61180759 255.15825456 -146.64331055 260.88012695 C-146.68365565 268.21750361 -146.70101038 275.55474063 -146.71061993 282.89221478 C-146.71892952 289.21398924 -146.73615723 295.53573438 -146.75565743 301.85748315 C-146.75970154 303.21138938 -146.76344185 304.56529656 -146.7668798 305.91920447 C-146.77819205 310.36896282 -146.79837642 314.81860759 -146.82299805 319.26831055 C-146.82568695 320.38790665 -146.82837585 321.50750275 -146.83114624 322.661026 C-146.83830154 323.69127899 -146.84545685 324.72153198 -146.85282898 325.78300476 C-146.8592392 327.12107193 -146.8592392 327.12107193 -146.86577892 328.48617077 C-147.00537443 331.10065779 -147.31731347 333.47125007 -148 336 C-152.74812102 339.16541401 -157.66860021 339.12516 -163.1875 339.0625 C-163.93708984 339.05798828 -164.68667969 339.05347656 -165.45898438 339.04882812 C-167.30602383 339.03706354 -169.15302213 339.01912865 -171 339 C-168.63511991 343.3356135 -165.72642736 346.73613403 -162.375 350.3125 C-161.5694165 351.17452026 -161.5694165 351.17452026 -160.74755859 352.05395508 C-137.10822497 377.09191991 -101.85433679 396.37129267 -67 398 C-61.99814925 398.0704486 -57.00218426 398.05931444 -52 398 C-51.71382812 397.36578125 -51.42765625 396.7315625 -51.1328125 396.078125 C-49.77344458 393.58438799 -48.58919691 393.03567876 -46 392 C-46 391.34 -46 390.68 -46 390 C-45.01 389.67 -44.02 389.34 -43 389 C-41.64613064 387.34997172 -40.31321858 385.6825613 -39 384 C-38.01 383.34 -37.02 382.68 -36 382 C-36 381.34 -36 380.68 -36 380 C-35.01 379.67 -34.02 379.34 -33 379 C-31.66104368 377.33784732 -30.32869858 375.67036393 -29 374 C-27.55581772 372.81256123 -26.1105758 371.62619493 -24.6484375 370.4609375 C-22.02807232 368.13862333 -19.84863603 365.45709573 -17.61328125 362.76953125 C-16 361 -16 361 -13 359 C-13 358.34 -13 357.68 -13 357 C-7.40583434 361.49318625 -2.96326454 366.31205079 1.3359375 372.05859375 C1.88507813 372.69925781 2.43421875 373.33992188 3 374 C3.66 374 4.32 374 5 374 C5.226875 374.53625 5.45375 375.0725 5.6875 375.625 C7.43382056 378.78500863 9.6402849 381.2676983 12 384 C31.60170158 378.70224281 49.23174188 362.50463341 62.8125 348 C63.31007813 347.47253174 63.80765625 346.94506348 64.3203125 346.40161133 C67.00260918 343.4487238 68.78824114 340.81038624 70 337 C70.66 337 71.32 337 72 337 C73.64671436 334.69827287 75.15079779 332.41001458 76.625 330 C77.2905188 328.91936279 77.2905188 328.91936279 77.96948242 327.81689453 C85.91122145 314.72248806 93.81276085 300.3336976 96 285 C91.98133511 288.36446363 88.09015477 291.83062376 84.26391602 295.41064453 C61.10864375 317.0408386 61.10864375 317.0408386 46.68359375 316.9921875 C42.02501264 316.6391484 38.89321654 315.71345395 35 313 C34.34 313 33.68 313 33 313 C32.95311198 296.94382383 32.91792932 280.88767014 32.89637566 264.83144188 C32.88609834 257.37490921 32.87210648 249.91841928 32.84912109 242.46191406 C32.82907793 235.9567285 32.81625786 229.45157391 32.81182301 222.94635832 C32.80923397 219.50743687 32.80322416 216.06860399 32.78853989 212.62971115 C32.77390073 208.77441021 32.77202724 204.91928936 32.77294922 201.06396484 C32.76575867 199.94545639 32.75856812 198.82694794 32.75115967 197.67454529 C32.81643171 172.24749871 41.4545576 145.1757981 59.44824219 126.49658203 C59.90618164 126.05556152 60.36412109 125.61454102 60.8359375 125.16015625 C61.55007813 124.44730469 62.26421875 123.73445313 63 123 C63 122.34 63 121.68 63 121 C63.66 121 64.32 121 65 121 C66.22809298 119.5727568 67.45048041 118.13961383 68.625 116.66796875 C70.59722375 114.27552687 72.77711619 112.15937284 75 110 C50.06358378 113.16428009 25.59878408 124.30795029 6 140 C6 140.66 6 141.32 6 142 C5.4225 142.268125 4.845 142.53625 4.25 142.8125 C1.94449957 144.02929189 -0.02056192 145.30333879 -2 147 C-2 147.66 -2 148.32 -2 149 C-2.53625 149.20625 -3.0725 149.4125 -3.625 149.625 C-6.91978009 151.53250426 -9.59363628 154.04819384 -12 157 C-12 157.66 -12 158.32 -12 159 C-12.66 159 -13.32 159 -14 159 C-14.33 159.66 -14.66 160.32 -15 161 C-17.49617062 160.01044665 -19.97871499 159.0093463 -22.4375 157.9296875 C-29.75639109 154.91733903 -36.14187325 154.5502503 -44 155 C-42.63676257 157.0399719 -42.63676257 157.0399719 -41 159 C-40.34 159 -39.68 159 -39 159 C-38.7525 159.53625 -38.505 160.0725 -38.25 160.625 C-37.01766672 163.10730864 -37.01766672 163.10730864 -35.125 165.5625 C-29.44544982 174.07867565 -28.38883941 183.11260066 -28.32373047 193.11547852 C-28.30065826 194.37873962 -28.27758606 195.64200073 -28.2538147 196.94354248 C-28.19341435 200.37521924 -28.15892666 203.8066312 -28.13338232 207.23872876 C-28.1171094 209.38922759 -28.09674694 211.53965381 -28.07535172 213.69010735 C-28.01011413 220.43794311 -27.96223036 227.18559733 -27.93772399 233.93370491 C-27.90917421 241.69024397 -27.82124066 249.44315561 -27.68272102 257.19849259 C-27.57891645 263.22010179 -27.52936152 269.24068196 -27.52007973 275.26317161 C-27.51331095 278.84974934 -27.48407416 282.43263642 -27.39751816 286.01825142 C-26.86065497 309.48165434 -26.86065497 309.48165434 -32.0737915 314.94161987 C-35.45217856 317.68416678 -38.98746318 319.35685693 -43 321 C-44.38525966 321.7948817 -45.7643353 322.60121486 -47.125 323.4375 C-54.27728162 326.66756267 -62.27496101 329.07981819 -70 327 C-70.64453125 326.84660156 -71.2890625 326.69320312 -71.953125 326.53515625 C-77.92636339 324.79106183 -81.95372864 321.42665196 -85 316 C-86.01171073 311.02838732 -85.94570456 306.09829107 -85.88647461 301.046875 C-85.8943723 299.5383064 -85.90533947 298.02975123 -85.91912842 296.52122498 C-85.94775636 292.44499756 -85.93366929 288.36992379 -85.91168666 284.29369736 C-85.89601467 280.02684585 -85.91993751 275.76021688 -85.93959045 271.4934082 C-85.97078604 263.42224261 -85.96657287 255.35150277 -85.94951588 247.28031063 C-85.93182266 238.08795198 -85.95378911 228.89582045 -85.97902286 219.70349503 C-86.03002329 200.80224567 -86.03142731 181.90128304 -86 163 C-87.03060547 163.13329712 -87.03060547 163.13329712 -88.08203125 163.26928711 C-88.98308594 163.3750708 -89.88414062 163.48085449 -90.8125 163.58984375 C-91.70582031 163.6993335 -92.59914063 163.80882324 -93.51953125 163.92163086 C-96.77354464 164.02443975 -98.47149775 162.97539239 -101 161 C-101.66 161 -102.32 161 -103 161 C-107.77217109 147.08116766 -107.15433652 134.64692638 -100.75 121.41796875 C-95.10180729 111.22875747 -87.10925492 102.78718217 -77 97 C-80.16500673 95.94499776 -80.88318441 96.00697385 -83.95703125 96.8203125 Z " fill="#FFFFFF" transform="translate(307,10)"/>
</svg>
